<?xml version="1.0" encoding="utf-8"?>
<!-- Generator: Adobe Illustrator 16.0.0, SVG Export Plug-In . SVG Version: 6.00 Build 0)  -->
<!DOCTYPE svg PUBLIC "-//W3C//DTD SVG 1.1//EN" "http://www.w3.org/Graphics/SVG/1.1/DTD/svg11.dtd">
<svg version="1.1" id="Layer_1" xmlns="http://www.w3.org/2000/svg" xmlns:xlink="http://www.w3.org/1999/xlink" x="0px" y="0px"
	 width="40.25px" height="41.5px" viewBox="-6.75 -7.25 40.25 41.5" enable-background="new -6.75 -7.25 40.25 41.5"
	 xml:space="preserve">
<circle fill="#FFFFFF" cx="13.512" cy="13.694" r="19.524"/>
<path fill="none" stroke="#50137C" stroke-linecap="round" stroke-linejoin="round" d="M22.184,17.599v2.361
	c0,0.219-0.05,0.437-0.147,0.636c-0.097,0.201-0.239,0.382-0.417,0.531c-0.181,0.147-0.391,0.26-0.621,0.33
	c-0.229,0.07-0.474,0.097-0.717,0.076c-2.682-0.263-5.26-1.09-7.524-2.416c-2.108-1.209-3.894-2.823-5.233-4.726
	C6.05,12.338,5.133,9.999,4.847,7.565C4.825,7.348,4.854,7.127,4.931,6.92c0.078-0.207,0.202-0.397,0.365-0.559
	C5.459,6.2,5.658,6.071,5.879,5.983C6.101,5.895,6.34,5.849,6.582,5.849h2.616c0.424-0.004,0.833,0.131,1.155,0.38
	c0.321,0.249,0.531,0.595,0.589,0.974c0.11,0.755,0.315,1.498,0.611,2.212c0.117,0.282,0.143,0.588,0.073,0.883
	c-0.07,0.294-0.231,0.564-0.466,0.778l-1.107,1c1.242,1.971,3.049,3.605,5.231,4.726l1.108-1c0.237-0.213,0.536-0.358,0.862-0.42
	c0.328-0.064,0.665-0.042,0.978,0.064c0.792,0.267,1.613,0.451,2.451,0.551c0.424,0.055,0.811,0.248,1.087,0.541
	C22.047,16.836,22.193,17.212,22.184,17.599z"/>
</svg>
