<svg width="496" height="656" viewBox="0 0 496 656" fill="none" xmlns="http://www.w3.org/2000/svg">
<circle opacity="0.1" cx="65" cy="328" r="328" fill="#F2A422"/>
<circle opacity="0.1" cx="177" cy="306" r="302" fill="#50137C"/>
<circle opacity="0.2" cx="317" cy="462" r="179" fill="#541481"/>
<g opacity="0.54">
<path d="M239.57 273.801C239.05 273.382 238.524 272.973 237.995 272.574L150.049 360.52C150.45 361.05 150.857 361.576 151.276 362.095L239.57 273.801Z" fill="#939393"/>
<path d="M218.084 262.51C217.356 262.295 216.622 262.096 215.887 261.907L139.382 338.411C139.571 339.147 139.77 339.88 139.987 340.61L218.084 262.51Z" fill="#939393"/>
<path d="M233.177 269.269C232.596 268.911 232.009 268.563 231.421 268.225L145.7 353.945C146.038 354.534 146.386 355.121 146.744 355.7L233.177 269.269Z" fill="#939393"/>
<path d="M226.045 265.476C225.395 265.183 224.745 264.9 224.088 264.63L142.105 346.613C142.375 347.27 142.657 347.921 142.951 348.57L226.045 265.476Z" fill="#939393"/>
<path d="M209.116 260.552C208.284 260.433 207.453 260.334 206.618 260.248L137.725 329.143C137.81 329.977 137.91 330.809 138.028 331.641L209.116 260.552Z" fill="#939393"/>
<path d="M244.586 278.308C244.352 278.074 244.114 277.847 243.877 277.617L155.092 366.402C155.322 366.638 155.55 366.877 155.783 367.111C156.018 367.345 156.255 367.572 156.492 367.803L245.278 279.018C245.048 278.782 244.821 278.543 244.586 278.308Z" fill="#939393"/>
<path d="M198.812 259.934C197.833 259.954 196.855 260 195.878 260.066L137.541 318.401C137.475 319.379 137.429 320.357 137.409 321.335L198.812 259.934Z" fill="#939393"/>
<path d="M138.927 308.893L186.368 261.452C185.103 261.735 183.844 262.059 182.597 262.422L139.897 305.12C139.534 306.369 139.211 307.628 138.927 308.893Z" fill="#939393"/>
<path d="M262.827 327.018C262.895 326.041 262.939 325.061 262.961 324.083L201.56 385.486C202.538 385.465 203.516 385.42 204.495 385.354L262.827 327.018Z" fill="#939393"/>
<path d="M262.646 316.276C262.561 315.443 262.461 314.609 262.343 313.778L191.253 384.866C192.084 384.985 192.918 385.084 193.751 385.17L262.646 316.276Z" fill="#939393"/>
<path d="M168.291 268.603C163.827 271.239 159.62 274.473 155.785 278.31C151.95 282.145 148.713 286.354 146.078 290.817L168.291 268.603Z" fill="#939393"/>
<path d="M260.473 340.298C260.836 339.05 261.159 337.792 261.443 336.526L214.001 383.968C215.267 383.685 216.525 383.361 217.773 382.998L260.473 340.298Z" fill="#939393"/>
<path d="M232.078 376.817C236.542 374.181 240.75 370.946 244.585 367.111C248.42 363.276 251.656 359.067 254.291 354.604L232.078 376.817Z" fill="#939393"/>
<path d="M254.67 291.475C254.332 290.886 253.984 290.299 253.626 289.72L167.195 376.15C167.774 376.51 168.361 376.858 168.95 377.195L254.67 291.475Z" fill="#939393"/>
<path d="M250.322 284.899C249.922 284.369 249.513 283.843 249.094 283.325L160.801 371.618C161.32 372.037 161.846 372.445 162.374 372.845L250.322 284.899Z" fill="#939393"/>
<path d="M260.988 307.007C260.798 306.271 260.601 305.538 260.383 304.81L182.286 382.908C183.015 383.125 183.749 383.324 184.483 383.513L260.988 307.007Z" fill="#939393"/>
<path d="M258.265 298.807C257.996 298.151 257.715 297.499 257.421 296.851L174.327 379.944C174.974 380.238 175.625 380.519 176.282 380.788L258.265 298.807Z" fill="#939393"/>
</g>
</svg>
