<svg width="470" height="398" viewBox="0 0 470 398" fill="none" xmlns="http://www.w3.org/2000/svg">
<g clip-path="url(#clip0_227_1387)">
<path d="M155.096 332.106H114.146V273.081C114.146 270.199 116.482 267.863 119.362 267.863H149.88C152.762 267.863 155.095 270.2 155.095 273.081V332.106H155.096Z" fill="#1B966D"/>
<path d="M155.095 276.547H114.146V281.148H155.095V276.547Z" fill="#E6E6E6"/>
<path d="M147.633 324.324H137.432C135.88 324.324 134.621 325.584 134.621 327.135V332.106H150.444V327.135C150.444 325.582 149.185 324.324 147.633 324.324Z" fill="#F49000"/>
<path d="M150.497 332.105H139.149C138.144 332.105 137.33 331.291 137.33 330.285C137.33 329.279 138.144 328.464 139.149 328.464H150.497C151.502 328.464 152.317 329.279 152.317 330.285C152.317 331.291 151.502 332.105 150.497 332.105Z" fill="#E6E6E6"/>
<path d="M59.1133 250.8C56.9823 247.289 53.4733 250.341 53.4733 250.341C53.9741 243.613 47.7883 239.013 47.7883 239.013C47.7883 239.013 54.9768 239.013 55.9796 232.149C56.9823 225.286 53.4733 228.479 50.1797 228.432C46.8885 228.385 43.4458 238.009 47.7871 243.421C52.1296 248.833 50.9658 258.072 40.9396 266.958C38.4937 269.126 36.8303 272.012 35.7068 275.133C36.4633 266.97 36.8907 255.468 34.4898 247.789C30.4125 234.747 38.1823 231.236 40.4376 224.715C42.6941 218.195 34.4898 212.677 34.4898 212.677C34.4898 212.677 42.1933 209.166 38.4333 205.153C34.6733 201.14 26.9023 201.686 26.9023 206.931C26.9023 212.175 32.1658 214.181 32.1658 214.181C32.1658 214.181 38.1823 220.451 38.1823 223.711C38.1823 226.972 32.1658 233.995 32.1658 233.995C32.1658 233.995 34.9231 227.985 29.4086 227.729C23.8941 227.474 22.1384 234.747 24.3948 238.008C26.6513 241.268 30.4113 238.509 30.4113 238.509C30.4113 238.509 30.8494 245.532 32.1339 249.795C32.6998 251.67 32.4334 259.026 31.9598 266.679C30.8494 263.916 29.2772 261.383 27.0763 259.434C17.0501 250.547 15.8863 241.308 20.2288 235.897C24.5701 230.484 21.1285 220.861 17.8362 220.907C14.5438 220.955 11.0336 217.762 12.0375 224.625C13.0414 231.488 20.2288 231.488 20.2288 231.488C20.2288 231.488 14.0418 236.09 14.5438 242.817C14.5438 242.817 11.0336 239.764 8.90379 243.276C5.09998 249.544 13.9175 253.432 15.3985 250.347C15.3985 250.347 34.0956 263.59 29.5826 282.65L30.6315 284.199C30.4966 285.737 30.4113 286.664 30.4113 286.664L31.8734 286.033L33.5368 288.491C33.4503 293.255 33.9618 296.776 33.9618 296.776L38.4321 290.175C33.9192 271.113 52.6162 257.871 52.6162 257.871C54.0984 260.957 62.9171 257.068 59.1133 250.8Z" fill="#157069"/>
<path opacity="0.2" d="M59.1133 250.8C56.9823 247.289 53.4733 250.341 53.4733 250.341C53.9741 243.613 47.7883 239.013 47.7883 239.013C47.7883 239.013 54.9768 239.013 55.9796 232.149C56.9823 225.286 53.4733 228.479 50.1797 228.432C46.8885 228.385 43.4458 238.009 47.7871 243.421C52.1296 248.833 50.9658 258.072 40.9396 266.958C38.4937 269.126 36.8303 272.012 35.7068 275.133C36.4633 266.97 36.8907 255.468 34.4898 247.789C30.4125 234.747 38.1823 231.236 40.4376 224.715C42.6941 218.195 34.4898 212.677 34.4898 212.677C34.4898 212.677 42.1933 209.166 38.4333 205.153C34.6733 201.14 26.9023 201.686 26.9023 206.931C26.9023 212.175 32.1658 214.181 32.1658 214.181C32.1658 214.181 38.1823 220.451 38.1823 223.711C38.1823 226.972 32.1658 233.995 32.1658 233.995C32.1658 233.995 34.9231 227.985 29.4086 227.729C23.8941 227.474 22.1384 234.747 24.3948 238.008C26.6513 241.268 30.4113 238.509 30.4113 238.509C30.4113 238.509 30.8494 245.532 32.1339 249.795C32.6998 251.67 32.4334 259.026 31.9598 266.679C30.8494 263.916 29.2772 261.383 27.0763 259.434C17.0501 250.547 15.8863 241.308 20.2288 235.897C24.5701 230.484 21.1285 220.861 17.8362 220.907C14.5438 220.955 11.0336 217.762 12.0375 224.625C13.0414 231.488 20.2288 231.488 20.2288 231.488C20.2288 231.488 14.0418 236.09 14.5438 242.817C14.5438 242.817 11.0336 239.764 8.90379 243.276C5.09998 249.544 13.9175 253.432 15.3985 250.347C15.3985 250.347 34.0956 263.59 29.5826 282.65L30.6315 284.199C30.4966 285.737 30.4113 286.664 30.4113 286.664L31.8734 286.033L33.5368 288.491C33.4503 293.255 33.9618 296.776 33.9618 296.776L38.4321 290.175C33.9192 271.113 52.6162 257.871 52.6162 257.871C54.0984 260.957 62.9171 257.068 59.1133 250.8Z" fill="#157069"/>
<path d="M55.4551 332.105H12.6282L8.00873 285.191H60.0757L55.4551 332.105Z" fill="#F2A422"/>
<path d="M62.3606 280.016H5.7215V290.368H62.3606V280.016Z" fill="#448D87"/>
<path d="M240.327 385.741C367.099 385.741 469.868 379.736 469.868 372.328C469.868 364.921 367.099 358.916 240.327 358.916C113.555 358.916 10.7861 364.921 10.7861 372.328C10.7861 379.736 113.555 385.741 240.327 385.741Z" fill="#F5F5F5"/>
<path d="M430.277 334.991C430.457 333.778 434.6 305.174 426.3 295.299C424.463 293.112 422.145 291.969 419.409 291.903C402.655 291.511 400.363 304.975 400.341 305.113L402.317 305.417C402.394 304.935 404.381 293.54 419.36 293.902C421.528 293.955 423.298 294.833 424.771 296.586C432.497 305.779 428.342 334.408 428.3 334.696L430.277 334.991Z" fill="#1B966D"/>
<path d="M431.291 333.687L433.29 333.624C433.282 333.361 432.626 307.268 445.475 301.876C458.068 296.599 463.733 307.451 463.968 307.917L465.754 307.018C465.689 306.889 459.042 294.016 444.702 300.033C430.587 305.955 431.256 332.558 431.291 333.687Z" fill="#1B966D"/>
<path d="M431.232 335.737C431.232 335.321 431.353 294.054 439.394 281.983C447.115 270.396 459.571 275.851 460.096 276.089L460.923 274.269C460.778 274.202 446.405 267.855 437.731 280.874C429.355 293.444 429.234 334.014 429.233 335.735L431.232 335.737Z" fill="#1B966D"/>
<path d="M417.011 292.894C417.011 292.894 424.327 295.592 422.152 301.963C419.977 308.334 396.844 318.819 396.844 318.819C396.844 318.819 387.155 309.934 396.053 295.482C404.95 281.034 416.814 288.335 417.011 292.894Z" fill="#157069"/>
<path d="M439.757 279.811C439.757 279.811 434.562 279.252 434.982 276.087C435.399 272.922 455.171 264.775 466.837 277.948C466.837 277.948 459.367 290.787 448.569 290.954C437.772 291.123 439.757 279.811 439.757 279.811Z" fill="#157069"/>
<path d="M445.088 300.956C445.088 300.956 441.504 298.06 445.372 296.646C449.241 295.231 468.222 295.634 468.42 314.447C468.42 314.447 446.314 318.123 443.576 310.957C440.839 303.792 445.088 300.956 445.088 300.956Z" fill="#157069"/>
<path opacity="0.2" d="M417.011 292.894C417.011 292.894 424.327 295.592 422.152 301.963C419.977 308.334 396.844 318.819 396.844 318.819C396.844 318.819 387.155 309.934 396.053 295.482C404.95 281.034 416.814 288.335 417.011 292.894Z" fill="#1B966D"/>
<path opacity="0.2" d="M439.757 279.811C439.757 279.811 434.562 279.252 434.982 276.087C435.399 272.922 455.171 264.775 466.837 277.948C466.837 277.948 459.367 290.787 448.569 290.954C437.772 291.123 439.757 279.811 439.757 279.811Z" fill="#1B966D"/>
<path opacity="0.2" d="M445.088 300.956C445.088 300.956 441.504 298.06 445.372 296.646C449.241 295.231 468.222 295.634 468.42 314.447C468.42 314.447 446.314 318.123 443.576 310.957C440.839 303.792 445.088 300.956 445.088 300.956Z" fill="#1B966D"/>
<path d="M413.08 373.316H447.385L451.087 335.736H409.379L413.08 373.316Z" fill="#F49000"/>
<path opacity="0.5" d="M413.08 373.316H447.385L451.087 335.736H409.379L413.08 373.316Z" fill="#F49000"/>
<path d="M452.918 331.59H407.547V339.882H452.918V331.59Z" fill="#157069"/>
<path opacity="0.2" d="M452.918 331.59H407.547V339.882H452.918V331.59Z" fill="white"/>
<path d="M374.252 346.378L340.141 343.023V295.06H326.622V343.009L292.374 346.378C288.974 346.712 286.381 349.572 286.381 352.991V358.115H332.059H334.565H380.243V352.991C380.244 349.572 377.651 346.712 374.252 346.378Z" fill="#157069"/>
<path opacity="0.2" d="M374.252 346.378L340.141 343.023V295.06H326.622V343.009L292.374 346.378C288.974 346.712 286.381 349.572 286.381 352.991V358.115H332.059H334.565H380.243V352.991C380.244 349.572 377.651 346.712 374.252 346.378Z" fill="white"/>
<path d="M289.992 373.316C294.874 373.316 298.831 369.357 298.831 364.473C298.831 359.588 294.874 355.629 289.992 355.629C285.11 355.629 281.153 359.588 281.153 364.473C281.153 369.357 285.11 373.316 289.992 373.316Z" fill="#157069"/>
<path d="M376.634 373.316C381.516 373.316 385.473 369.357 385.473 364.473C385.473 359.588 381.516 355.629 376.634 355.629C371.753 355.629 367.795 359.588 367.795 364.473C367.795 369.357 371.753 373.316 376.634 373.316Z" fill="#157069"/>
<path d="M337.576 305.368H329.188C326.485 305.368 324.295 303.176 324.295 300.473V262.647H342.47V300.473C342.469 303.176 340.278 305.368 337.576 305.368Z" fill="#157069"/>
<path opacity="0.3" d="M337.576 305.368H329.188C326.485 305.368 324.295 303.176 324.295 300.473V262.647H342.47V300.473C342.469 303.176 340.278 305.368 337.576 305.368Z" fill="white"/>
<path d="M365.701 187.675C365.701 187.675 368.277 251.636 350.48 262.649H370.799C370.799 262.649 386.543 240.858 382.093 187.675H365.701Z" fill="#157069"/>
<path opacity="0.3" d="M365.701 187.675C365.701 187.675 368.277 251.636 350.48 262.649H370.799C370.799 262.649 386.543 240.858 382.093 187.675H365.701Z" fill="white"/>
<path d="M292.574 253.703H371.8C375.07 253.703 377.72 256.354 377.72 259.626V267.549H286.655V259.626C286.655 256.354 289.305 253.703 292.574 253.703Z" fill="#157069"/>
<path d="M285.24 260.627H379.136C380.45 260.627 381.517 261.693 381.517 263.01V265.167C381.517 266.483 380.451 267.55 379.136 267.55H285.24C283.926 267.55 282.859 266.484 282.859 265.167V263.01C282.859 261.693 283.925 260.627 285.24 260.627Z" fill="#157069"/>
<path opacity="0.6" d="M285.24 260.627H379.136C380.45 260.627 381.517 261.693 381.517 263.01V265.167C381.517 266.483 380.451 267.55 379.136 267.55H285.24C283.926 267.55 282.859 266.484 282.859 265.167V263.01C282.859 261.693 283.925 260.627 285.24 260.627Z" fill="white"/>
<path d="M387.075 200.671H354.524C344.988 200.671 337.258 192.937 337.258 183.396V170.66C337.258 161.118 344.988 153.385 354.524 153.385H387.075C396.61 153.385 404.341 161.118 404.341 170.66V183.396C404.341 192.937 396.61 200.671 387.075 200.671Z" fill="#157069"/>
<path d="M255.778 101.121L249.284 83.9809C249.284 83.9809 252.069 81.401 250.157 78.7832C248.248 76.1666 236.259 68.8024 234.073 70.0971C231.888 71.3906 227.037 76.272 229.659 78.9798C232.282 81.6876 243.895 86.209 243.895 86.209L249.64 108.697L255.778 101.121Z" fill="#E4897B"/>
<path d="M301.159 133.71C301.159 133.71 271.598 127.629 268.392 126.178C265.186 124.726 253.285 89.8561 253.285 89.8561L244.165 94.1204C244.165 94.1204 251.507 129.112 259.014 137.432C266.522 145.754 298.544 152.791 298.544 152.791L301.159 133.71Z" fill="#1B966D"/>
<path opacity="0.2" d="M298.541 152.787C298.541 152.787 298.357 152.748 297.999 152.662C296.382 152.298 291.334 151.107 285.327 149.35C275.579 146.518 263.301 142.188 259.01 137.438C251.514 129.112 244.162 94.118 244.162 94.118L253.28 89.8585C253.28 89.8585 265.182 124.73 268.399 126.18C271.603 127.627 301.162 133.707 301.162 133.707L298.541 152.787Z" fill="#1B966D"/>
<path d="M253.43 89.1714L255.314 92.8068L243.594 96.8448L244.047 92.4016L253.43 89.1714Z" fill="#1B966D"/>
<path opacity="0.2" d="M298.767 152.31C297.127 152.073 292.002 151.276 285.876 149.991C289.369 143.958 299.596 140.856 299.596 140.856L298.767 152.31Z" fill="black"/>
<path d="M342.831 109.573C342.831 109.573 344.571 125.954 338.503 129.977C332.436 134 302.601 129.287 299.215 122.698C295.83 116.109 308.565 98.2117 308.565 98.2117L342.831 109.573Z" fill="#263238"/>
<path d="M222.088 325.135L229.872 327.01L233.813 316.257L237.39 306.477L228.523 302.691L225.114 314.561L222.088 325.135Z" fill="#E4897B"/>
<path opacity="0.2" d="M225.114 314.561L233.813 316.257L237.39 306.477L228.523 302.691L225.114 314.561Z" fill="black"/>
<path d="M225.896 308.885L236.694 312.901C236.694 312.901 265.498 240.847 271.417 240.597C277.337 240.349 337.608 268.067 352.714 252.693C367.821 237.328 345.978 200.289 345.978 200.289C345.978 200.289 309.645 195.101 306.91 203.31C306.377 204.897 305.797 208.012 305.371 210.678C304.956 213.189 304.671 215.297 304.671 215.297C304.671 215.297 304.66 215.297 304.648 215.285C303.523 215.001 267.048 205.584 252.675 215.297C238.078 225.175 225.896 308.885 225.896 308.885Z" fill="#592280"/>
<path opacity="0.6" d="M225.896 308.885L236.694 312.901C236.694 312.901 265.498 240.847 271.417 240.597C277.337 240.349 337.608 268.067 352.714 252.693C367.821 237.328 345.978 200.289 345.978 200.289C345.978 200.289 309.645 195.101 306.91 203.31C306.377 204.897 305.797 208.012 305.371 210.678C304.956 213.189 304.671 215.297 304.671 215.297C304.671 215.297 304.66 215.297 304.648 215.285C303.523 215.001 267.048 205.584 252.675 215.297C238.078 225.175 225.896 308.885 225.896 308.885Z" fill="#50137C"/>
<path d="M287.999 355.871L295.756 353.882L294.264 342.748L292.878 332.537L283.285 333.397L285.776 345.296L287.999 355.871Z" fill="#E4897B"/>
<path opacity="0.2" d="M285.837 345.536L294.317 342.96L292.905 332.642L283.299 333.45L285.837 345.536Z" fill="black"/>
<path d="M241.152 308.904L225.426 303.556L224.755 310.002L236.681 314.222L241.152 308.904Z" fill="#5B1D88"/>
<path d="M326.621 256.387C326.621 256.387 324.159 256.446 286.05 254.67C286.05 254.67 291.746 302.341 294.852 338.027L283.457 339.971C283.457 339.971 256.228 263.554 256.524 251.412C256.82 239.271 270.731 235.717 270.731 235.717C270.731 235.717 297.881 251.412 326.621 256.387Z" fill="#592280"/>
<path opacity="0.6" d="M326.621 256.387C326.621 256.387 324.159 256.446 286.05 254.67C286.05 254.67 291.746 302.341 294.852 338.027L283.457 339.971C283.457 339.971 256.228 263.554 256.524 251.412C256.82 239.271 270.731 235.717 270.731 235.717C270.731 235.717 297.881 251.412 326.621 256.387Z" fill="#5D178F"/>
<path opacity="0.1" d="M326.621 256.387C326.621 256.387 324.159 256.446 286.05 254.67C286.05 254.67 291.746 302.341 294.852 338.027L283.457 339.971C283.457 339.971 256.228 263.554 256.524 251.412C256.82 239.271 270.731 235.717 270.731 235.717C270.731 235.717 297.881 251.412 326.621 256.387Z" fill="#592280"/>
<path d="M296.519 334.569L280.857 336.352L283.878 342.496L296.557 340.869L296.519 334.569Z" fill="#5B1D88"/>
<path opacity="0.1" d="M304.672 215.296L325.922 219.726C325.922 219.726 314.178 213.235 305.371 210.675C304.956 213.188 304.672 215.296 304.672 215.296Z" fill="black"/>
<path d="M345.1 194.637L345.973 200.292L306.907 203.306L305.873 196.617L345.1 194.637Z" fill="#263238"/>
<path opacity="0.2" d="M345.1 194.637L345.973 200.292L306.907 203.306L305.873 196.617L345.1 194.637Z" fill="black"/>
<path d="M332.796 204.104L334.727 203.905L333.714 194.069L331.783 194.268L332.796 204.104Z" fill="#407BFF"/>
<path d="M315.436 203.129L323.994 202.578L323.577 196.084L315.019 196.635L315.436 203.129Z" fill="white"/>
<path d="M308.802 205.173L310.732 204.974L309.719 195.138L307.789 195.337L308.802 205.173Z" fill="#407BFF"/>
<path opacity="0.6" d="M332.796 204.104L334.727 203.905L333.714 194.069L331.783 194.268L332.796 204.104Z" fill="white"/>
<path opacity="0.6" d="M308.802 205.173L310.732 204.974L309.719 195.138L307.789 195.337L308.802 205.173Z" fill="white"/>
<path d="M300.45 133.169C300.45 133.169 310.424 136.3 322.959 135.656C335.494 135.011 350.48 141.103 350.48 141.103L345.1 194.636L305.873 196.617C305.873 196.617 292.693 151.915 300.45 133.169Z" fill="#1B966D"/>
<path d="M306.75 102.939C306.75 102.939 308.956 76.9413 330.674 86.3878C357.935 98.2449 336.259 129.91 322.941 123.408C309.624 116.906 306.75 102.939 306.75 102.939Z" fill="#263238"/>
<path opacity="0.2" d="M312.84 137.108L313.464 151.797L318.336 144.887C318.336 144.887 316.598 161.134 317.616 169.981C317.616 169.981 318.547 154.118 320.752 144.887L325.922 151.797L333.351 137.198C333.351 137.198 321.331 132.878 312.84 137.108Z" fill="black"/>
<path d="M319.568 139.841L330.797 136.666C323.878 131.901 327.368 121.246 327.368 121.246L316.243 125.16C316.836 127.006 317.211 128.576 317.436 129.916C318.599 136.859 315.465 137.414 315.465 137.414L319.568 139.841Z" fill="#E4897B"/>
<path opacity="0.2" d="M316.243 125.16C316.836 127.006 317.211 128.576 317.436 129.916C322.761 127.78 327.368 121.246 327.368 121.246L316.243 125.16Z" fill="black"/>
<path d="M323.502 91.8461C313.649 89.6642 309.311 94.24 306.342 104.24C302.631 116.737 303.45 126.38 316.369 126.396C333.916 126.419 339.866 95.4696 323.502 91.8461Z" fill="#E4897B"/>
<path d="M312.832 105.1C312.832 105.1 310.898 107.373 309.06 108.554C309.06 108.554 309.607 110.082 311.411 110.244L312.832 105.1Z" fill="#DE5753"/>
<path d="M320.363 104.406C319.826 104.273 319.23 104.819 319.032 105.625C318.834 106.43 319.109 107.191 319.646 107.323C320.183 107.455 320.779 106.909 320.977 106.103C321.175 105.298 320.9 104.538 320.363 104.406Z" fill="#263238"/>
<path d="M320.586 104.503L319.005 103.385C319.005 103.385 319.514 105.074 320.586 104.503Z" fill="#263238"/>
<path d="M310.394 101.774C309.857 101.642 309.261 102.188 309.063 102.994C308.865 103.799 309.14 104.559 309.677 104.691C310.214 104.824 310.81 104.278 311.008 103.472C311.206 102.667 310.931 101.906 310.394 101.774Z" fill="#263238"/>
<path d="M310.618 101.872L309.036 100.754C309.036 100.754 309.545 102.443 310.618 101.872Z" fill="#263238"/>
<path d="M320.647 98.8419C320.647 98.8419 323.495 99.0954 324.59 101.278" stroke="#263238" stroke-width="0.7247" stroke-miterlimit="10" stroke-linecap="round" stroke-linejoin="round"/>
<path d="M313.577 96.8401C313.577 96.8401 311.978 95.8096 309.471 96.7809" stroke="#263238" stroke-width="0.7247" stroke-miterlimit="10" stroke-linecap="round" stroke-linejoin="round"/>
<path d="M330.596 110.847C330.596 110.847 327.781 101.727 329.861 95.6283C329.861 95.6283 312.1 83.3235 306.75 102.94C306.75 102.94 308.738 84.9096 325.762 88.2677C342.76 91.6211 337.231 116.404 326.849 121.854C326.85 121.854 332.326 116.543 330.596 110.847Z" fill="#263238"/>
<path d="M328.527 112.572C328.943 110.999 331.175 108.675 334.054 109.651C337.034 110.66 337.102 117.254 329.173 117.08C328.035 117.054 327.657 115.853 328.527 112.572Z" fill="#E4897B"/>
<path d="M309.649 113.99C309.997 115.294 310.159 117.653 310.159 117.653C310.375 117.678 310.591 117.702 310.809 117.714C313.75 117.964 315.197 117.107 315.91 116.083C316.298 115.52 316.459 114.899 316.525 114.386C316.604 113.795 316.526 113.355 316.526 113.355C314.887 114.154 312.128 114.132 310.654 114.058C310.036 114.035 309.649 113.99 309.649 113.99Z" fill="#263238"/>
<path d="M310.652 114.058L310.83 115.135C313.602 115.364 315.584 115.153 316.523 114.386C316.603 113.795 316.524 113.355 316.524 113.355C314.887 114.154 312.126 114.132 310.652 114.058Z" fill="white"/>
<path d="M310.809 117.714C313.749 117.964 315.197 117.107 315.91 116.083C314.904 116.036 313.687 116.092 312.588 116.453C311.748 116.725 311.192 117.208 310.809 117.714Z" fill="#DE5753"/>
<path d="M323.541 92.635C323.541 92.635 323.923 109.736 334.177 111.789C344.432 113.842 333.221 89.8135 333.221 89.8135C333.221 89.8135 317.952 79.8351 307.775 86.8676C297.597 93.9001 306.75 102.94 306.75 102.94C306.75 102.94 308.902 90.2376 323.541 92.635Z" fill="#263238"/>
<path d="M323.895 91.505C323.895 91.505 320.241 102.314 327.459 107.99" stroke="#263238" stroke-width="0.5" stroke-miterlimit="10" stroke-linecap="round" stroke-linejoin="round"/>
<path d="M329.693 119.663C332.521 120.725 335.87 118.767 337.174 115.29C338.479 111.813 337.244 108.134 334.417 107.072C331.589 106.01 328.24 107.968 326.936 111.445C325.631 114.922 326.866 118.601 329.693 119.663Z" fill="#F2A422"/>
<path opacity="0.4" d="M329.693 119.663C332.521 120.725 335.87 118.767 337.174 115.29C338.479 111.813 337.244 108.134 334.417 107.072C331.589 106.01 328.24 107.968 326.936 111.445C325.631 114.922 326.866 118.601 329.693 119.663Z" fill="black"/>
<path d="M333.906 109.604C333.906 109.604 338.152 90.5692 328.624 85.58C328.624 85.58 330.609 85.8477 331.84 86.2066C333.072 86.5655 340.684 94.285 336.838 111.393L333.906 109.604Z" fill="#F2A422"/>
<path opacity="0.2" d="M333.906 109.604C333.906 109.604 338.152 90.5692 328.624 85.58C328.624 85.58 330.609 85.8477 331.84 86.2066C333.072 86.5655 340.684 94.285 336.838 111.393L333.906 109.604Z" fill="black"/>
<path d="M316.036 120.499C315.8 120.468 315.564 120.432 315.324 120.393L315.516 119.225C324.095 120.623 330.479 116.08 330.543 116.034L331.241 116.99C330.976 117.183 324.768 121.648 316.036 120.499Z" fill="#F2A422"/>
<g opacity="0.2">
<path d="M316.036 120.499C315.8 120.468 315.564 120.432 315.324 120.393L315.516 119.225C324.095 120.623 330.479 116.08 330.543 116.034L331.241 116.99C330.976 117.183 324.768 121.648 316.036 120.499Z" fill="black"/>
</g>
<path d="M331.818 117.737C333.687 118.439 335.902 117.144 336.765 114.845C337.628 112.546 336.812 110.113 334.942 109.411C333.073 108.708 330.858 110.003 329.995 112.302C329.132 114.601 329.948 117.034 331.818 117.737Z" fill="#F2A422"/>
<path d="M314.978 120.887L314.028 120.762C313.322 120.669 312.825 120.021 312.918 119.316C313.012 118.61 313.658 118.114 314.364 118.207L315.315 118.332C316.019 118.424 316.516 119.072 316.424 119.777C316.329 120.483 315.683 120.979 314.978 120.887Z" fill="#F2A422"/>
<path opacity="0.4" d="M314.978 120.887L314.028 120.762C313.322 120.669 312.825 120.021 312.918 119.316C313.012 118.61 313.658 118.114 314.364 118.207L315.315 118.332C316.019 118.424 316.516 119.072 316.424 119.777C316.329 120.483 315.683 120.979 314.978 120.887Z" fill="black"/>
<path d="M327.787 132.593L320.752 139.505L323.565 147.976L333.351 137.198L327.787 132.593Z" fill="#407BFF"/>
<path d="M317.615 134.038L318.752 139.359L315.11 146.883L312.84 137.108L317.615 134.038Z" fill="#407BFF"/>
<path d="M326.282 138.595L330.368 123.634C330.368 123.634 328.388 119.908 328.815 119.127C329.243 118.347 331.369 108.303 332.886 107.208C334.401 106.115 340.633 107.982 341.264 109C341.895 110.019 335.292 123.633 335.292 123.633L332.886 139.841L326.282 138.595Z" fill="#E4897B"/>
<path d="M350.48 141.103C361.721 152.615 339.191 178.695 326.282 177.586C313.372 176.474 326.603 129.182 326.603 129.182L334.87 130.542C334.87 130.542 331.969 151.008 332.884 152.615C333.8 154.221 346.703 137.235 350.48 141.103Z" fill="#2FDCC8"/>
<path opacity="0.2" d="M350.48 141.103C361.721 152.615 339.191 178.695 326.282 177.586C313.372 176.474 326.603 129.182 326.603 129.182L334.87 130.542C334.87 130.542 331.969 151.008 332.884 152.615C333.8 154.221 346.703 137.235 350.48 141.103Z" fill="black"/>
<path d="M325.923 127.67L324.699 131.575L336.218 132.593V129.182L325.923 127.67Z" fill="#2FDCC8"/>
<path opacity="0.6" d="M308.469 169.284H303.803C303.285 169.284 302.866 168.865 302.866 168.346V159.536C302.866 159.017 303.285 158.598 303.803 158.598H308.469C308.988 158.598 309.406 159.017 309.406 159.536V168.346C309.406 168.865 308.987 169.284 308.469 169.284Z" fill="white"/>
<path opacity="0.2" d="M308.564 159.301H303.256V166.565H308.564V159.301Z" fill="black"/>
<path d="M306.612 156.02H305.441V160.301H306.612V156.02Z" fill="#263238"/>
<path d="M209.198 340.263C210.381 339.718 211.654 339.395 212.955 339.307C212.955 339.307 217.452 336.66 221.908 326.372L226.919 326.344C228.655 326.364 230.192 327.466 230.769 329.103C230.851 329.325 230.899 329.56 230.911 329.797C230.86 331.007 230.732 332.216 230.526 333.411C230.075 337.161 227.596 345.207 227.596 345.207L226.747 344.989L228.291 337.509C228.805 334.967 226.135 337.423 224.897 339.986C223.66 342.549 221.76 345.129 216.225 343.862C209.775 342.354 207.177 341.423 209.198 340.263Z" fill="#1B966D"/>
<path d="M222.816 323.678C222.816 323.678 216.558 336.78 212.955 339.307C212.955 339.307 217.785 342.191 222.816 335.775C229.32 327.48 230.911 329.797 230.911 329.797C230.911 329.797 230.635 326.959 230.127 325.569C229.151 322.892 222.816 323.678 222.816 323.678Z" fill="#E4897B"/>
<path d="M278.124 371.479C279.145 370.669 280.306 370.052 281.548 369.66C281.548 369.66 285.289 366.021 287.18 354.969L292.041 353.753C293.73 353.361 295.486 354.067 296.434 355.52C296.567 355.717 296.668 355.933 296.737 356.161C296.975 357.349 297.136 358.552 297.219 359.762C297.67 363.512 297.169 371.917 297.169 371.917L296.293 371.908L296.02 364.274C295.916 361.682 293.904 364.701 293.309 367.485C292.714 370.27 291.48 373.226 285.803 373.309C279.18 373.372 276.436 373.085 278.124 371.479Z" fill="#1B966D"/>
<path d="M287.422 352.135C287.422 352.135 284.45 366.348 281.548 369.658C281.548 369.658 286.924 371.312 290.29 363.887C294.642 354.286 296.737 356.16 296.737 356.16C296.737 356.16 295.796 353.467 294.974 352.236C293.39 349.869 287.422 352.135 287.422 352.135Z" fill="#E4897B"/>
<path d="M397.5 95.1273H356.165C352.852 95.1273 350.168 92.4408 350.168 89.1277V71.4285C350.168 68.1154 352.853 65.4289 356.165 65.4289H397.5C400.812 65.4289 403.496 68.1154 403.496 71.4285V89.1265C403.496 92.4408 400.812 95.1273 397.5 95.1273Z" fill="#F2A422"/>
<path d="M364.459 91.7419L352.006 108.678L372.097 92.8767L364.459 91.7419Z" fill="#F2A422"/>
<path d="M363.178 82.0264C364.143 82.0264 364.925 81.2437 364.925 80.2781C364.925 79.3125 364.143 78.5297 363.178 78.5297C362.213 78.5297 361.43 79.3125 361.43 80.2781C361.43 81.2437 362.213 82.0264 363.178 82.0264Z" fill="white"/>
<path d="M372.281 82.0252C373.245 82.0252 374.027 81.243 374.027 80.2781C374.027 79.3131 373.245 78.5309 372.281 78.5309C371.316 78.5309 370.534 79.3131 370.534 80.2781C370.534 81.243 371.316 82.0252 372.281 82.0252Z" fill="white"/>
<path d="M381.384 82.0252C382.348 82.0252 383.13 81.243 383.13 80.2781C383.13 79.3131 382.348 78.5309 381.384 78.5309C380.419 78.5309 379.637 79.3131 379.637 80.2781C379.637 81.243 380.419 82.0252 381.384 82.0252Z" fill="white"/>
<path d="M390.486 82.0264C391.451 82.0264 392.234 81.2437 392.234 80.2781C392.234 79.3125 391.451 78.5297 390.486 78.5297C389.521 78.5297 388.739 79.3125 388.739 80.2781C388.739 81.2437 389.521 82.0264 390.486 82.0264Z" fill="white"/>
<path d="M231.367 71.7744L201.888 55.8887C201.091 55.4587 200.793 54.4637 201.221 53.6666L210.623 36.2008C211.052 35.4036 212.047 35.1051 212.844 35.5339L242.322 51.4195C243.119 51.8495 243.417 52.8445 242.989 53.6405L233.588 71.1063C233.158 71.9058 232.163 72.2044 231.367 71.7744Z" fill="#F2A422"/>
<path opacity="0.7" d="M231.367 71.7744L201.888 55.8887C201.091 55.4587 200.793 54.4637 201.221 53.6666L210.623 36.2008C211.052 35.4036 212.047 35.1051 212.844 35.5339L242.322 51.4195C243.119 51.8495 243.417 52.8445 242.989 53.6405L233.588 71.1063C233.158 71.9058 232.163 72.2044 231.367 71.7744Z" fill="#F49000"/>
<path opacity="0.2" d="M209.846 37.6459L219.068 54.8771C219.786 56.218 221.241 56.9963 222.755 56.8458L241.95 54.9458L222.41 57.8254C220.658 58.0836 218.944 57.1597 218.196 55.5547L209.846 37.6459Z" fill="black"/>
<path d="M187.458 34.4358C187.772 27.8463 192.647 14.5678 198.579 10.5061C204.512 6.44433 200.608 12.0684 200.608 12.0684C200.608 12.0684 206.229 6.60069 209.195 6.75704C212.162 6.9134 209.195 10.3497 209.195 10.3497C209.195 10.3497 215.284 6.59476 218.094 6.75349C220.905 6.91222 218.094 10.1933 218.094 10.1933C218.094 10.1933 223.09 6.60069 225.119 8.31825C227.149 10.0358 199.204 28.4682 196.082 35.9662C192.959 43.4643 187.14 41.1059 187.458 34.4358Z" fill="#407BFF"/>
<path opacity="0.4" d="M187.458 34.4358C187.772 27.8463 192.647 14.5678 198.579 10.5061C204.512 6.44433 200.608 12.0684 200.608 12.0684C200.608 12.0684 206.229 6.60069 209.195 6.75704C212.162 6.9134 209.195 10.3497 209.195 10.3497C209.195 10.3497 215.284 6.59476 218.094 6.75349C220.905 6.91222 218.094 10.1933 218.094 10.1933C218.094 10.1933 223.09 6.60069 225.119 8.31825C227.149 10.0358 199.204 28.4682 196.082 35.9662C192.959 43.4643 187.14 41.1059 187.458 34.4358Z" fill="white"/>
<path d="M211.458 33.4633L215.191 35.8561C215.46 36.0278 215.32 36.4448 215.002 36.4199L211.081 36.1143L211.417 39.1253C211.454 39.4523 211.048 39.6323 210.83 39.3859L208.569 36.8238L211.458 33.4633Z" fill="#407BFF"/>
<path opacity="0.3" d="M211.458 33.4633L215.191 35.8561C215.46 36.0278 215.32 36.4448 215.002 36.4199L211.081 36.1143L211.417 39.1253C211.454 39.4523 211.048 39.6323 210.83 39.3859L208.569 36.8238L211.458 33.4633Z" fill="white"/>
<path d="M159.083 18.6319C159.083 18.6319 164.235 15.0369 172.04 17.3799C172.04 17.3799 174.285 27.6888 180.422 31.1251C183.792 33.012 192.05 32.8497 198.58 30.7342C206.336 28.2218 210.133 28.2218 211.538 31.1251C212.869 33.8744 211.382 37.0607 205.449 38.4667C199.517 39.8728 194.833 50.1817 184.061 50.3381C173.289 50.4944 167.618 39.688 170.323 30.1881C170.322 30.1881 167.044 23.1058 159.083 18.6319Z" fill="#407BFF"/>
<path opacity="0.5" d="M159.083 18.6319C159.083 18.6319 164.235 15.0369 172.04 17.3799C172.04 17.3799 174.285 27.6888 180.422 31.1251C183.792 33.012 192.05 32.8497 198.58 30.7342C206.336 28.2218 210.133 28.2218 211.538 31.1251C212.869 33.8744 211.382 37.0607 205.449 38.4667C199.517 39.8728 194.833 50.1817 184.061 50.3381C173.289 50.4944 167.618 39.688 170.323 30.1881C170.322 30.1881 167.044 23.1058 159.083 18.6319Z" fill="white"/>
<path d="M208.044 33.6043C208.335 33.6043 208.571 33.3683 208.571 33.0772C208.571 32.786 208.335 32.55 208.044 32.55C207.753 32.55 207.517 32.786 207.517 33.0772C207.517 33.3683 207.753 33.6043 208.044 33.6043Z" fill="#263238"/>
<path d="M181.561 41.7526C175.199 43.488 161.07 42.9466 155.379 38.5544C149.686 34.1622 156.238 36.1403 156.238 36.1403C156.238 36.1403 149.306 32.479 148.539 29.6077C147.772 26.7364 151.954 28.499 151.954 28.499C151.954 28.499 146.505 23.8639 145.789 21.1407C145.072 18.4175 149.059 20.0794 149.059 20.0794C149.059 20.0794 144.101 16.4334 145.108 13.972C146.115 11.5105 172.263 32.4162 180.353 33.0724C188.446 33.731 188 39.996 181.561 41.7526Z" fill="#407BFF"/>
<path opacity="0.4" d="M181.561 41.7526C175.199 43.488 161.07 42.9466 155.379 38.5544C149.686 34.1622 156.238 36.1403 156.238 36.1403C156.238 36.1403 149.306 32.479 148.539 29.6077C147.772 26.7364 151.954 28.499 151.954 28.499C151.954 28.499 146.505 23.8639 145.789 21.1407C145.072 18.4175 149.059 20.0794 149.059 20.0794C149.059 20.0794 144.101 16.4334 145.108 13.972C146.115 11.5105 172.263 32.4162 180.353 33.0724C188.446 33.731 188 39.996 181.561 41.7526Z" fill="white"/>
<path d="M139.891 12.4949C138.778 12.0981 137.652 11.7285 136.517 11.3838" stroke="#407BFF" stroke-width="0.75" stroke-linecap="round" stroke-linejoin="round"/>
<path d="M129.596 9.61768C125.446 8.74705 121.228 8.1844 117.039 7.89183C105.529 7.0899 87.4839 5.94921 80.4327 17.4249C74.0078 27.883 85.0616 45.7267 88.9862 55.4362C93.7916 67.3277 99.505 82.0324 93.8271 94.6215C82.1588 120.49 32.2109 107.058 15.3619 83.2323" stroke="#407BFF" stroke-width="0.75" stroke-linecap="round" stroke-linejoin="round" stroke-dasharray="6.03 6.03"/>
<path d="M13.4441 80.2259C12.8509 79.1812 12.3229 78.1199 11.8636 77.0443" stroke="#407BFF" stroke-width="0.75" stroke-linecap="round" stroke-linejoin="round"/>
<path d="M157.23 174.281H112.291V183.501H157.23V174.281Z" fill="white"/>
<path opacity="0.1" d="M157.23 174.281H112.291V183.501H157.23V174.281Z" fill="black"/>
<path opacity="0.1" d="M131.218 174.281H112.291V183.501H131.218V174.281Z" fill="black"/>
<path opacity="0.1" d="M112.291 175.609H152.293L112.291 176.741V175.609Z" fill="black"/>
<path opacity="0.1" d="M157.23 177.21L122.553 178.069H157.23V177.21Z" fill="black"/>
<path opacity="0.1" d="M114.122 179.786L131.218 179.084L156.352 179.786L131.218 180.178L114.122 179.786Z" fill="black"/>
<path opacity="0.1" d="M112.291 181.74H141.911L112.291 182.443V181.74Z" fill="black"/>
<path opacity="0.1" d="M157.165 182.443L137.384 182.809H157.23L157.165 182.443Z" fill="black"/>
<path d="M150.975 165.059H106.037V174.281H150.975V165.059Z" fill="white"/>
<path opacity="0.1" d="M150.975 165.059H106.037V174.281H150.975V165.059Z" fill="black"/>
<path opacity="0.1" d="M124.962 165.059H106.037V174.281H124.962V165.059Z" fill="black"/>
<path opacity="0.1" d="M106.037 166.387H146.039L106.037 167.519V166.387Z" fill="black"/>
<path opacity="0.1" d="M150.976 167.987L116.299 168.847H150.976V167.987Z" fill="black"/>
<path opacity="0.1" d="M107.868 170.565L124.964 169.864L150.098 170.565L124.964 170.956L107.868 170.565Z" fill="black"/>
<path opacity="0.1" d="M106.037 172.518H135.658L106.037 173.221V172.518Z" fill="black"/>
<path opacity="0.1" d="M150.911 173.221L131.13 173.588H150.976L150.911 173.221Z" fill="black"/>
<path d="M156.105 155.838H111.168V165.059H156.105V155.838Z" fill="white"/>
<path opacity="0.1" d="M156.105 155.838H111.168V165.059H156.105V155.838Z" fill="black"/>
<path opacity="0.1" d="M130.093 155.838H111.168V165.059H130.093V155.838Z" fill="black"/>
<path opacity="0.1" d="M111.168 157.166H151.17L111.168 158.298V157.166Z" fill="black"/>
<path opacity="0.1" d="M156.107 158.766L121.43 159.626H156.107V158.766Z" fill="black"/>
<path opacity="0.1" d="M112.999 161.343L130.094 160.641L155.229 161.343L130.094 161.734L112.999 161.343Z" fill="black"/>
<path opacity="0.1" d="M111.168 163.297H140.788L111.168 163.999V163.297Z" fill="black"/>
<path opacity="0.1" d="M156.041 163.999L136.261 164.366H156.107L156.041 163.999Z" fill="black"/>
<path d="M186.042 183.308L187.211 178.891H235.219L257.326 181.1L258.168 183.308H186.042Z" fill="#263238"/>
<path opacity="0.4" d="M235.219 178.891V183.308H186.042L187.211 178.891H235.219Z" fill="black"/>
<path d="M225.575 157.741C225.789 160.075 224.084 161.97 221.763 161.97H148.221C145.889 161.97 143.829 160.074 143.616 157.741L139.247 110.633C139.2 110.147 139.235 109.685 139.342 109.259C139.756 107.6 141.212 106.404 143.059 106.404H216.602C218.934 106.404 220.994 108.299 221.207 110.633L225.575 157.741Z" fill="#50137C"/>
<path opacity="0.4" d="M221.503 161.97H148.221C145.889 161.97 143.829 160.074 143.616 157.741L139.247 110.633C139.2 110.147 139.235 109.685 139.342 109.259H212.624C214.944 109.259 217.004 111.154 217.229 113.487L221.598 160.596C221.645 161.082 221.608 161.544 221.503 161.97Z" fill="#50137C"/>
<path d="M170.977 133.077H186.191L182.137 176.659L206.194 180.274V183.308H155.524V180.274L165.904 176.659L170.977 133.077Z" fill="#50137C"/>
<path opacity="0.1" d="M186.191 133.077L174.92 182.616L165.904 182.348L170.977 133.077H186.191Z" fill="white"/>
<path d="M186.122 373.316H178.869L165.838 191.792H175.461L186.122 373.316Z" fill="#263238"/>
<path opacity="0.4" d="M186.126 373.316H178.869L166.474 200.808L165.835 192.084H175.461L175.98 200.808L186.126 373.316Z" fill="white"/>
<path opacity="0.2" d="M175.98 200.376H166.474L165.835 192.084H175.461L175.98 200.376Z" fill="black"/>
<path d="M239.348 373.316H232.095L230.911 191.792H240.533L239.348 373.316Z" fill="#263238"/>
<path opacity="0.5" d="M240.539 192.084L240.348 221.371L239.355 373.316H232.096L231.103 221.371L230.912 192.084H240.539Z" fill="white"/>
<path opacity="0.2" d="M240.539 192.084L240.348 221.697H231.103L230.912 192.084H240.539Z" fill="black"/>
<path d="M316.348 373.316H309.096L296.065 191.792H305.688L316.348 373.316Z" fill="#263238"/>
<path opacity="0.5" d="M316.353 373.316H309.096L296.701 200.808L296.061 192.084H305.687L306.207 200.808L316.353 373.316Z" fill="white"/>
<path opacity="0.2" d="M306.207 200.376H296.701L296.061 192.084H305.687L306.207 200.376Z" fill="black"/>
<path d="M103.154 373.316H95.9016L106.562 191.792H116.185L103.154 373.316Z" fill="#263238"/>
<path opacity="0.5" d="M116.183 192.084L115.545 200.808L103.148 373.316H95.9028L106.037 200.808L106.558 192.084H116.183Z" fill="white"/>
<path opacity="0.2" d="M106.558 192.084H116.183L115.545 200.376H106.037L106.558 192.084Z" fill="black"/>
<path d="M310.754 196.338H101.495C100.082 196.338 98.9359 195.191 98.9359 193.777V187.245H313.314V193.777C313.314 195.191 312.168 196.338 310.754 196.338Z" fill="#407BFF"/>
<path opacity="0.6" d="M310.754 196.338H101.495C100.082 196.338 98.9359 195.191 98.9359 193.777V187.245H313.314V193.777C313.314 195.191 312.168 196.338 310.754 196.338Z" fill="white"/>
<path opacity="0.2" d="M313.315 187.245H98.9359V191.791H313.315V187.245Z" fill="black"/>
<path d="M317.809 188.431H94.4396C93.026 188.431 91.88 187.283 91.88 185.87C91.88 184.456 93.026 183.308 94.4396 183.308H317.809C319.223 183.308 320.369 184.456 320.369 185.87C320.369 187.284 319.224 188.431 317.809 188.431Z" fill="#407BFF"/>
<path opacity="0.6" d="M317.809 188.431H94.4396C93.026 188.431 91.88 187.283 91.88 185.87C91.88 184.456 93.026 183.308 94.4396 183.308H317.809C319.223 183.308 320.369 184.456 320.369 185.87C320.369 187.284 319.224 188.431 317.809 188.431Z" fill="white"/>
<path d="M264.96 175.42L267.711 171.299C268.26 170.478 269.182 169.984 270.17 169.984H273.654C273.945 169.984 274.234 170.027 274.512 170.111L286.929 173.877C287.636 174.092 288.236 174.561 288.612 175.196L290.394 178.192L264.96 175.42Z" fill="#407BFF"/>
<path opacity="0.2" d="M290.393 178.192L272.315 176.226L264.963 175.42L267.71 171.298C268.254 170.482 269.178 169.983 270.172 169.983H273.653C273.949 169.983 274.233 170.031 274.517 170.114L274.788 170.196L286.923 173.879C287.633 174.094 288.237 174.554 288.616 175.194L290.393 178.192Z" fill="black"/>
<path opacity="0.2" d="M290.393 178.192L272.315 176.226L274.789 170.196L286.924 173.879C287.634 174.094 288.238 174.554 288.617 175.194L290.393 178.192Z" fill="black"/>
<path d="M298.988 182.918V183.308H283.229H260.606L262.027 177.754C262.584 175.669 264.478 174.212 266.632 174.212H283.657C284.225 174.212 284.781 174.307 285.314 174.508L287.445 175.302L295.898 178.453C297.757 179.15 298.988 180.927 298.988 182.918Z" fill="#407BFF"/>
<path opacity="0.2" d="M298.988 182.918V183.308H283.229L284.07 177.304C284.295 175.716 285.94 174.745 287.444 175.302L295.897 178.453C297.757 179.15 298.988 180.927 298.988 182.918Z" fill="black"/>
<path d="M285.685 179.226L290.697 164.174C290.914 163.524 291.658 163.221 292.267 163.535C292.731 163.775 292.967 164.305 292.834 164.81L288.612 180.88C288.611 180.88 285.801 182.017 285.685 179.226Z" fill="#263238"/>
<path opacity="0.2" d="M264.96 182.057H262.735L263.164 179.872H265.388L264.96 182.057Z" fill="black"/>
<path opacity="0.2" d="M268.277 181.973H266.052L266.482 179.786H268.706L268.277 181.973Z" fill="black"/>
</g>
<defs>
<clipPath id="clip0_227_1387">
<rect width="470" height="398" fill="white"/>
</clipPath>
</defs>
</svg>
