<svg width="1920" height="158" viewBox="0 0 1920 158" fill="none" xmlns="http://www.w3.org/2000/svg">
<path opacity="0.1" d="M0 94.2422L26.6667 78.633C53.3333 63.2576 106.667 31.6884 160 41.2177C213.333 50.3961 266.667 100.673 320 112.95C373.333 125.227 426.667 100.673 480 91.1437C533.333 81.9653 586.667 87.8114 640 87.9868C693.333 87.8114 746.667 81.9653 800 72.4361C853.333 63.2576 906.667 50.3961 960 41.2177C1013.33 31.6884 1066.67 25.8423 1120 22.51C1173.33 19.4115 1226.67 19.4115 1280 47.473C1333.33 75.5345 1386.67 131.658 1440 150.365C1493.33 169.073 1546.67 150.365 1600 125.402C1653.33 100.673 1706.67 69.1038 1760 47.473C1813.33 25.8423 1866.67 12.9808 1893.33 6.95923L1920 0.703857L1893.33 0.703857C1866.67 0.703857 1813.33 0.703857 1760 0.703857C1706.67 0.703857 1653.33 0.703857 1600 0.703857C1546.67 0.703857 1493.33 0.703857 1440 0.703857C1386.67 0.703857 1333.33 0.703857 1280 0.703857C1226.67 0.703857 1173.33 0.703857 1120 0.703857C1066.67 0.703857 1013.33 0.703857 960 0.703857C906.667 0.703857 853.333 0.703857 800 0.703857C746.667 0.703857 693.333 0.703857 640 0.703857C586.667 0.703857 533.333 0.703857 480 0.703857C426.667 0.703857 373.333 0.703857 320 0.703857C266.667 0.703857 213.333 0.703857 160 0.703857C106.667 0.703857 53.3333 0.703857 26.6667 0.703857L0 0.703857L0 94.2422Z" fill="#8721D1"/>
</svg>
