<?xml version="1.0" encoding="utf-8"?>
<!-- Generator: Adobe Illustrator 16.0.0, SVG Export Plug-In . SVG Version: 6.00 Build 0)  -->
<!DOCTYPE svg PUBLIC "-//W3C//DTD SVG 1.1//EN" "http://www.w3.org/Graphics/SVG/1.1/DTD/svg11.dtd">
<svg version="1.1" id="Layer_1" xmlns="http://www.w3.org/2000/svg" xmlns:xlink="http://www.w3.org/1999/xlink" x="0px" y="0px"
	 width="84.5px" height="70.75px" viewBox="11.625 14 84.5 70.75" enable-background="new 11.625 14 84.5 70.75"
	 xml:space="preserve">
<path opacity="0.5" fill="#ED78D9" enable-background="new    " d="M81.979,32.99c3.73,6.875,7.674,14.142,6.664,21.902
	c-1,7.677-6.346,13.941-12.015,19.224c-5.271,4.91-11.753,8.112-18.821,9.504c-6.979,1.374-14.043,0.675-20.738-1.714
	c-7.156-2.555-14.537-5.83-18.519-12.295c-4.032-6.548-3.428-14.666-2.804-22.333c0.639-7.854,0.767-16.662,6.426-22.155
	c5.574-5.411,14.486-3.769,22.06-5.497c7.729-1.763,15.249-7.361,22.717-4.717C74.527,17.592,78.148,25.929,81.979,32.99z"/>
<path opacity="0.6" fill="#F771CF" enable-background="new    " d="M55.223,18.121c9.973,0.51,19.314,3.859,26.258,11.073
	c8.014,8.325,17.742,19.409,13.422,30.148c-4.201,10.447-19.729,6.583-30.006,11.086c-9.311,4.08-15.778,15.328-25.739,13.339
	C26.944,81.328,15.586,72.168,12.669,60c-2.944-12.28,3.737-24.836,12.717-33.674C33.137,18.697,44.388,17.566,55.223,18.121z"/>
<path fill="#FFFFFF" d="M48.818,30.192c3.497-0.489,7.125-0.006,10.369,1.391c4.237,1.8,7.781,5.164,9.805,9.3
	c1.504,3.045,2.191,6.489,1.965,9.878c-0.18,2.838-0.998,5.632-2.365,8.125c0.615,0.4,1.234,0.794,1.848,1.197
	c-1.508,0.616-3.016,1.234-4.527,1.846c-0.063-1.628-0.126-3.258-0.188-4.887c0.6,0.383,1.203,0.76,1.805,1.141
	c1.688-3.119,2.453-6.732,2.137-10.267c-0.342-4.108-2.123-8.081-4.978-11.056c-2.036-2.138-4.599-3.772-7.396-4.715
	c-2.861-0.97-5.967-1.207-8.942-0.691c-3.251,0.553-6.344,2.007-8.837,4.167c-1.819,1.572-3.33,3.501-4.408,5.651
	c-1.483,2.938-2.139,6.286-1.888,9.568c0.227,3.09,1.256,6.119,2.97,8.702c2.342,3.562,5.965,6.262,10.059,7.459
	c3.733,1.112,7.821,0.991,11.479-0.353c1.997-0.723,3.852-1.815,5.484-3.169c0.27,0.32,0.537,0.644,0.805,0.966
	c-2.192,1.835-4.793,3.181-7.56,3.904c-3.29,0.869-6.809,0.854-10.091-0.048c-3.647-0.991-6.988-3.073-9.483-5.912
	c-1.925-2.177-3.348-4.793-4.138-7.59c-0.898-3.161-0.975-6.552-0.221-9.751c0.887-3.822,2.968-7.353,5.877-9.984
	C41.278,32.444,44.96,30.72,48.818,30.192z"/>
<path fill="#FFFFFF" d="M44.617,36.971c0.972-0.157,2.002,0.085,2.798,0.666c0.881,0.63,1.467,1.655,1.551,2.736
	c0.102,1.074-0.295,2.18-1.051,2.95c-0.772,0.804-1.915,1.232-3.025,1.129c-1.16-0.089-2.255-0.758-2.87-1.746
	c-0.626-0.979-0.757-2.255-0.339-3.341C42.139,38.118,43.304,37.169,44.617,36.971z M44.324,41.243
	c-0.296-0.296-0.594-0.59-0.891-0.886c-0.296,0.295-0.592,0.591-0.887,0.887c0.446,0.443,0.882,0.896,1.332,1.334
	c0.24,0.257,0.678,0.241,0.91-0.019c1.032-1.027,2.06-2.06,3.09-3.088c-0.293-0.3-0.591-0.596-0.887-0.893
	C46.102,39.466,45.215,40.356,44.324,41.243z"/>
<path fill="#FFFFFF" d="M50.871,38.81c3.563,0,7.127,0,10.69,0c0,0.419,0,0.839,0,1.258c-3.563,0-7.128,0-10.69,0
	C50.871,39.648,50.871,39.229,50.871,38.81z"/>
<path fill="#FFFFFF" d="M50.871,41.325c1.887,0,3.773,0,5.66,0c0,0.419,0,0.838,0,1.257c-1.887,0-3.773,0-5.66,0
	C50.871,42.164,50.871,41.744,50.871,41.325z"/>
<path fill="#FFFFFF" d="M44.622,45.774c0.969-0.154,1.996,0.086,2.791,0.665c0.884,0.63,1.471,1.658,1.555,2.742
	c0.102,1.091-0.31,2.212-1.085,2.982c-0.772,0.781-1.898,1.194-2.993,1.093c-1.159-0.09-2.253-0.758-2.868-1.744
	c-0.626-0.98-0.758-2.258-0.338-3.345C42.141,46.919,43.308,45.971,44.622,45.774z M44.324,50.047
	c-0.296-0.296-0.594-0.591-0.892-0.887c-0.296,0.296-0.592,0.591-0.887,0.887c0.446,0.443,0.882,0.896,1.333,1.335
	c0.241,0.257,0.681,0.239,0.912-0.022c1.031-1.026,2.059-2.057,3.088-3.085c-0.294-0.3-0.591-0.595-0.887-0.892
	C46.102,48.27,45.215,49.16,44.324,50.047z"/>
<path fill="#FFFFFF" d="M50.871,47.613c3.563,0,7.127,0,10.69,0c0,0.419,0,0.839,0,1.258c-3.563,0-7.128,0-10.69,0
	C50.871,48.452,50.871,48.032,50.871,47.613z"/>
<path fill="#FFFFFF" d="M50.871,50.129c1.887,0,3.773,0,5.66,0c0,0.419,0,0.838,0,1.258c-1.887,0-3.773,0-5.66,0
	C50.871,50.967,50.871,50.548,50.871,50.129z"/>
<path fill="#FFFFFF" d="M44.617,54.578c0.97-0.155,1.997,0.084,2.793,0.662c0.864,0.615,1.446,1.609,1.55,2.666
	c0.121,1.063-0.245,2.166-0.972,2.949c-0.737,0.812-1.844,1.27-2.94,1.215c-1.065-0.039-2.1-0.561-2.766-1.393
	c-0.766-0.93-1.038-2.24-0.7-3.398C41.956,55.89,43.194,54.79,44.617,54.578z M44.324,58.85c-0.296-0.295-0.594-0.59-0.89-0.886
	c-0.298,0.294-0.593,0.591-0.888,0.887c0.446,0.442,0.881,0.896,1.332,1.333c0.24,0.259,0.68,0.242,0.912-0.02
	c1.031-1.027,2.059-2.058,3.088-3.087c-0.294-0.3-0.591-0.595-0.887-0.892C46.102,57.073,45.215,57.964,44.324,58.85z"/>
<path fill="#FFFFFF" d="M50.871,56.417c3.563,0,7.127,0,10.69,0c0,0.419,0,0.838,0,1.258c-3.563,0-7.128,0-10.69,0
	C50.871,57.255,50.871,56.836,50.871,56.417z"/>
<path fill="#FFFFFF" d="M50.871,58.933c1.887,0,3.773,0,5.66,0c0,0.419,0,0.838,0,1.257c-1.887,0-3.773,0-5.66,0
	C50.871,59.771,50.871,59.352,50.871,58.933z"/>
</svg>
