<?xml version="1.0" encoding="utf-8"?>
<!-- Generator: Adobe Illustrator 16.0.0, SVG Export Plug-In . SVG Version: 6.00 Build 0)  -->
<!DOCTYPE svg PUBLIC "-//W3C//DTD SVG 1.1//EN" "http://www.w3.org/Graphics/SVG/1.1/DTD/svg11.dtd">
<svg version="1.1" id="Layer_1" xmlns="http://www.w3.org/2000/svg" xmlns:xlink="http://www.w3.org/1999/xlink" x="0px" y="0px"
	 width="84.5px" height="70.167px" viewBox="11.667 13.503 84.5 70.167" enable-background="new 11.667 13.503 84.5 70.167"
	 xml:space="preserve">
<path opacity="0.5" fill="#184655" enable-background="new    " d="M81.979,32.231c3.73,6.875,7.674,14.142,6.664,21.902
	c-1,7.677-6.346,13.942-12.015,19.224c-5.271,4.91-11.753,8.112-18.821,9.504c-6.979,1.374-14.043,0.674-20.738-1.715
	c-7.156-2.553-14.537-5.828-18.519-12.294c-4.032-6.548-3.428-14.665-2.804-22.333c0.639-7.854,0.767-16.662,6.426-22.155
	c5.574-5.411,14.486-3.769,22.06-5.497c7.729-1.763,15.249-7.361,22.717-4.717C74.527,16.833,78.148,25.17,81.979,32.231z"/>
<path opacity="0.6" fill="#157069" enable-background="new    " d="M55.223,17.362c9.973,0.51,19.314,3.859,26.258,11.073
	c8.014,8.325,17.742,19.409,13.422,30.148c-4.201,10.446-19.729,6.583-30.006,11.087c-9.311,4.078-15.778,15.326-25.739,13.338
	c-12.214-2.439-23.571-11.6-26.488-23.766c-2.944-12.281,3.737-24.837,12.717-33.675C33.137,17.938,44.388,16.808,55.223,17.362z"/>
<path fill="#FFFFFF" d="M49.708,28.358c0.25-0.006,0.5-0.006,0.751,0.001c0.174,0.258,0.339,0.527,0.459,0.817
	c0.842,1.962,1.721,3.908,2.571,5.866c0.098,0.225,0.184,0.458,0.33,0.658c1.375,0.21,2.765,0.27,4.141,0.457
	c1.077,0.047,2.133,0.295,3.212,0.307c0.35,0.047,0.742,0.261,0.789,0.652c0.05,0.413-0.32,0.683-0.581,0.936
	c-1.622,1.402-3.167,2.889-4.792,4.289c-0.269,0.214-0.569,0.478-0.422,0.861c0.501,2.341,0.979,4.687,1.508,7.022
	c0.229,0.556-0.523,1.183-1.025,0.804c-1.559-0.898-3.105-1.819-4.66-2.726c-0.164-0.096-0.352-0.137-0.531-0.191
	c-0.008,0.803-0.008,1.608,0.005,2.411c0.503-0.008,1.022-0.068,1.517,0.061c0.344,0.181,0.615,0.464,0.896,0.729
	c0.639-0.205,1.387-0.314,1.99,0.055c0.484,0.258,0.767,0.748,1.035,1.209c0.448-0.02,0.9-0.058,1.348,0.012
	c0.822,0.272,1.447,1.115,1.414,2c0.003,2.891-0.002,5.782,0.002,8.673c-0.021,0.195,0.028,0.433-0.116,0.592
	c-0.38,0.46-0.837,0.845-1.231,1.291c0.002,0.784,0.01,1.57,0.002,2.354c0.011,0.424-0.329,0.887-0.787,0.82
	c-2.673,0.002-5.346,0.001-8.02,0c-0.343,0.039-0.679-0.19-0.768-0.526c-0.105-0.892,0.065-1.807-0.075-2.688
	c-0.448-0.533-1.074-0.916-1.397-1.554c-1.16-2.212-2.369-4.399-3.516-6.619c-0.261-0.452-0.248-0.996-0.182-1.499
	c0.222-0.931,1.165-1.645,2.124-1.531c0.692-0.021,1.2,0.516,1.674,0.945c-0.004-1.991,0.003-3.982-0.003-5.974
	c-1.417,0.612-2.663,1.572-4.049,2.249c-0.346,0.1-0.756-0.106-0.775-0.491c-0.041-0.954,0.32-1.862,0.477-2.792
	c0.313-1.695,0.789-3.362,1.018-5.07c-1.655-1.476-3.29-2.976-4.942-4.456c-0.309-0.285-0.686-0.527-0.873-0.918
	c-0.145-0.498,0.324-0.897,0.778-0.928c1.448-0.018,2.877-0.417,4.331-0.295c-0.136-0.062-0.276-0.11-0.413-0.167
	c0.461,0.013,0.927,0.031,1.384-0.05c0.674-0.144,1.372-0.086,2.043-0.252c0.18-0.172,0.222-0.438,0.332-0.654
	c0.856-1.956,1.722-3.908,2.573-5.867C49.373,28.887,49.534,28.618,49.708,28.358z M49.932,31.036
	c-0.771,1.756-1.544,3.512-2.309,5.271c-0.118,0.259-0.248,0.53-0.499,0.686c-0.815,0.189-1.66,0.138-2.476,0.307
	c-1.351,0.054-2.682,0.337-4.036,0.36c0.177,0.481,0.66,0.723,1.001,1.067c1.206,1.14,2.5,2.181,3.671,3.358
	c0.279,0.206,0.228,0.57,0.177,0.868c-0.34,1.528-0.648,3.061-0.993,4.587c-0.102,0.454-0.175,0.912-0.199,1.376
	c0.885-0.348,1.654-0.919,2.493-1.358c0.228-0.172,0.641-0.279,0.607-0.633c-0.029-0.87,0.61-1.668,1.414-1.928
	c0.637-0.116,1.368-0.103,1.885,0.343c0.465,0.336,0.578,0.996,1.107,1.259c0.973,0.568,1.953,1.128,2.924,1.701
	c0.428,0.251,0.84,0.534,1.311,0.705c-0.459-2.012-0.855-4.038-1.307-6.051c-0.051-0.298-0.101-0.661,0.178-0.868
	c1.224-1.174,2.514-2.274,3.753-3.428c0.323-0.316,0.759-0.551,0.919-0.997c-1.018-0.05-2.035-0.135-3.043-0.303
	c-1.066-0.04-2.121-0.214-3.185-0.31c-0.38,0.012-0.605-0.342-0.741-0.652c-0.799-1.814-1.582-3.637-2.394-5.446
	C50.14,30.776,49.938,30.902,49.932,31.036z M48.725,46.937c-0.026,3.628,0.004,7.257-0.015,10.885
	c0.029,0.263-0.156,0.462-0.291,0.664c-0.315-0.035-0.762,0.132-0.931-0.235c-0.556-0.901-0.894-1.932-1.484-2.811
	c-0.51-0.567-1.448,0.228-1.037,0.843c1.102,2.13,2.254,4.233,3.369,6.355c0.379,0.763,1.137,1.214,1.654,1.868
	c0.248,0.799,0.051,1.649,0.146,2.471c2.277-0.023,4.555,0.019,6.832-0.022c0.027-0.794-0.042-1.594,0.045-2.384
	c0.346-0.535,0.899-0.889,1.277-1.398c0.066-2.666,0.005-5.339,0.029-8.008c-0.023-0.348,0.085-0.764-0.193-1.037
	c-0.34-0.505-1.144-0.196-1.227,0.354c-0.039,0.573,0.021,1.148-0.032,1.72c-0.259,0.539-1.108,0.473-1.288-0.084
	c-0.068-1.044,0.017-2.094-0.039-3.14c-0.192-0.593-0.943-0.626-1.302-0.169c-0.027,0.982-0.007,1.965-0.013,2.947
	c0.033,0.421-0.297,0.773-0.668,0.912c-0.367-0.07-0.748-0.383-0.757-0.785c-0.023-1.121,0.012-2.242-0.011-3.363
	c0-0.229-0.123-0.432-0.191-0.644c-0.389-0.013-0.912-0.154-1.1,0.309c-0.123,1.28,0.01,2.577-0.064,3.862
	c-0.089,0.469-0.67,0.67-1.051,0.437c-0.345-0.208-0.279-0.665-0.324-1.009c-0.007-2.798,0.003-5.596-0.004-8.394
	c-0.022-0.22,0.022-0.51-0.206-0.637C49.449,46.082,48.722,46.377,48.725,46.937z"/>
<path fill="#FFFFFF" d="M34.797,39.913c0.146-0.317,0.495-0.652,0.865-0.479c0.302,0.102,0.419,0.408,0.546,0.673
	c0.486,1.063,0.92,2.152,1.434,3.203c0.869,0.25,1.779,0.115,2.657,0.307c0.483,0.07,1.01,0.004,1.454,0.233
	c0.31,0.185,0.283,0.571,0.208,0.877c-0.925,1.024-2.073,1.815-2.997,2.841c0.31,1.162,0.504,2.354,0.791,3.523
	c0.259,0.613-0.484,1.23-1.036,0.869c-1.087-0.605-2.137-1.283-3.236-1.867c-1.175,0.556-2.241,1.333-3.396,1.926
	c-0.464,0.182-0.841-0.131-1.012-0.541c0.327-1.313,0.561-2.646,0.872-3.962c-0.656-0.645-1.36-1.233-2.029-1.862
	c-0.451-0.429-1.206-0.803-1.06-1.542c0.55-0.592,1.403-0.369,2.108-0.548c0.782-0.147,1.667,0.018,2.378-0.389
	C33.854,42.1,34.287,40.988,34.797,39.913z M34.265,44.391c-0.203,0.32-0.618,0.249-0.938,0.316
	c-0.68,0.144-1.377,0.111-2.068,0.151c0.298,0.615,0.936,0.937,1.387,1.425c0.251,0.279,0.699,0.503,0.625,0.944
	c0.057,0.922-0.36,1.778-0.371,2.695c0.74-0.334,1.405-0.809,2.118-1.195c0.244-0.154,0.575-0.173,0.829-0.032
	c0.743,0.402,1.442,0.887,2.21,1.247c-0.069-1.022-0.533-1.985-0.473-3.02c0.631-0.611,1.308-1.17,1.933-1.788
	c0.003-0.072,0.009-0.219,0.012-0.291c-0.853,0.013-1.699-0.074-2.537-0.222c-0.174-0.037-0.304-0.133-0.388-0.289
	c-0.377-0.692-0.626-1.444-0.978-2.147c-0.075-0.018-0.225-0.051-0.301-0.067C34.94,42.861,34.709,43.682,34.265,44.391z"/>
<path fill="#FFFFFF" d="M64.176,39.694c0.243-0.419,0.867-0.38,1.092,0.041c0.544,1.044,0.96,2.155,1.45,3.227
	c0.052,0.163,0.155,0.281,0.31,0.353c1.244,0.24,2.521,0.197,3.762,0.451c0.498,0.101,0.73,0.789,0.311,1.124
	c-0.944,0.89-1.947,1.72-2.877,2.627c0.307,1.314,0.547,2.646,0.867,3.958c-0.124,0.182-0.215,0.396-0.393,0.533
	c-0.271,0.072-0.581,0.076-0.82-0.086c-1.066-0.614-2.106-1.273-3.193-1.85c-1.09,0.633-2.168,1.282-3.263,1.904
	c-0.495,0.302-1.19-0.184-1.033-0.754c0.276-1.224,0.532-2.452,0.796-3.677c-0.914-0.997-2.012-1.797-2.962-2.755
	c-0.073-0.233-0.044-0.483-0.056-0.724c0.477-0.511,1.229-0.353,1.85-0.449c0.83-0.178,1.689-0.079,2.512-0.307
	C63.119,42.125,63.565,40.869,64.176,39.694z M64.543,42.182c-0.404,0.765-0.613,1.641-1.128,2.34
	c-0.886,0.294-1.847,0.306-2.774,0.322c0.002,0.072,0.008,0.219,0.012,0.291c0.624,0.617,1.3,1.177,1.932,1.788
	c0.059,1.005-0.414,1.943-0.385,2.951c0.758-0.298,1.406-0.799,2.122-1.179c0.249-0.135,0.575-0.124,0.815,0.028
	c0.713,0.392,1.393,0.846,2.13,1.195c-0.027-1.007-0.49-1.962-0.354-2.981c0.547-0.8,1.52-1.225,1.995-2.077
	c-0.688-0.04-1.386-0.007-2.066-0.151c-0.319-0.066-0.734,0.004-0.937-0.316c-0.449-0.708-0.678-1.53-1.061-2.275
	C64.768,42.134,64.617,42.166,64.543,42.182z"/>
</svg>
