<?xml version="1.0" encoding="utf-8"?>
<!-- Generator: Adobe Illustrator 16.0.0, SVG Export Plug-In . SVG Version: 6.00 Build 0)  -->
<!DOCTYPE svg PUBLIC "-//W3C//DTD SVG 1.1//EN" "http://www.w3.org/Graphics/SVG/1.1/DTD/svg11.dtd">
<svg version="1.1" id="Layer_1" xmlns="http://www.w3.org/2000/svg" xmlns:xlink="http://www.w3.org/1999/xlink" x="0px" y="0px"
	 width="84.25px" height="70.75px" viewBox="11.75 13.75 84.25 70.75" enable-background="new 11.75 13.75 84.25 70.75"
	 xml:space="preserve">
<path opacity="0.5" fill="#5D178F" enable-background="new    " d="M81.979,32.99c3.73,6.875,7.674,14.142,6.664,21.902
	c-1,7.677-6.346,13.941-12.015,19.224c-5.271,4.91-11.753,8.112-18.821,9.504c-6.979,1.374-14.043,0.675-20.738-1.714
	c-7.156-2.555-14.537-5.83-18.519-12.295c-4.032-6.548-3.428-14.666-2.804-22.333c0.639-7.854,0.767-16.662,6.426-22.155
	c5.574-5.411,14.486-3.769,22.06-5.497c7.729-1.763,15.249-7.361,22.717-4.717C74.527,17.592,78.148,25.929,81.979,32.99z"/>
<path opacity="0.6" fill="#592280" enable-background="new    " d="M55.223,18.121c9.973,0.51,19.314,3.859,26.258,11.073
	c8.014,8.325,17.742,19.409,13.422,30.148c-4.201,10.447-19.729,6.583-30.006,11.086c-9.311,4.08-15.778,15.328-25.739,13.339
	C26.944,81.328,15.586,72.168,12.669,60c-2.944-12.28,3.737-24.836,12.717-33.674C33.137,18.697,44.388,17.566,55.223,18.121z"/>
<g>
	<defs>
		<rect id="SVGID_1_" x="28.965" y="28" width="40" height="40"/>
	</defs>
	<clipPath id="SVGID_2_">
		<use xlink:href="#SVGID_1_"  overflow="visible"/>
	</clipPath>
	<g clip-path="url(#SVGID_2_)">
		<path fill="#FFFFFF" d="M35.755,33.696c0.569-0.467,1.306-0.71,2.041-0.696c9.141,0.001,18.28-0.002,27.421,0.001
			c1.203-0.012,2.363,0.741,2.846,1.841c0.232,0.497,0.293,1.052,0.279,1.595c-0.004,6.146,0.001,12.293-0.003,18.439
			c0.001,0.855-0.367,1.7-0.995,2.281c-0.428,0.406-0.978,0.668-1.553,0.791c-0.23,1.241-1.26,2.271-2.5,2.502
			c-0.17,0.833-0.67,1.599-1.394,2.053c-0.521,0.337-1.142,0.505-1.761,0.496c-9.114,0-18.228,0-27.341,0
			c-0.9,0.02-1.799-0.361-2.398-1.035c-0.536-0.585-0.823-1.38-0.807-2.171c0.001-6.224-0.001-12.447,0.001-18.67
			c-0.003-0.912,0.418-1.813,1.122-2.394c0.405-0.348,0.906-0.569,1.426-0.681c0.229-1.241,1.259-2.271,2.501-2.5
			C34.788,34.829,35.176,34.155,35.755,33.696z M36.943,34.42c-0.466,0.203-0.813,0.612-1.003,1.077
			c8.743,0.007,17.484,0.001,26.227,0.003c0.58-0.012,1.18-0.005,1.721,0.23c1.158,0.453,1.965,1.65,1.952,2.894
			c0.005,6.007-0.003,12.015,0.004,18.022c0.464-0.186,0.871-0.531,1.074-0.994c0.2-0.412,0.175-0.882,0.173-1.327
			c-0.001-6.067,0.003-12.134-0.001-18.2c0.024-1.001-0.872-1.899-1.874-1.874c-8.984-0.003-17.968,0-26.953-0.001
			C37.819,34.249,37.353,34.221,36.943,34.42z M33.439,37.997c8.927,0.008,17.853-0.001,26.779,0.004
			c0.78,0,1.555,0.305,2.124,0.838c0.629,0.581,0.996,1.427,0.996,2.281c0.005,6.009-0.003,12.018,0.004,18.025
			c0.726-0.268,1.254-0.99,1.245-1.771c0.006-6.225,0-12.449,0.002-18.674c0.018-0.553-0.211-1.11-0.629-1.476
			c-0.355-0.326-0.844-0.488-1.322-0.477c-9.144,0.003-18.287-0.003-27.429,0.003C34.43,36.745,33.712,37.276,33.439,37.997z
			 M30.983,40.411c-0.186,0.421-0.138,0.891-0.142,1.339c10.417,0,20.833,0,31.249,0c-0.001-0.29,0.014-0.581-0.02-0.869
			c-0.078-0.674-0.561-1.281-1.199-1.511c-0.381-0.153-0.801-0.118-1.204-0.12c-8.984,0.001-17.969-0.001-26.953,0.001
			C31.973,39.242,31.258,39.723,30.983,40.411z M30.84,43c0.001,5.626-0.001,11.252,0.002,16.879c-0.024,1,0.873,1.895,1.873,1.869
			c9.14,0.004,18.281,0,27.42,0.002c0.745,0.032,1.483-0.415,1.784-1.1c0.203-0.412,0.172-0.881,0.17-1.326
			c0-5.441,0-10.883,0-16.324C51.674,43,41.257,43,30.84,43z"/>
		<path fill="#FFFFFF" d="M32.505,39.913c0.444-0.185,0.955,0.281,0.814,0.741c-0.09,0.434-0.68,0.623-1.006,0.323
			C31.947,40.695,32.063,40.048,32.505,39.913z"/>
		<path fill="#FFFFFF" d="M35.005,39.912c0.331-0.128,0.735,0.087,0.813,0.431c0.093,0.322-0.124,0.686-0.448,0.761
			c-0.321,0.092-0.684-0.125-0.759-0.449C34.527,40.353,34.708,40.011,35.005,39.912z"/>
		<path fill="#FFFFFF" d="M37.51,39.911c0.331-0.127,0.733,0.09,0.81,0.436c0.09,0.319-0.123,0.678-0.443,0.756
			c-0.32,0.095-0.685-0.118-0.763-0.441C37.023,40.356,37.208,40.009,37.51,39.911z"/>
		<path fill="#FFFFFF" d="M39.386,44.911c0.116-0.037,0.24-0.034,0.361-0.038c4.505,0.004,9.009,0,13.513,0.001
			c0.393-0.048,0.75,0.306,0.705,0.7c0,3.282,0,6.563,0,9.846c0.023,0.284-0.143,0.58-0.422,0.668
			c-0.243,0.062-0.498,0.03-0.747,0.037c-4.377-0.002-8.755,0-13.132-0.002c-0.391,0.045-0.744-0.31-0.698-0.7
			c0-3.284,0-6.567,0-9.851C38.943,45.29,39.109,44.999,39.386,44.911z M40.215,46.125c0,2.917,0,5.834,0,8.75
			c4.167,0,8.333,0,12.5,0c0-2.916,0-5.833,0-8.75C48.549,46.125,44.382,46.125,40.215,46.125z"/>
		<path fill="#FFFFFF" d="M45.011,46.788c0.206-0.081,0.432-0.014,0.609,0.102c0.97,0.596,1.942,1.191,2.911,1.791
			c0.231,0.128,0.395,0.388,0.347,0.658c-0.025,0.233-0.206,0.403-0.398,0.514c-0.89,0.548-1.781,1.093-2.669,1.643
			c-0.207,0.123-0.424,0.288-0.68,0.246c-0.298-0.036-0.542-0.312-0.535-0.613c-0.011-1.227-0.002-2.455-0.004-3.682
			C44.571,47.165,44.735,46.876,45.011,46.788z M45.841,48.495c-0.001,0.503-0.001,1.006,0,1.511c0.411-0.25,0.821-0.503,1.23-0.757
			C46.661,48.999,46.253,48.744,45.841,48.495z"/>
		<path fill="#FFFFFF" d="M48.32,52.375c0.043-0.326,0.294-0.638,0.646-0.624c0.351-0.012,0.6,0.3,0.645,0.624
			c0.414,0.006,0.827-0.01,1.24,0.005c0.3-0.007,0.571,0.237,0.607,0.532c0.055,0.324-0.194,0.665-0.523,0.7
			c-0.441,0.031-0.883,0.003-1.324,0.013c-0.045,0.324-0.295,0.636-0.647,0.623c-0.35,0.012-0.6-0.299-0.644-0.623
			c-2.051-0.001-4.102,0.001-6.152,0c-0.208,0.007-0.426-0.059-0.558-0.228c-0.219-0.251-0.18-0.673,0.083-0.879
			c0.15-0.135,0.359-0.146,0.551-0.146C44.27,52.377,46.294,52.374,48.32,52.375z"/>
		<path fill="#FFFFFF" d="M39.385,56.786c0.118-0.037,0.243-0.034,0.365-0.038c4.503,0.004,9.006,0,13.509,0.002
			c0.361-0.042,0.719,0.26,0.704,0.63c0.008,0.365-0.345,0.659-0.702,0.62c-4.53,0-9.063,0-13.594-0.001
			c-0.265,0.02-0.541-0.118-0.646-0.368C38.867,57.313,39.048,56.892,39.385,56.786z"/>
		<path fill="#FFFFFF" d="M39.382,58.662c0.22-0.059,0.452-0.034,0.677-0.038c2.761,0.005,5.523-0.005,8.284,0.005
			c0.366-0.014,0.678,0.35,0.614,0.709c-0.039,0.334-0.371,0.57-0.698,0.537c-2.866,0-5.731,0-8.596-0.001
			c-0.263,0.019-0.534-0.118-0.641-0.365C38.866,59.191,39.045,58.77,39.382,58.662z"/>
		<path fill="#FFFFFF" d="M50.012,58.66c0.3-0.063,0.612-0.041,0.917-0.023c0.379,0.033,0.638,0.471,0.499,0.822
			c-0.092,0.277-0.387,0.438-0.671,0.416c-0.344-0.01-0.776,0.08-1.022-0.228C49.456,59.336,49.609,58.78,50.012,58.66z"/>
	</g>
</g>
</svg>
