<?xml version="1.0" encoding="utf-8"?>
<!-- Generator: Adobe Illustrator 16.0.0, SVG Export Plug-In . SVG Version: 6.00 Build 0)  -->
<!DOCTYPE svg PUBLIC "-//W3C//DTD SVG 1.1//EN" "http://www.w3.org/Graphics/SVG/1.1/DTD/svg11.dtd">
<svg version="1.1" id="Layer_1" xmlns="http://www.w3.org/2000/svg" xmlns:xlink="http://www.w3.org/1999/xlink" x="0px" y="0px"
	 width="84.5px" height="71px" viewBox="11.75 13 84.5 71" enable-background="new 11.75 13 84.5 71" xml:space="preserve">
<path opacity="0.5" fill="#F9C56F" enable-background="new    " d="M81.979,32.231c3.73,6.875,7.674,14.142,6.664,21.902
	c-1,7.677-6.346,13.942-12.015,19.224c-5.271,4.91-11.753,8.112-18.821,9.504c-6.979,1.374-14.043,0.674-20.738-1.715
	c-7.156-2.553-14.537-5.828-18.519-12.294c-4.032-6.548-3.428-14.665-2.804-22.333c0.639-7.854,0.767-16.662,6.426-22.155
	c5.574-5.411,14.486-3.769,22.06-5.497c7.729-1.763,15.249-7.361,22.717-4.717C74.527,16.833,78.148,25.17,81.979,32.231z"/>
<path opacity="0.6" fill="#F2A422" enable-background="new    " d="M55.223,17.362c9.973,0.51,19.314,3.859,26.258,11.073
	c8.014,8.325,17.742,19.409,13.422,30.148c-4.201,10.446-19.729,6.583-30.006,11.087c-9.311,4.078-15.778,15.326-25.739,13.338
	c-12.214-2.439-23.571-11.6-26.488-23.766c-2.944-12.281,3.737-24.837,12.717-33.675C33.137,17.938,44.388,16.808,55.223,17.362z"/>
<path fill="#FFFFFF" d="M34.374,29.885c0.397-0.178,0.841-0.142,1.265-0.144c11.042,0,22.084,0.001,33.125-0.001
	c0.496-0.013,0.998,0.164,1.357,0.509c0.397,0.367,0.612,0.91,0.596,1.449c-0.003,8.724,0.001,17.448-0.003,26.171
	c0.024,1.031-0.925,1.936-1.952,1.873c-4.349-0.002-8.697-0.001-13.047-0.001c0.004,1.069-0.006,2.14,0.006,3.208
	c0.018,0.912,0.799,1.725,1.707,1.781c0.707,0.033,1.416-0.012,2.123,0.021c0.357,0.031,0.617,0.424,0.519,0.768
	c-0.069,0.301-0.378,0.498-0.68,0.472c-4.714,0.001-9.429-0.003-14.143,0.001c-0.249,0.018-0.525-0.048-0.668-0.27
	c-0.255-0.334-0.051-0.88,0.363-0.961c0.663-0.084,1.353,0.082,1.999-0.121c0.69-0.227,1.212-0.887,1.264-1.611
	c0.032-0.498-0.012-0.998,0.021-1.496c0.03-0.357,0.418-0.617,0.76-0.523c0.304,0.064,0.506,0.375,0.48,0.68
	c-0.021,0.725,0.082,1.477-0.167,2.176c-0.102,0.314-0.269,0.604-0.457,0.877c2.082-0.001,4.164-0.002,6.246,0
	c-0.529-0.689-0.679-1.578-0.623-2.427c0-0.858,0-1.716,0-2.574c-6.459-0.001-12.919,0.003-19.378-0.001
	c-0.718,0.006-1.411-0.443-1.702-1.098c-0.138-0.289-0.176-0.613-0.171-0.929c0.006-0.786-0.005-1.571,0.005-2.358
	c-0.005-0.297,0.239-0.576,0.537-0.604c0.235-0.022,0.472-0.008,0.708-0.011c11.667,0,23.334,0,35.001,0c0-7.683,0-15.366,0-23.048
	c0.012-0.224-0.076-0.459-0.268-0.587c-0.241-0.171-0.555-0.102-0.83-0.116c-11.068,0.002-22.135,0.001-33.204,0.001
	c-0.39-0.044-0.744,0.31-0.698,0.7c0,7.034,0,14.068,0,21.102c0.015,0.244-0.099,0.499-0.319,0.616
	c-0.268,0.159-0.646,0.071-0.818-0.188c-0.155-0.216-0.104-0.497-0.113-0.745c0.003-6.956-0.001-13.911,0.002-20.866
	C33.208,30.87,33.689,30.161,34.374,29.885z M34.465,55.991c0.003,0.626-0.006,1.251,0.003,1.878
	c-0.012,0.364,0.341,0.66,0.697,0.622c11.042,0,22.084,0,33.127,0c0.21-0.001,0.421,0.011,0.631-0.011
	c0.299-0.029,0.541-0.309,0.537-0.607c0.012-0.627,0-1.254,0.004-1.882C57.799,55.991,46.132,55.991,34.465,55.991z"/>
<path fill="#FFFFFF" d="M50.988,34.797c1.973-0.225,4.022,0.24,5.691,1.322c0.225,0.151,0.51,0.29,0.574,0.579
	c0.098,0.347-0.164,0.733-0.521,0.772c-0.237,0.043-0.44-0.104-0.626-0.227c-1.301-0.879-2.891-1.308-4.457-1.245
	c-1.803,0.067-3.567,0.822-4.864,2.074c-1.239,1.176-2.056,2.787-2.262,4.483c-0.213,1.669,0.156,3.406,1.04,4.838
	c1.017,1.669,2.706,2.917,4.607,3.376c1.48,0.369,3.076,0.268,4.499-0.287c1.707-0.655,3.148-1.963,3.977-3.592
	c0.856-1.659,1.043-3.641,0.536-5.436c-0.104-0.285,0.004-0.634,0.277-0.78c0.32-0.195,0.789-0.02,0.895,0.341
	c0.557,1.875,0.46,3.938-0.279,5.75c-0.803,1.996-2.37,3.667-4.307,4.602c-1.932,0.941-4.217,1.129-6.276,0.513
	c-2.115-0.616-3.966-2.071-5.076-3.972c-1.018-1.716-1.407-3.787-1.099-5.756c0.306-2.04,1.376-3.949,2.941-5.29
	C47.581,35.72,49.251,34.988,50.988,34.797z"/>
<path fill="#FFFFFF" d="M58.986,37.461c0.156-0.172,0.402-0.265,0.633-0.198c0.297,0.07,0.51,0.38,0.463,0.684
	c-0.025,0.257-0.242,0.425-0.408,0.598c-2.62,2.615-5.234,5.234-7.854,7.851c-0.229,0.267-0.674,0.297-0.919,0.038
	c-1.253-1.249-2.504-2.501-3.753-3.753c-0.257-0.242-0.236-0.698,0.041-0.916c0.252-0.223,0.663-0.178,0.879,0.073
	c1.091,1.089,2.182,2.18,3.271,3.271C53.891,42.56,56.438,40.011,58.986,37.461z"/>
</svg>
