<svg width="17" height="17" viewBox="0 0 17 17" fill="none" xmlns="http://www.w3.org/2000/svg">
<path d="M7.31055 9.10825C7.59685 9.49101 7.96212 9.80771 8.38158 10.0369C8.80104 10.2661 9.26489 10.4023 9.74165 10.4365C10.2184 10.4706 10.6969 10.4018 11.1448 10.2348C11.5926 10.0677 11.9993 9.8063 12.3372 9.46825L14.3372 7.46825C14.9444 6.83958 15.2804 5.99757 15.2728 5.12358C15.2652 4.24959 14.9146 3.41355 14.2966 2.79552C13.6786 2.1775 12.8425 1.82693 11.9686 1.81934C11.0946 1.81175 10.2526 2.14773 9.62388 2.75492L8.47721 3.89492" stroke="#8721D1" stroke-linecap="round" stroke-linejoin="round"/>
<path d="M9.97702 7.77485C9.69072 7.3921 9.32545 7.07539 8.90599 6.84622C8.48653 6.61705 8.02268 6.48077 7.54592 6.44663C7.06916 6.41248 6.59063 6.48127 6.14279 6.64833C5.69495 6.81539 5.28828 7.0768 4.95035 7.41485L2.95035 9.41485C2.34316 10.0435 2.00718 10.8855 2.01477 11.7595C2.02237 12.6335 2.37293 13.4696 2.99096 14.0876C3.60899 14.7056 4.44503 15.0562 5.31902 15.0638C6.19301 15.0714 7.03501 14.7354 7.66369 14.1282L8.80369 12.9882" stroke="#8721D1" stroke-linecap="round" stroke-linejoin="round"/>
</svg>
