<svg width="361" height="302" viewBox="0 0 361 302" fill="none" xmlns="http://www.w3.org/2000/svg">
<g clip-path="url(#clip0_227_404)">
<path d="M172.336 0H177.11C183.542 2.85527 189.14 7.19309 194.637 11.5126C187.894 12.2356 183.725 4.43849 176.862 5.36279C172.886 4.95097 171.264 8.97764 168.616 11.0276C165.776 12.2539 162.395 11.5035 159.655 13.0226C157.291 14.3679 156.32 17.0493 155.202 19.3646C152.49 15.521 154.762 9.28879 159.38 8.19976C162.431 7.19309 165.666 7.91606 168.744 8.34618C169.422 5.36279 168.973 1.43679 172.336 0Z" fill="#164675"/>
<path d="M159.261 181.96C179.162 181.712 199.063 181.932 218.955 181.841C218.955 184.421 218.799 188.393 215.354 188.567C208.253 188.887 201.124 188.622 194.005 188.668C190.679 188.613 187.353 188.64 184.027 188.686C176.734 188.549 169.413 189.006 162.147 188.475C159.142 187.835 159.325 184.339 159.261 181.96Z" fill="#164675"/>
<path d="M206.484 197.673C207.456 196.108 208.61 194.122 210.745 194.241C214.135 193.957 216.352 198.451 214.071 200.986C212.541 203.072 209.801 202.422 207.767 201.608C207.355 200.29 206.924 198.972 206.484 197.673Z" fill="#164675"/>
<path d="M159.115 229.849C167.48 226.994 175.791 223.983 184.028 220.789C184.073 225.246 184.064 229.703 183.982 234.16C177.651 234.993 171.732 237.546 165.556 239.065C162.615 239.788 159.683 240.557 156.769 241.408L155.239 241.884C155.313 239.294 155.487 236.713 155.477 234.123C156.311 234.288 157.988 234.627 158.822 234.8C158.941 233.144 159.033 231.497 159.115 229.849Z" fill="#164675"/>
<path d="M193.923 221.046C202.783 223.736 211.295 227.452 220.136 230.206C220.146 231.753 220.237 233.29 220.311 234.837C221.456 234.599 222.592 234.37 223.728 234.114C223.728 236.722 223.921 239.321 224.003 241.929C223.435 241.801 222.308 241.545 221.74 241.417C218.469 240.474 215.18 239.587 211.826 238.983C205.742 237.592 200.025 234.581 193.721 234.169C194.106 229.804 194.152 225.42 193.923 221.046Z" fill="#164675"/>
<path d="M138.16 237.811C139.69 236.585 141.779 236.365 143.566 235.706C143.42 238.498 143.181 241.298 143.465 244.089C141.523 244.931 139.571 245.727 137.666 246.642C137.904 243.705 137.491 240.685 138.16 237.811Z" fill="#164675"/>
<path d="M235.465 236.008C236.941 236.475 238.416 236.942 239.9 237.409C240.257 240.044 240.441 242.716 240.23 245.38L239.268 245.627C238.003 244.977 236.492 244.583 235.539 243.485C235.365 241.975 235.401 240.447 235.42 238.928C235.429 238.196 235.456 236.741 235.465 236.008Z" fill="#164675"/>
<path d="M168.616 11.0275C171.264 8.97761 172.886 4.95094 176.863 5.36276C183.725 4.43846 187.894 12.2355 194.638 11.5126C197.057 12.3454 199.677 11.7871 202.133 12.3637C204.112 13.654 205.779 15.8412 205.633 18.3122C205.44 24.6633 203.974 30.8955 203.415 37.2192C202.728 40.8066 201.894 44.3757 201.684 48.0271C201.592 50.3699 201.675 52.7219 201.528 55.0646C201.143 55.9798 200.786 56.9132 200.456 57.8467C200.126 60.7752 198.678 63.3102 196.049 64.7378C195.252 65.0581 194.445 65.3509 193.639 65.6255C192.329 65.7902 191.019 65.9092 189.708 65.9641C183.615 65.9275 177.522 66.0007 171.429 65.9183C169.496 65.4608 167.664 64.628 166.023 63.5206C161.36 59.558 162.184 53.1703 162.221 47.7251C161.983 43.3049 161.8 38.8665 161.186 34.4829C159.976 30.9504 158.95 27.3539 158.263 23.6841C157.951 21.8446 156.275 20.7465 155.203 19.3646C156.32 17.0492 157.292 14.3679 159.656 13.0226C162.395 11.5034 165.776 12.2539 168.616 11.0275ZM193.52 23.0618C190.56 25.4046 187.033 26.7498 183.432 27.7291C176.835 28.1043 170.165 27.7108 163.861 25.5693C163.834 27.0976 163.824 28.6168 163.806 30.1359C163.971 35.3797 163.678 40.6419 164.017 45.8765C164.704 49.7934 169.13 50.7543 172.501 50.3974C172.831 49.0979 172.291 46.993 173.949 46.4256C175.699 46.1053 177.495 46.1694 179.272 46.0596C179.199 46.4897 179.052 47.3408 178.97 47.7617C180.839 47.7617 182.699 47.7617 184.559 47.7434C184.477 47.3225 184.312 46.4805 184.229 46.0596C186.208 46.1694 188.197 46.1328 190.167 46.389C191.862 46.8923 191.293 49.0887 191.642 50.3974C194.674 50.5987 198.468 50.0222 199.604 46.7093C200.264 42.7376 199.906 38.6194 198.642 34.8032C198.642 30.6301 200.74 26.036 198.523 22.1283C197.057 20.2889 194.931 22.1375 193.52 23.0618ZM176.038 51.2759C176.991 56.6845 186.08 56.6845 186.932 51.2302C185.265 52.4931 183.789 54.4972 181.453 54.3234C179.098 54.5247 177.843 52.3192 176.038 51.2759Z" fill="#0D2F5B"/>
<path d="M167.654 37.3107C169.083 38.1984 169.477 40.4039 171.392 40.4954C173.225 40.3032 173.261 37.9055 174.938 37.4205C174.563 38.9579 174.169 40.953 172.327 41.3465C169.826 42.3349 167.471 39.7724 167.654 37.3107Z" fill="#0D2F5B"/>
<path d="M188.05 37.9879C188.343 37.8964 188.92 37.7225 189.204 37.631C189.772 38.6926 190.011 40.3032 191.495 40.4497C193.52 40.6052 194.079 38.354 195.288 37.2283C195.636 39.5894 193.602 42.0969 191.119 41.4563C189.305 41.2275 188.737 39.3881 188.05 37.9879Z" fill="#0D2F5B"/>
<path d="M135.073 171.408C136.099 168.534 139.581 168.964 142.027 168.818C142.091 173.174 142.164 177.53 142.247 181.886C139.865 181.648 136.612 182.307 135.265 179.736C134.358 177.091 134.541 174.117 135.073 171.408Z" fill="#0D2F5B"/>
<path d="M159.866 169.761C167.782 169.797 175.699 170.081 183.615 169.843C186.73 169.724 189.855 169.77 192.97 169.889C201.757 170.319 210.571 169.971 219.367 170.246C219.559 174.108 219.697 177.979 219.862 181.841H218.954C199.063 181.932 179.162 181.712 159.261 181.96C159.49 177.896 159.609 173.824 159.866 169.761Z" fill="#0D2F5B"/>
<path d="M237.161 168.763C239.341 168.955 242.337 168.964 243.089 171.554C243.565 174.153 243.693 176.954 242.96 179.516C241.971 181.941 239.057 181.712 236.922 181.969C237.005 177.567 237.078 173.165 237.161 168.763Z" fill="#0D2F5B"/>
<path d="M184.028 188.686C187.354 188.64 190.679 188.613 194.005 188.668C193.96 190.187 193.914 191.706 193.868 193.234C196.58 194.955 199.283 196.721 202.178 198.121C203.571 198.991 205.083 197.984 206.485 197.673C206.924 198.972 207.355 200.29 207.767 201.608C206.036 202.093 204.313 202.633 202.6 203.164C199.769 201.471 196.91 199.842 194.024 198.258C194.042 200.94 194.024 203.639 193.529 206.284C190.524 206.037 187.5 206.028 184.495 206.266C183.441 200.473 184.202 194.543 184.028 188.686Z" fill="#0D2F5B"/>
<path d="M183.954 216.973C183.899 214.841 184.091 212.709 184.495 210.613C187.335 210.86 190.184 210.805 193.043 210.823L193.95 210.878C193.978 212.828 193.868 214.777 193.73 216.717C195.48 216.973 197.24 217.175 198.962 217.577C196.662 217.385 192.842 217.641 193.923 221.046C194.152 225.42 194.106 229.804 193.721 234.169C190.478 234.453 187.225 234.425 183.982 234.16C184.064 229.703 184.073 225.246 184.027 220.789C184 219.517 183.982 218.245 183.954 216.973Z" fill="#0D2F5B"/>
<path d="M156.769 241.408C159.683 240.557 162.615 239.788 165.556 239.065C164.969 242.286 165.391 245.59 164.942 248.821C164.072 252.39 158.592 252.673 157.191 249.342C156.375 246.798 156.879 244.034 156.769 241.408Z" fill="#0D2F5B"/>
<path d="M211.826 238.983C215.18 239.587 218.469 240.474 221.74 241.417L220.613 241.389C220.43 243.998 220.998 246.734 220.21 249.26C218.863 252.673 213.32 252.435 212.403 248.83C211.936 245.572 212.458 242.231 211.826 238.983Z" fill="#0D2F5B"/>
<path d="M193.52 23.0618C194.931 22.1375 197.057 20.2889 198.523 22.1283C200.74 26.036 198.642 30.6301 198.642 34.8032C199.906 38.6194 200.263 42.7376 199.604 46.7093C198.468 50.0222 194.674 50.5987 191.642 50.3974C191.293 49.0887 191.862 46.8923 190.166 46.389C188.197 46.1328 186.208 46.1694 184.229 46.0596C183.625 43.4148 182.727 40.8432 181.874 38.2625C180.757 40.77 179.749 43.3507 179.272 46.0596C177.495 46.1694 175.699 46.1053 173.949 46.4256C172.291 46.993 172.831 49.0979 172.501 50.3974C169.13 50.7543 164.704 49.7934 164.017 45.8765C163.678 40.6419 163.971 35.3797 163.806 30.1359C170.431 30.5203 177.192 30.1359 183.432 27.7291C187.033 26.7499 190.56 25.4046 193.52 23.0618ZM167.654 37.3107C167.471 39.7725 169.826 42.3349 172.327 41.3465C174.169 40.953 174.563 38.958 174.939 37.4205C173.262 37.9056 173.225 40.3033 171.393 40.4954C169.478 40.4039 169.084 38.1984 167.654 37.3107ZM188.05 37.9879C188.737 39.3881 189.305 41.2276 191.119 41.4563C193.602 42.0969 195.636 39.5894 195.288 37.2283C194.079 38.354 193.52 40.6053 191.495 40.4497C190.011 40.3033 189.773 38.6926 189.204 37.631C188.92 37.7225 188.343 37.8964 188.05 37.9879Z" fill="#EFA08A"/>
<path d="M159.628 35.7733C160.022 35.453 160.792 34.8032 161.186 34.4829C161.799 38.8665 161.983 43.305 162.221 47.7252C161.552 47.6428 160.214 47.4598 159.536 47.3774C159.546 43.5063 159.252 39.6261 159.628 35.7733Z" fill="#EFA08A"/>
<path d="M201.684 48.0271C201.894 44.3757 202.728 40.8066 203.415 37.2192C203.47 40.0653 203.663 42.9297 203.47 45.7758C203.489 46.9472 202.893 47.6977 201.684 48.0271Z" fill="#EFA08A"/>
<path d="M176.038 51.2759C177.843 52.3192 179.098 54.5247 181.453 54.3234C183.789 54.4973 185.265 52.4931 186.932 51.2302C186.08 56.6845 176.991 56.6845 176.038 51.2759Z" fill="#EFA08A"/>
<path d="M171.429 65.9183C177.522 66.0007 183.615 65.9275 189.708 65.9641C189.635 68.4808 189.498 70.9974 189.378 73.5232C189.104 73.8161 188.545 74.4109 188.27 74.7038C188.755 75.7654 189.259 76.8178 189.8 77.8611C189.58 77.9892 189.14 78.2637 188.92 78.401C183.588 80.5333 176.808 80.7804 172.364 76.6439C171.283 73.2121 171.823 69.4691 171.429 65.9183Z" fill="#EFA08A"/>
<path d="M125.47 117.057C128.036 116.563 130.84 115.318 133.378 116.599C135.677 117.835 137.565 119.683 139.599 121.285C144.785 125.861 151.602 127.526 157.438 130.958L158.556 131.269C162.138 131.553 164.374 134.372 166.646 136.797C166.426 137.392 165.978 138.6 165.758 139.204C162.881 139.927 159.985 140.622 157.081 141.208C155.459 141.492 153.828 141.739 152.206 142.004C150.621 141.235 149.027 140.476 147.405 139.798C141.679 137.575 135.971 135.232 130.675 132.093C127.871 130.427 124.49 128.753 123.537 125.357C122.493 122.42 124.188 119.601 125.47 117.057Z" fill="#EFA08A"/>
<path d="M229.226 125.12C232.753 125.037 236.29 125.037 239.818 124.863C239.79 128.551 239.827 132.249 239.808 135.946C236.208 136.422 232.588 135.992 228.988 136.312L227.769 136.568C228.319 132.761 229.024 128.972 229.226 125.12Z" fill="#EFA08A"/>
<path d="M143.667 231.295C147.497 232.201 151.336 233.107 155.175 234.05C155.148 235.651 155.12 237.262 155.102 238.873C151.309 238.973 147.515 238.983 143.731 238.891C143.63 236.356 143.621 233.821 143.667 231.295Z" fill="#EFA08A"/>
<path d="M223.994 234.05C227.806 233.098 231.654 232.293 235.456 231.295C235.466 232.86 235.475 234.434 235.466 236.008C235.456 236.741 235.429 238.196 235.42 238.928C231.681 238.973 227.952 238.964 224.232 238.909C224.15 237.29 224.067 235.67 223.994 234.05Z" fill="#EFA08A"/>
<path d="M163.861 25.5693C170.165 27.7108 176.835 28.1043 183.432 27.7291C177.192 30.1359 170.431 30.5203 163.806 30.1359C163.824 28.6168 163.834 27.0976 163.861 25.5693Z" fill="#B47C74"/>
<path d="M179.272 46.0595C179.749 43.3507 180.756 40.77 181.874 38.2625C182.726 40.8432 183.624 43.4148 184.229 46.0595C184.311 46.4805 184.476 47.3224 184.559 47.7434C182.699 47.7617 180.839 47.7617 178.97 47.7617C179.052 47.3408 179.199 46.4897 179.272 46.0595Z" fill="#DF7E64"/>
<path d="M206.87 51.3675C209.664 51.0655 212.495 51.0289 215.308 51.0289C237.417 51.0563 259.526 51.0106 281.635 51.0563C276.248 56.6388 269.44 60.5648 263.576 65.5981C243.483 80.8171 223.701 96.4478 203.507 111.548C203.067 94.4803 203.498 77.4127 203.287 60.3451C202.985 56.9133 205.624 54.3417 206.87 51.3675Z" fill="#F6F6F7"/>
<path d="M281.635 51.0563C285.52 51.0929 289.432 50.8458 293.299 51.34C297.541 52.0263 300.775 56.1811 300.61 60.4457C300.675 78.7305 300.638 97.0152 300.629 115.3C301.004 120.425 296.588 125.083 291.448 125.037C282.166 125.394 272.867 125.092 263.567 125.184C263.603 120.48 263.961 115.757 263.448 111.072C262.87 106.469 258.289 103.394 253.836 103.522C248.971 103.128 242.328 103.833 240.432 109.178C239.341 114.321 240.129 119.638 239.818 124.863C236.29 125.037 232.753 125.037 229.226 125.119C223.508 125.248 217.8 125.174 212.092 125.165L212.294 125.87C210.8 125.303 209.224 125.037 207.667 124.717C206.036 122.31 203.324 120.297 203.333 117.13C203.186 115.675 203.14 114.22 203.076 112.765C202.105 113.003 201.143 113.25 200.172 113.488C200.208 97.9395 200.227 82.3819 200.172 66.8335C200.117 63.8318 200.108 60.8301 200.456 57.8467C200.786 56.9132 201.143 55.9798 201.528 55.0646C203.003 53.454 204.753 52.0446 206.87 51.3674C205.623 54.3417 202.985 56.9132 203.287 60.3451C203.498 77.4126 203.067 94.4802 203.507 111.548C223.701 96.4478 243.483 80.817 263.576 65.598C269.44 60.5647 276.247 56.6387 281.635 51.0563Z" fill="#ECECEE"/>
<path d="M250.776 116.499L251.527 116.901C251.811 127.032 251.646 137.172 251.546 147.303C240.065 147.257 228.575 147.303 217.095 147.284C210.397 147.294 203.708 147.248 197.02 147.312C197.469 149.993 197.844 152.684 198.119 155.393C194.289 155.493 190.46 155.567 186.639 155.32C189.827 154.963 193.007 154.587 196.204 154.423C196.039 152.098 195.71 149.783 195.151 147.513C190.854 147.184 186.547 147.193 182.241 147.403C182.204 150.103 182.277 152.794 182.287 155.493L181.544 155.649C181.26 152.876 180.958 150.112 180.702 147.339C173.665 147.23 166.628 147.303 159.6 147.284C138.967 147.413 118.342 147.184 97.7174 147.339C95.3351 147.349 92.962 147.349 90.589 147.349C88.8848 147.349 87.1714 147.349 85.4672 147.367C83.1399 147.385 80.8127 147.394 78.4854 147.376C73.0704 147.266 67.6462 147.358 62.2312 147.248C58.3464 147.724 58.3372 139.817 62.2221 140.284C90.6073 139.588 119.038 140.897 147.405 139.799C149.027 140.476 150.621 141.235 152.206 142.004C153.828 141.739 155.459 141.492 157.081 141.208C162.514 142.938 168.341 141.894 173.94 141.876C173.775 141.455 173.436 140.631 173.262 140.21C175.479 140.247 177.687 140.247 179.904 140.229C179.904 138.883 179.886 137.538 179.859 136.193C180.188 137.41 180.564 138.618 180.931 139.826C181.856 139.881 182.781 139.927 183.707 139.991C183.725 139.195 183.753 138.398 183.78 137.602C189.177 136.294 194.748 137.538 200.172 136.513C205.184 135.68 210.26 136.422 215.299 136.11C217.177 135.863 219.12 135.836 220.851 136.751C222.94 135.68 225.222 135.772 227.357 136.632C227.457 136.614 227.668 136.586 227.769 136.568L228.988 136.312C228.667 137.492 228.355 138.682 228.053 139.863C235.704 140.293 243.363 139.927 251.023 139.945C251.014 132.13 251.234 124.305 250.776 116.499Z" fill="#ECECEE"/>
<path d="M252.984 140.009C256.346 139.936 259.718 140.018 263.072 140.366C269.44 141.08 275.826 140.091 282.212 140.238C295.021 140.247 307.83 140.21 320.639 140.274C324.68 139.533 324.826 147.769 320.795 147.248C315.866 147.394 310.927 147.211 305.998 147.294C303.634 147.33 301.279 147.385 298.924 147.367C297.22 147.339 295.525 147.294 293.83 147.275C291.466 147.257 289.093 147.284 286.729 147.284C275.468 147.284 264.208 147.284 252.938 147.284C252.947 144.859 252.975 142.434 252.984 140.009Z" fill="#ECECEE"/>
<path d="M166.023 63.5207C167.663 64.628 169.496 65.4608 171.429 65.9184C171.823 69.4692 171.283 73.2121 172.364 76.644C176.807 80.7804 183.588 80.5334 188.92 78.401C189.204 97.665 190.368 117.139 195.16 135.873C196.827 136.083 198.495 136.312 200.172 136.513C194.748 137.538 189.177 136.294 183.78 137.602C183.753 138.398 183.725 139.195 183.707 139.991C182.781 139.927 181.856 139.881 180.931 139.826C180.564 138.618 180.188 137.41 179.859 136.193C177.669 117.505 176.029 98.7266 172.62 80.2039C171.411 77.7604 169.652 75.6556 167.92 73.569C165.501 74.3835 163.064 75.1523 160.599 75.8112L161.121 74.2737C162.047 71.6838 163.238 69.1946 164.447 66.7329C165.116 65.8269 165.776 64.9209 166.417 64.0057L166.023 63.5207Z" fill="white"/>
<path d="M189.708 65.9642C191.018 65.9092 192.329 65.7903 193.639 65.6255C195.664 67.6114 197.212 70.0091 198.468 72.5441C197.936 73.2945 197.396 74.0358 196.855 74.7679C195.609 74.0266 194.372 73.2945 193.126 72.5624C192.164 73.9168 191.22 75.2896 190.331 76.6897C189.983 75.6373 189.653 74.5849 189.378 73.5233C189.498 70.9975 189.635 68.4808 189.708 65.9642Z" fill="white"/>
<path d="M240.432 109.178C242.328 103.833 248.971 103.128 253.836 103.522C258.289 103.394 262.87 106.469 263.448 111.072C263.961 115.758 263.603 120.48 263.567 125.184C263.503 129.1 263.539 133.017 263.549 136.934C266.755 136.989 269.99 136.733 273.197 137.053C273.664 137.611 274.598 138.719 275.075 139.277C271.318 141.007 267.067 140.357 263.072 140.366C259.719 140.018 256.347 139.936 252.984 140.009C253.039 132.267 252.838 124.516 253.149 116.773C254.212 116.06 256.484 116.05 256.411 114.357C256.594 112.005 253.571 112.216 251.976 112.152C250.52 112.179 248.046 112.335 248.366 114.412C247.991 115.794 250.043 115.785 250.776 116.499C251.234 124.305 251.014 132.13 251.023 139.945C243.364 139.927 235.704 140.293 228.053 139.863C228.356 138.682 228.667 137.492 228.988 136.312C232.589 135.992 236.208 136.422 239.809 135.946C239.827 132.249 239.79 128.551 239.818 124.863C240.129 119.638 239.341 114.321 240.432 109.178Z" fill="white"/>
<path d="M165.758 139.204C165.978 138.6 166.427 137.392 166.647 136.797C168.882 137.886 171.136 138.929 173.262 140.21C173.436 140.631 173.775 141.455 173.94 141.876C168.342 141.894 162.514 142.938 157.081 141.208C159.986 140.622 162.881 139.927 165.758 139.204Z" fill="white"/>
<path d="M182.241 147.403C186.547 147.193 190.854 147.184 195.151 147.513C195.71 149.783 196.04 152.098 196.205 154.423C193.007 154.587 189.828 154.963 186.639 155.32C185.191 155.347 183.735 155.384 182.287 155.493C182.278 152.794 182.204 150.103 182.241 147.403Z" fill="white"/>
<path d="M307.134 230.637L308.463 230.627C309.892 230.609 311.321 230.572 312.751 230.582C314.748 230.591 316.755 230.655 318.761 230.673C321.895 230.691 325.037 230.664 328.18 230.673C330.92 230.673 333.669 230.655 336.417 230.655C340.311 230.664 344.205 230.682 348.108 230.664C348.118 231.79 348.127 232.906 348.145 234.041C348.145 235.67 348.127 237.317 348.118 238.955C347.485 238.964 346.23 238.992 345.598 239.001C334.053 238.992 322.509 239.001 310.964 238.964C309.663 238.964 308.371 238.974 307.079 239.001C307.125 236.21 307.143 233.419 307.134 230.637Z" fill="white"/>
<path d="M150.466 247.311C153.535 246.578 154.974 251.392 151.776 252.234C148.661 253.168 147.552 248.308 150.466 247.311Z" fill="white"/>
<path d="M225.561 251.52C225.763 250.038 225.085 247.558 227.238 247.375C229.556 246.533 231.865 249.873 229.803 251.548C228.676 252.994 226.926 251.85 225.561 251.52Z" fill="white"/>
<path d="M253.057 250.816C253.561 250.953 254.56 251.227 255.064 251.365C255.321 253.268 255.586 255.172 255.834 257.084C255.119 257.121 253.68 257.185 252.966 257.213C253.021 255.08 253.103 252.948 253.057 250.816Z" fill="white"/>
<path d="M123.73 253.708C134.422 253.863 145.124 253.881 155.826 253.634C155.762 254.787 155.707 255.94 155.642 257.103C144.877 257.231 134.111 257.121 123.354 257.158C123.464 256.005 123.583 254.851 123.73 253.708Z" fill="white"/>
<path d="M223.334 253.662C232.708 253.826 242.099 254.055 251.454 253.524C251.481 254.751 251.518 255.968 251.546 257.194C242.218 257.094 232.891 257.222 223.564 257.121C223.472 255.968 223.399 254.815 223.334 253.662Z" fill="white"/>
<path d="M193.639 65.6255C194.445 65.3509 195.251 65.0581 196.048 64.7378C197.423 65.4242 198.797 66.1288 200.171 66.8335C200.226 82.3819 200.208 97.9395 200.171 113.488C199.585 118.439 202.27 124.067 207.666 124.717C209.224 125.037 210.8 125.303 212.293 125.87C213.283 129.283 214.236 132.715 215.299 136.11C210.259 136.422 205.183 135.68 200.171 136.513C198.495 136.312 196.827 136.083 195.16 135.873C190.368 117.139 189.204 97.6649 188.92 78.401C189.14 78.2637 189.58 77.9892 189.8 77.8611C190.807 77.0283 191.769 76.1497 192.75 75.2803C194.436 75.381 196.131 75.5 197.817 75.6372C198.266 75.0333 198.687 74.4201 199.109 73.7978C198.944 73.4866 198.623 72.8552 198.467 72.544C197.212 70.0091 195.663 67.6114 193.639 65.6255Z" fill="#F49000"/>
<path d="M145.444 82.9859C150.227 76.0125 157.181 70.8785 164.447 66.7328C163.238 69.1946 162.047 71.6838 161.121 74.2737C160.801 75.1248 160.489 75.985 160.187 76.8453C162.56 76.6897 164.933 76.4975 167.297 76.3053C168.909 77.8153 170.623 79.2338 172.62 80.2039C176.029 98.7265 177.669 117.505 179.858 136.193C179.886 137.538 179.904 138.883 179.904 140.229C177.687 140.247 175.479 140.247 173.261 140.21C171.136 138.929 168.882 137.886 166.646 136.797C164.374 134.372 162.138 131.553 158.556 131.269C158.006 125.156 157.2 119.08 156.21 113.03C157.42 109.095 154.955 105.471 155.065 101.618C156.366 98.5618 158.693 95.8621 158.657 92.3571C155.633 95.2947 152.884 98.5161 150.557 102.039C146.452 108.189 142.943 114.705 139.599 121.285C137.565 119.684 135.677 117.835 133.377 116.599C130.839 115.318 128.036 116.563 125.47 117.057C131.307 105.252 138.014 93.8671 145.444 82.9859Z" fill="#F49000"/>
<path d="M159.6 147.284C166.628 147.303 173.664 147.23 180.701 147.339C180.958 150.112 181.26 152.876 181.544 155.649C181.755 157.873 181.819 160.115 181.846 162.357C180.399 161.14 179.098 159.712 177.439 158.788C172.647 157.827 167.672 159.978 162.944 158.504C160.901 157.955 160.04 155.978 159.481 154.139C159.527 151.851 159.591 149.572 159.6 147.284Z" fill="#F49000"/>
<path d="M197.02 147.312C203.708 147.248 210.397 147.294 217.094 147.284C217.094 148.145 217.094 149.874 217.104 150.735C216.673 154.139 213.374 155.832 210.662 157.278C207.327 158.879 203.635 160.417 199.869 159.895C197.899 159.355 198.513 156.884 198.119 155.393C197.844 152.684 197.468 149.993 197.02 147.312Z" fill="#F49000"/>
<path d="M198.467 72.5441C198.623 72.8552 198.944 73.4867 199.109 73.7978C198.687 74.4201 198.266 75.0333 197.817 75.6373C196.131 75.5 194.436 75.381 192.75 75.2804C191.77 76.1498 190.808 77.0283 189.8 77.8611C189.259 76.8178 188.755 75.7654 188.27 74.7038C188.544 74.411 189.103 73.8161 189.378 73.5233C189.653 74.5849 189.983 75.6373 190.331 76.6897C191.22 75.2895 192.164 73.9168 193.126 72.5624C194.372 73.2945 195.609 74.0266 196.855 74.7679C197.395 74.0358 197.936 73.2945 198.467 72.5441Z" fill="#BA914F"/>
<path d="M160.187 76.8453C160.489 75.985 160.801 75.1248 161.122 74.2737L160.599 75.8111C163.064 75.1522 165.501 74.3835 167.92 73.569C169.652 75.6556 171.411 77.7604 172.62 80.2039C170.623 79.2338 168.91 77.8153 167.297 76.3053C164.933 76.4975 162.56 76.6897 160.187 76.8453Z" fill="#BA914F"/>
<path d="M150.557 102.039C152.884 98.5161 155.633 95.2948 158.657 92.3571C158.693 95.8621 156.366 98.5618 155.065 101.618C154.955 105.471 157.42 109.095 156.21 113.03C155.028 109.095 154.46 104.3 150.557 102.039Z" fill="#BA914F"/>
<path d="M200.172 113.488C201.143 113.25 202.105 113.003 203.076 112.765C203.14 114.22 203.186 115.675 203.333 117.13C203.323 120.297 206.035 122.31 207.666 124.717C202.27 124.067 199.585 118.439 200.172 113.488Z" fill="#D6DADD"/>
<path d="M248.366 114.412C248.046 112.335 250.519 112.179 251.976 112.152C253.571 112.216 256.594 112.005 256.411 114.357C256.484 116.05 254.212 116.06 253.149 116.773C252.838 124.516 253.039 132.267 252.984 140.009C252.975 142.434 252.948 144.859 252.938 147.285C252.948 171.875 252.92 196.465 252.966 221.046C252.993 230.966 252.81 240.895 253.057 250.816C253.103 252.948 253.021 255.08 252.966 257.213C253.14 261.926 252.37 266.785 253.396 271.397C256.356 273.813 260.552 272.184 263.851 271.388C272.977 268.35 282.762 268.945 292.209 269.677C300.235 270.199 308.142 271.782 316.141 272.505C322.564 273.127 329.023 273.328 335.464 272.99C335.217 273.356 334.704 274.07 334.447 274.427C324.653 275.076 314.904 273.749 305.21 272.532C290.907 271.068 275.872 268.368 261.982 273.511C261.551 273.594 260.681 273.749 260.25 273.832C257.309 274.115 252.654 274.61 251.711 270.912C251.179 266.355 251.674 261.761 251.546 257.194C251.518 255.968 251.482 254.751 251.454 253.524C251.454 252.884 251.436 251.584 251.427 250.935C251.61 240.886 251.463 230.838 251.518 220.78C251.5 196.291 251.482 171.801 251.546 147.303C251.646 137.172 251.811 127.032 251.527 116.901L250.776 116.499C250.043 115.785 247.991 115.794 248.366 114.412Z" fill="#D2C3BD"/>
<path d="M78.4852 147.376C80.8125 147.394 83.1397 147.385 85.467 147.367C85.3387 148.52 85.2013 149.682 85.0638 150.844C82.8007 150.378 80.5009 150.103 78.2012 149.938C78.2745 149.298 78.4119 148.017 78.4852 147.376Z" fill="#D4C1B4"/>
<path d="M90.5889 147.349C92.9619 147.349 95.335 147.349 97.7172 147.339C97.7722 148.035 97.9005 149.426 97.9646 150.121C95.6099 150.167 93.2643 150.213 90.9096 150.25C90.7996 149.28 90.6897 148.319 90.5889 147.349Z" fill="#D4C1B4"/>
<path d="M286.729 147.284C289.093 147.284 291.466 147.257 293.83 147.275C293.674 148.41 293.537 149.554 293.39 150.689C291.091 150.387 288.8 150.048 286.555 149.49C286.601 148.941 286.693 147.834 286.729 147.284Z" fill="#D4C1B4"/>
<path d="M298.924 147.367C301.279 147.385 303.634 147.33 305.998 147.294C306.062 148.017 306.199 149.444 306.273 150.158C303.918 150.167 301.563 150.167 299.208 150.158C299.135 149.463 298.998 148.062 298.924 147.367Z" fill="#D4C1B4"/>
<path d="M144.775 151.915C148.88 147.614 156.998 148.502 159.481 154.139C160.04 155.978 160.901 157.955 162.945 158.504C167.672 159.978 172.648 157.827 177.44 158.788C179.098 159.712 180.399 161.14 181.847 162.357C181.819 160.115 181.755 157.873 181.544 155.649L182.286 155.493C183.734 155.384 185.191 155.347 186.639 155.32C190.459 155.567 194.289 155.493 198.119 155.393C198.513 156.884 197.899 159.355 199.869 159.895C203.635 160.417 207.327 158.879 210.663 157.278C213.375 155.832 216.673 154.139 217.104 150.735C222.565 150.954 228.639 147.12 233.514 151.146C239.094 155.265 236.885 162.86 237.16 168.763C237.078 173.165 237.005 177.567 236.922 181.969C236.711 194.58 236.482 207.181 236.272 219.792C236.244 220.908 236.226 222.034 236.217 223.151C231.315 224.267 226.486 225.621 221.584 226.738C221.685 224.121 221.52 221.503 221.41 218.895C220.888 206.541 220.375 194.195 219.862 181.841C219.697 177.979 219.559 174.108 219.367 170.246C219.174 166.951 218.991 163.647 218.854 160.344C210.214 163.474 201.418 166.228 192.97 169.889C189.855 169.77 186.73 169.724 183.615 169.843C181.141 167.4 177.678 166.594 174.691 165.02C170.055 162.622 165.134 160.874 160.462 158.587C160.297 162.311 160.113 166.036 159.866 169.761C159.609 173.824 159.49 177.896 159.261 181.96C158.895 193.298 158.318 204.628 157.914 215.957C157.814 219.142 157.484 222.327 157.621 225.521C152.628 226.573 147.872 223.855 142.952 223.343C142.916 220.725 142.861 218.099 142.815 215.472C142.659 204.28 142.439 193.088 142.247 181.886C142.164 177.53 142.091 173.174 142.027 168.818C142.357 163.208 140.194 156.326 144.775 151.915Z" fill="#D6DDF0"/>
<path d="M278.877 223.059C281.452 198.533 283.999 174.016 286.555 149.49C288.8 150.048 291.091 150.387 293.391 150.689C290.422 174.263 287.563 197.847 284.576 221.421C283.239 232.448 281.864 243.485 280.517 254.513C280.187 256.645 280.288 258.905 279.464 260.928C278.025 261.157 276.577 261.221 275.121 261.129C275.982 248.409 277.686 235.752 278.877 223.059Z" fill="#E7D2C1"/>
<path d="M78.2013 149.938C80.5011 150.103 82.8008 150.378 85.064 150.844C82.2236 173.449 79.4474 196.053 76.6253 218.657C75.1594 230.536 73.7025 242.424 72.2274 254.302C71.9342 256.508 71.6135 258.713 71.302 260.928C69.7993 260.91 68.2967 260.901 66.8032 260.891C66.904 258.594 67.0231 256.306 67.2613 254.028C68.5532 243.467 69.497 232.879 70.6423 222.309C73.1803 198.185 75.6816 174.062 78.2013 149.938Z" fill="#E7D2C1"/>
<path d="M90.9097 150.25C93.2644 150.213 95.61 150.167 97.9647 150.121C100.072 172.076 102.207 194.03 104.333 215.985C105.799 230.499 107.036 245.041 108.639 259.537C108.941 262.996 109.161 266.456 109.555 269.906C107.998 270.153 106.44 270.4 104.882 270.647C104.47 266.758 104.012 262.877 103.416 259.015C102.977 258.823 102.115 258.439 101.676 258.247C102.106 258.21 102.967 258.137 103.398 258.1C101.731 243.421 99.9988 228.751 98.3221 214.072C95.8391 192.804 93.3835 171.527 90.9097 150.25Z" fill="#E7D2C1"/>
<path d="M299.208 150.158C301.563 150.167 303.918 150.167 306.273 150.158C308.014 168.168 309.736 186.169 311.514 204.17C309.443 202.55 307.262 201.077 304.972 199.796C303.038 183.25 301.133 166.704 299.208 150.158Z" fill="#E7D2C1"/>
<path d="M307.775 224.066C309.434 226.235 311.165 228.349 312.751 230.582C311.321 230.572 309.892 230.609 308.463 230.627C308.325 229.09 308.188 227.552 308.032 226.024C307.968 225.53 307.84 224.551 307.775 224.066Z" fill="#E7D2C1"/>
<path d="M310.964 238.964C322.509 239.001 334.053 238.992 345.598 239.001C345.754 246.716 345.543 254.44 345.763 262.154C345.424 263.829 344.947 265.485 344.453 267.124C347.888 267.801 351.92 267.609 354.724 270.034C354.531 271.919 352.406 272.148 350.949 272.596C345.534 273.804 339.972 274.115 334.447 274.426C334.704 274.07 335.217 273.356 335.464 272.99C341.356 272.422 347.577 272.715 353.074 270.226C349.968 269.393 346.816 268.588 343.6 268.46C341.539 269.411 339.651 271.022 337.251 271.004C329.151 271.15 321.043 270.995 312.943 271.059C309.452 260.708 312.384 249.608 310.964 238.964Z" fill="#E7D2C1"/>
<path d="M160.462 158.587C165.135 160.874 170.055 162.622 174.691 165.02C177.678 166.594 181.141 167.4 183.615 169.843C175.699 170.081 167.783 169.797 159.866 169.761C160.114 166.036 160.297 162.311 160.462 158.587Z" fill="#C5CFF6"/>
<path d="M192.97 169.889C201.418 166.228 210.214 163.474 218.854 160.344C218.992 163.647 219.175 166.951 219.367 170.246C210.571 169.971 201.757 170.319 192.97 169.889Z" fill="#C5CFF6"/>
<path d="M141.047 223.013C141.523 223.096 142.476 223.26 142.953 223.343C147.873 223.855 152.628 226.573 157.622 225.521C158.245 226.912 158.95 228.303 159.115 229.849C159.033 231.497 158.941 233.144 158.822 234.8C157.988 234.627 156.311 234.288 155.478 234.123L155.175 234.05C151.336 233.107 147.497 232.201 143.667 231.295C142.824 231.085 142 230.874 141.166 230.664C141.074 228.111 141.038 225.567 141.047 223.013Z" fill="#C5CFF6"/>
<path d="M221.584 226.738C226.486 225.621 231.315 224.267 236.217 223.151C236.675 223.178 237.6 223.233 238.068 223.26C238.15 225.695 238.104 228.129 238.068 230.563C237.197 230.81 236.327 231.057 235.456 231.295C231.654 232.293 227.806 233.098 223.994 234.05L223.728 234.114C222.592 234.37 221.456 234.599 220.311 234.837C220.238 233.29 220.146 231.753 220.137 230.206C220.183 229.538 220.265 228.193 220.311 227.516C220.631 227.324 221.273 226.939 221.584 226.738Z" fill="#C5CFF6"/>
<path d="M44.0712 172.964C44.8683 171.298 46.5451 169.697 48.5516 170.301C50.0909 171.014 51.0163 172.534 51.731 174.007C51.3004 174.959 50.769 175.874 50.1551 176.734C50.714 176.56 51.8226 176.203 52.3815 176.02C53.4444 179.818 53.6918 183.781 53.9575 187.707C53.5452 188.073 52.7297 188.814 52.3174 189.18C52.748 189.107 53.6185 188.96 54.0583 188.887C54.2232 199.485 51.8226 209.89 48.3959 219.856C47.9927 219.957 47.1956 220.176 46.7925 220.277C46.0961 217.586 44.9691 215.033 44.2087 212.37C41.4691 203.127 40.9468 193.39 41.4324 183.808C42.0646 184.055 43.3199 184.549 43.9521 184.797C40.6078 181.438 42.3578 176.661 44.0712 172.964Z" fill="#D7CCFF"/>
<path d="M315.389 207.657C315.71 198.798 318.092 189.784 323.471 182.609C329.646 190.635 331.781 201.04 331.671 210.979C331.396 217.66 330.269 224.313 328.18 230.673C325.037 230.664 321.895 230.691 318.761 230.673C316.342 223.26 315.16 215.454 315.389 207.657Z" fill="#82DC55"/>
<path d="M184.495 206.266C187.5 206.028 190.524 206.037 193.529 206.284C193.291 207.785 193.162 209.304 193.043 210.823C190.185 210.805 187.335 210.86 184.495 210.613C184.806 209.176 184.797 207.703 184.495 206.266Z" fill="#82DC55"/>
<path d="M299.318 197.398C301.224 198.121 303.139 198.872 304.972 199.796C307.262 201.077 309.443 202.551 311.513 204.17C312.851 205.269 314.116 206.467 315.389 207.657C315.16 215.454 316.342 223.26 318.761 230.673C316.754 230.655 314.748 230.591 312.75 230.582C311.165 228.349 309.434 226.235 307.775 224.066C302.635 216.159 298.943 206.971 299.318 197.398Z" fill="#50BB64"/>
<path d="M331.671 210.979C335.758 205.268 340.779 199.979 347.284 197.041C349.006 209.24 343.802 221.21 336.417 230.655C333.668 230.655 330.92 230.673 328.18 230.673C330.269 224.313 331.396 217.66 331.671 210.979Z" fill="#50BB64"/>
<path d="M20.6062 214.091C20.8811 212.187 20.2947 209.716 22.0264 208.353C23.923 207.52 24.8759 209.917 24.8118 211.4C24.9126 214.493 25.2516 217.623 26.6351 220.442C28.4218 223.846 25.6364 227.287 25.9113 230.765C26.571 232.851 28.5134 234.215 29.6129 236.063C29.7778 239.193 27.4872 241.536 26.4977 244.318C26.2686 246.807 27.7621 249.104 27.7346 251.584C27.3406 255.19 25.3616 258.42 22.6953 260.809L22.2463 260.232C19.5434 257.258 16.9046 253.113 18.2973 248.958C18.7829 246.89 19.8733 244.556 18.4897 242.607C17.4544 240.566 15.4295 238.653 15.9242 236.173C16.8863 234.425 18.4714 233.135 19.4976 231.442C20.4413 228.138 17.5735 224.963 18.5539 221.65C19.3785 219.17 20.6062 216.763 20.6062 214.091Z" fill="#CCDFFF"/>
<path opacity="0.5" d="M98.3222 214.072C99.9989 228.751 101.731 243.421 103.398 258.1C102.968 258.137 102.106 258.21 101.676 258.247C91.9634 256.288 82.0955 255.172 72.2275 254.302C73.7027 242.424 75.1595 230.536 76.6255 218.657C76.5889 219.188 76.5247 220.259 76.4881 220.789C83.7539 219.197 91.038 217.678 98.4229 216.745C98.3955 216.076 98.3496 214.74 98.3222 214.072Z" fill="#757576" fill-opacity="0.71"/>
<path opacity="0.5" d="M104.333 215.985C117.105 214.576 130.006 214.759 142.815 215.472C142.861 218.099 142.916 220.725 142.952 223.343C142.476 223.26 141.523 223.096 141.047 223.013C141.037 225.567 141.074 228.111 141.166 230.664C141.999 230.874 142.824 231.085 143.667 231.295C143.621 233.821 143.63 236.356 143.731 238.891C143.777 240.63 143.749 242.378 143.465 244.089C143.181 241.298 143.42 238.498 143.566 235.706C141.78 236.365 139.691 236.585 138.16 237.811C137.492 240.685 137.904 243.705 137.666 246.642C133.405 248.885 128.98 250.999 124.069 251.182C123.986 251.813 123.812 253.076 123.73 253.707C123.583 254.851 123.464 256.004 123.354 257.158C134.111 257.121 144.876 257.231 155.642 257.103C155.706 255.94 155.761 254.787 155.826 253.634C156.22 249.69 155.184 245.81 155.239 241.884L156.769 241.408C156.879 244.034 156.375 246.798 157.191 249.342C158.593 252.673 164.072 252.39 164.942 248.821C165.391 245.59 164.97 242.286 165.556 239.065C171.732 237.546 177.65 234.993 183.982 234.16C187.225 234.425 190.478 234.453 193.721 234.169C200.025 234.581 205.743 237.592 211.826 238.983C212.459 242.231 211.936 245.572 212.404 248.83C213.32 252.435 218.863 252.673 220.21 249.26C220.998 246.734 220.43 243.998 220.613 241.389L221.74 241.417C222.308 241.545 223.435 241.801 224.003 241.929C223.939 245.855 222.94 249.727 223.334 253.662C223.399 254.815 223.472 255.968 223.563 257.121C232.891 257.222 242.218 257.094 251.546 257.194C251.674 261.761 251.179 266.355 251.71 270.912C252.654 274.609 257.309 274.115 260.25 273.832C245.049 276.037 231.81 284.237 217.681 289.655C194.18 298.962 168.662 301.277 143.594 302H125.764C104.507 301.359 83.2407 300.252 62.1213 297.699C46.8017 295.649 31.308 293.086 17.0421 286.9C9.80381 283.651 2.06155 278.81 0 270.592V266.547C2.05239 256.48 10.6926 249.8 18.6089 244.172C18.5814 243.778 18.5173 243 18.4898 242.607C19.8733 244.556 18.783 246.89 18.2974 248.958C16.9047 253.113 19.5435 257.258 22.2464 260.232C22.2922 265.916 22.1548 271.599 22.3747 277.273C20.9545 277.776 19.5435 278.298 18.1416 278.847C21.0736 280.1 24.2988 280.018 27.3041 279.094C25.8656 278.133 23.9231 277.712 22.842 276.33C22.3197 271.178 22.7595 265.98 22.6954 260.809C25.3616 258.42 27.3407 255.19 27.7347 251.584C27.7622 249.104 26.2687 246.807 26.4978 244.318C27.4873 241.536 29.7779 239.193 29.613 236.063C29.8237 236.338 30.2269 236.896 30.4376 237.171C35.6969 234.919 40.7179 232.037 46.2245 230.38C47.9654 231.396 47.04 233.611 47.2599 235.249C44.337 235.569 41.2401 235.679 38.6105 237.171C38.6288 237.555 38.6655 238.342 38.6838 238.736C44.2729 241.17 51.1356 241.188 56.7155 238.754C56.7247 238.342 56.743 237.528 56.7613 237.125C54.095 235.633 50.9706 235.542 48.002 235.267C48.002 233.483 48.0203 231.707 48.0295 229.941C47.7638 229.996 47.2507 230.124 46.985 230.188C46.9392 226.884 46.985 223.581 46.7926 220.277C47.1957 220.176 47.9928 219.957 48.396 219.856C48.1669 223.004 48.2219 226.171 48.2586 229.328C55.6526 226.784 63.0467 224.203 70.6424 222.309C69.4971 232.879 68.5534 243.467 67.2615 254.028C60.4538 253.653 53.4903 253.213 46.7742 254.687C45.5831 255.062 43.714 255.529 43.9889 257.185C45.803 259.519 48.7442 260.489 51.3738 261.578C60.2797 264.79 69.5796 266.776 78.8611 268.542C93.97 271.269 109.28 273.218 124.655 273.319C129.438 273.2 134.569 273.365 138.811 270.802C136.914 267.371 132.938 266.245 129.529 264.927C122.722 262.612 115.712 260.891 108.639 259.537C107.036 245.041 105.799 230.499 104.333 215.985Z" fill="#757576" fill-opacity="0.71"/>
<path opacity="0.5" d="M157.915 215.957C166.601 216.159 175.268 216.653 183.954 216.973C183.982 218.245 184 219.517 184.028 220.789C175.791 223.983 167.48 226.994 159.115 229.849C158.95 228.303 158.244 226.912 157.621 225.521C157.484 222.327 157.814 219.142 157.915 215.957Z" fill="#757576" fill-opacity="0.71"/>
<path opacity="0.5" d="M193.923 221.046C192.842 217.641 196.663 217.385 198.962 217.577C206.43 218.172 213.925 218.447 221.41 218.895C221.52 221.503 221.685 224.121 221.584 226.738C221.273 226.939 220.631 227.324 220.311 227.516C220.265 228.193 220.182 229.538 220.137 230.206C211.295 227.452 202.783 223.736 193.923 221.046Z" fill="#757576" fill-opacity="0.71"/>
<path opacity="0.5" d="M236.272 219.792C241.357 220.112 246.433 220.506 251.518 220.78C251.463 230.838 251.61 240.886 251.427 250.935C247.184 249.626 243.309 247.42 239.268 245.627L240.23 245.38C240.441 242.716 240.258 240.044 239.9 237.409C238.416 236.942 236.941 236.475 235.466 236.008C235.475 234.434 235.466 232.86 235.457 231.295C236.327 231.057 237.197 230.81 238.068 230.563C238.104 228.129 238.15 225.695 238.068 223.26C237.601 223.233 236.675 223.178 236.217 223.151C236.226 222.034 236.244 220.908 236.272 219.792Z" fill="#757576" fill-opacity="0.71"/>
<path opacity="0.5" d="M252.966 221.046C261.615 221.439 270.246 222.281 278.877 223.059C277.686 235.752 275.982 248.409 275.12 261.129C276.577 261.221 278.025 261.157 279.463 260.928C280.288 258.906 280.187 256.645 280.517 254.513C281.864 243.485 283.238 232.449 284.576 221.421C284.576 221.924 284.567 222.949 284.567 223.453C292.373 224.432 300.225 224.99 308.032 226.024C308.188 227.552 308.325 229.09 308.462 230.627L307.134 230.637C304.321 230.627 301.508 230.609 298.695 230.618C298.686 233.446 298.695 236.265 298.704 239.083C299.337 239.093 300.592 239.111 301.215 239.111C301.068 246.652 301.078 254.193 301.16 261.724C301.059 264.689 302.296 267.636 304.77 269.375C306.978 271.471 310.185 270.803 312.943 271.059C314.006 271.525 315.059 272.047 316.141 272.505C308.142 271.782 300.235 270.199 292.208 269.677C282.762 268.945 272.976 268.35 263.851 271.388C260.552 272.184 256.356 273.813 253.396 271.397C252.37 266.785 253.14 261.926 252.966 257.213C253.68 257.185 255.119 257.121 255.833 257.084C255.586 255.172 255.32 253.268 255.064 251.365C254.56 251.227 253.561 250.953 253.057 250.816C252.81 240.895 252.993 230.966 252.966 221.046Z" fill="#757576" fill-opacity="0.71"/>
<path opacity="0.5" d="M348.145 234.041C353.46 236.219 359.507 239.33 361 245.389V248.564C358.453 255.272 351.984 259.281 345.763 262.154C345.543 254.44 345.754 246.716 345.598 239.001C346.23 238.992 347.486 238.964 348.118 238.955C348.127 237.317 348.145 235.67 348.145 234.041Z" fill="#757576" fill-opacity="0.71"/>
<path d="M46.2243 230.38C46.4167 230.335 46.7924 230.234 46.9848 230.188C47.2505 230.124 47.7636 229.996 48.0293 229.941C48.0202 231.707 48.0019 233.483 48.0019 235.267C50.9705 235.542 54.0949 235.633 56.7611 237.125C56.7428 237.528 56.7245 238.342 56.7153 238.754C51.1354 241.188 44.2727 241.17 38.6837 238.736C38.6653 238.342 38.6287 237.555 38.6104 237.171C41.24 235.679 44.3369 235.569 47.2597 235.249C47.0398 233.611 47.9652 231.396 46.2243 230.38Z" fill="#E4E4E4"/>
<path d="M43.9887 257.185C43.7138 255.529 45.5829 255.062 46.774 254.687C53.4901 253.213 60.4536 253.652 67.2612 254.028C67.023 256.306 66.9039 258.594 66.8031 260.891C68.2966 260.9 69.7992 260.91 71.3019 260.928C71.6134 258.713 71.9341 256.508 72.2273 254.302C82.0952 255.172 91.9632 256.288 101.675 258.247C102.115 258.439 102.976 258.823 103.416 259.015C104.012 262.877 104.47 266.757 104.882 270.647C106.44 270.4 107.997 270.153 109.555 269.906C109.161 266.455 108.941 262.996 108.639 259.537C115.712 260.891 122.721 262.612 129.529 264.927C132.938 266.245 136.914 267.371 138.811 270.802C134.569 273.365 129.438 273.2 124.655 273.319C109.28 273.218 93.9697 271.269 78.8609 268.542C69.5793 266.776 60.2795 264.79 51.3736 261.578C48.744 260.489 45.8028 259.519 43.9887 257.185Z" fill="#E4E4E4"/>
<path d="M298.695 230.618C301.508 230.609 304.321 230.627 307.134 230.637C307.143 233.419 307.125 236.21 307.079 239.001C305.118 239.047 303.166 239.111 301.215 239.111C300.592 239.111 299.337 239.093 298.704 239.083C298.695 236.265 298.686 233.446 298.695 230.618Z" fill="#DFF4E6"/>
<path d="M155.175 234.05L155.477 234.123C155.487 236.713 155.312 239.294 155.239 241.884C155.184 245.81 156.22 249.69 155.826 253.634C145.124 253.881 134.422 253.863 123.729 253.707C123.812 253.076 123.986 251.813 124.069 251.182C128.98 250.999 133.405 248.885 137.666 246.642C139.571 245.727 141.523 244.931 143.465 244.089C143.749 242.378 143.777 240.63 143.731 238.891C147.515 238.983 151.308 238.973 155.102 238.873C155.12 237.262 155.147 235.652 155.175 234.05ZM150.465 247.311C147.552 248.308 148.66 253.167 151.776 252.234C154.973 251.392 153.535 246.578 150.465 247.311Z" fill="#D9DAED"/>
<path d="M223.728 234.114L223.994 234.05C224.067 235.67 224.15 237.29 224.232 238.909C227.952 238.964 231.681 238.973 235.42 238.928C235.401 240.447 235.365 241.975 235.539 243.485C236.492 244.583 238.003 244.977 239.268 245.627C243.309 247.42 247.184 249.626 251.426 250.935C251.436 251.584 251.454 252.884 251.454 253.524C242.099 254.055 232.708 253.826 223.334 253.662C222.94 249.727 223.939 245.855 224.003 241.929C223.921 239.321 223.728 236.722 223.728 234.114ZM225.561 251.52C226.926 251.85 228.676 252.994 229.803 251.548C231.865 249.873 229.556 246.533 227.238 247.375C225.084 247.558 225.762 250.038 225.561 251.52Z" fill="#D9DAED"/>
<path d="M301.215 239.111C303.167 239.111 305.119 239.047 307.079 239.001C308.371 238.974 309.663 238.964 310.964 238.964C312.384 249.608 309.452 260.708 312.943 271.059C310.185 270.802 306.979 271.471 304.77 269.375C302.296 267.636 301.06 264.689 301.16 261.724C301.078 254.192 301.069 246.652 301.215 239.111Z" fill="#D7BDAB"/>
<path d="M22.2464 260.232L22.6953 260.809C22.7595 265.98 22.3197 271.178 22.8419 276.33C23.9231 277.712 25.8655 278.133 27.304 279.094C24.2988 280.018 21.0736 280.1 18.1416 278.847C19.5435 278.298 20.9545 277.776 22.3746 277.273C22.1547 271.599 22.2922 265.916 22.2464 260.232Z" fill="#E5E6E7"/>
<path opacity="0.49" d="M261.981 273.511C275.872 268.368 290.907 271.068 305.21 272.532C299.667 272.102 294.132 272.825 288.598 272.724C279.72 272.633 270.787 272.102 261.981 273.511Z" fill="#6F6E6E"/>
</g>
<defs>
<clipPath id="clip0_227_404">
<rect width="361" height="302" fill="white"/>
</clipPath>
</defs>
</svg>
