<svg width="364" height="277" viewBox="0 0 364 277" fill="none" xmlns="http://www.w3.org/2000/svg">
<g clip-path="url(#clip0_227_548)">
<path d="M92.3574 177.898C91.526 177.896 90.8497 178.855 90.8467 180.04C90.8437 181.225 91.5154 182.187 92.3468 182.189C93.1782 182.191 93.8546 181.232 93.8575 180.047C93.8605 178.862 93.1888 177.9 92.3574 177.898ZM92.356 178.504C92.8023 178.505 93.1634 178.729 93.1628 179.003C93.1622 179.277 92.7998 179.499 92.3535 179.498C91.9072 179.497 91.5461 179.274 91.5468 178.999C91.5474 178.725 91.9097 178.503 92.356 178.504ZM92.3488 181.384C91.7194 181.382 91.21 181.038 91.2111 180.615C91.212 180.192 91.7232 179.85 92.3526 179.851C92.982 179.853 93.4914 180.197 93.4904 180.62C93.4894 181.044 92.9782 181.385 92.3488 181.384Z" fill="#466EB6"/>
<path d="M88.9391 182.635C88.6231 183.318 88.4574 184.059 88.4555 184.81L88.417 200.518C88.4147 201.466 89.1896 202.237 90.1478 202.239L99.1292 202.261C100.087 202.264 100.866 201.497 100.868 200.548L100.907 184.84C100.909 184.09 100.747 183.348 100.434 182.664L88.9391 182.635Z" fill="#7F1CA0"/>
<path d="M88.9391 182.635C88.6231 183.318 88.4574 184.059 88.4555 184.81L88.417 200.518C88.4147 201.466 89.1896 202.237 90.1478 202.239L99.1292 202.261C100.087 202.264 100.866 201.497 100.868 200.548L100.907 184.84C100.909 184.09 100.747 183.348 100.434 182.664L88.9391 182.635Z" fill="#7F1CA0"/>
<path d="M100.908 184.84L100.869 200.549C100.867 201.497 100.087 202.265 99.13 202.262L90.1488 202.24C89.1895 202.238 88.4156 201.466 88.418 200.518L88.4567 184.809C88.4585 184.059 88.6236 183.318 88.9396 182.636L100.434 182.664C100.746 183.348 100.91 184.09 100.908 184.84Z" fill="#F47458"/>
<path d="M90.7984 200.523L90.8371 184.816C90.839 184.065 91.0047 183.324 91.3207 182.641L88.9392 182.635C88.6232 183.318 88.4576 184.059 88.4557 184.81L88.417 200.518C88.4147 201.466 89.1896 202.237 90.1478 202.239L92.5293 202.245C91.571 202.243 90.7963 201.472 90.7984 200.523Z" fill="#F48C7F"/>
<path d="M100.908 184.84L100.869 200.549C100.867 201.497 100.087 202.265 99.1301 202.262L95.458 202.253C96.4256 202.256 97.2132 201.488 97.2157 200.54L97.2542 184.831C97.2561 184.081 97.0906 183.339 96.7758 182.655L100.434 182.664C100.746 183.348 100.91 184.09 100.908 184.84Z" fill="#B75742"/>
<path d="M100.435 182.664L88.9385 182.635C88.9397 182.133 89.352 181.727 89.8593 181.728L99.5183 181.752C100.026 181.753 100.436 182.161 100.435 182.664Z" fill="#13375B"/>
<path d="M100.869 197.452L88.418 197.421L88.4131 199.373L100.864 199.404L100.869 197.452Z" fill="#355389"/>
<path d="M77.6255 177.578H78.9988C78.7742 177.425 78.4931 177.333 78.1872 177.333H43.7836C41.9835 177.333 40.5244 178.626 40.5244 180.222V182.057C40.5244 183.653 41.9835 184.947 43.7836 184.947L77.8026 184.937L77.6255 177.578Z" fill="#86B1F2"/>
<path d="M58.0933 177.339C56.372 177.339 54.9766 178.576 54.9766 180.102V182.177C54.9766 183.702 56.372 184.94 58.0933 184.94H79.5106V184.476H79.4222L73.9774 184.018L72.877 180.191C72.877 180.191 75.001 178.076 75.1395 178.022C75.2781 177.967 79.4222 177.802 79.4222 177.802L79.5106 177.801V177.339H58.0933Z" fill="#466EB6"/>
<path d="M78.1223 181.126C78.1223 178.888 79.4268 177.803 79.4268 177.803H58.5327C56.9517 177.803 55.6699 178.939 55.6699 180.341V181.938C55.6699 183.339 56.9517 184.476 58.5327 184.476H79.4267C79.4267 184.476 78.1223 183.944 78.1223 181.126Z" fill="#FAE0B2"/>
<path d="M55.6699 180.341V181.938C55.6699 182.148 55.6992 182.351 55.7534 182.546C56.4581 181.018 57.8087 179.546 60.3798 179.072C66.3825 177.967 79.4267 177.803 79.4267 177.803H58.5327C56.9517 177.803 55.6699 178.94 55.6699 180.341Z" fill="#DAEEF7"/>
<path d="M77.0587 192.796H78.6129C78.3586 192.604 78.0406 192.489 77.6945 192.489H38.756C36.7187 192.489 35.0674 194.108 35.0674 196.105V198.403C35.0674 200.4 36.7188 202.019 38.756 202.019L77.2589 202.006L77.0587 192.796Z" fill="#50BFA5"/>
<path d="M54.9524 192.497C53.0042 192.497 51.4248 194.046 51.4248 195.956V198.552C51.4248 200.462 53.0042 202.011 54.9524 202.011H79.1926V201.43H79.0925L72.93 200.858L71.6845 196.067C71.6845 196.067 74.0886 193.42 74.2453 193.352C74.4021 193.283 79.0926 193.076 79.0926 193.076L79.1928 193.075V192.497H54.9524Z" fill="#3C8F7C"/>
<path d="M77.6208 197.237C77.6208 194.436 79.0972 193.078 79.0972 193.078H55.4491C53.6597 193.078 52.209 194.501 52.209 196.255V198.253C52.209 200.008 53.6597 201.43 55.4491 201.43H79.0972C79.0972 201.43 77.6208 200.764 77.6208 197.237Z" fill="#FAE0B2"/>
<path d="M52.209 196.255V198.253C52.209 198.516 52.2422 198.771 52.3035 199.015C53.1011 197.102 54.6297 195.259 57.5395 194.667C64.3334 193.283 79.097 193.078 79.097 193.078H55.4491C53.6597 193.078 52.209 194.501 52.209 196.255Z" fill="#DAEEF7"/>
<path d="M33.7844 185.171H32.2295C32.4838 185.018 32.8021 184.927 33.1483 184.927H72.102C74.14 184.927 75.7922 186.212 75.7922 187.797V189.62C75.7922 191.204 74.14 192.489 72.102 192.489L33.5839 192.479L33.7844 185.171Z" fill="#F49000"/>
<path d="M55.8991 184.934C57.8481 184.934 59.4281 186.162 59.4281 187.678V189.738C59.4281 191.254 57.8481 192.482 55.8991 192.482H31.6494V192.021H31.7497L37.9145 191.568L39.1605 187.766C39.1605 187.766 36.7556 185.666 36.5987 185.611C36.4418 185.557 31.7497 185.393 31.7497 185.393L31.6494 185.392V184.934H55.8991Z" fill="#B75742"/>
<path d="M33.222 188.695C33.222 186.472 31.7451 185.395 31.7451 185.395H55.4022C57.1925 185.395 58.6436 186.523 58.6436 187.915V189.501C58.6436 190.893 57.1923 192.022 55.4022 192.022H31.7451C31.7451 192.022 33.222 191.493 33.222 188.695Z" fill="#FAE0B2"/>
<path d="M58.6438 187.915V189.501C58.6438 189.709 58.6105 189.912 58.5492 190.105C57.7514 188.587 56.2222 187.125 53.311 186.655C46.5146 185.557 31.7451 185.394 31.7451 185.394H55.4022C57.1926 185.394 58.6438 186.523 58.6438 187.915Z" fill="#DAEEF7"/>
<path d="M160.945 272.926L157.293 272.234L173.073 188.527L176.725 189.219L160.945 272.926Z" fill="#184655"/>
<path d="M282.067 273.307H286.46L270.09 188.527L266.438 189.219L282.067 273.307Z" fill="#184655"/>
<path d="M201.645 273.307H206.038L189.668 188.527L186.016 189.219L201.645 273.307Z" fill="#184655"/>
<path d="M242.044 273.307L238.478 273.349L254.172 188.908L257.824 189.6L242.044 273.307Z" fill="#184655"/>
<path d="M226.11 74.3489C240.572 75.8979 259.287 77.5317 278.075 109.417C298.609 144.267 287.799 196.323 271.592 210.788C255.385 225.254 202.452 243.115 157.955 216.376C157.955 216.376 131.088 200.171 144.877 173.277C166.096 131.891 163.097 123.261 172.585 107.042C182.073 90.8228 195.413 71.0613 226.11 74.3489Z" fill="#FAE0B2"/>
<path d="M278.074 109.417C265.251 87.6543 252.462 79.9857 241.036 76.8165C245.455 81.3907 249.936 87.2749 254.421 94.8861C274.955 129.735 264.146 181.791 247.938 196.257C233.566 209.085 190.311 224.579 149.67 209.274C153.848 213.899 157.955 216.376 157.955 216.376C202.452 243.115 255.385 225.254 271.592 210.788C287.799 196.323 298.608 144.267 278.074 109.417Z" fill="#F7CC7F"/>
<path d="M25.4775 99.0498C25.0674 102.283 28.4337 104.848 31.4277 104.646C34.7374 104.422 37.5449 101.708 38.0289 98.4551C38.5529 94.9344 36.4375 92.1187 33.1651 91.8607C29.9795 91.6095 27.9417 94.4451 28.8619 97.3066C29.5216 99.3582 31.394 100.123 32.3373 99.5569C33.0724 99.1156 33.028 98.0032 32.1379 97.8068C31.7812 97.7282 31.4135 97.9271 31.224 98.2008C30.4448 97.8915 29.7034 96.4728 30.2067 94.9411C30.8493 92.9845 33.3228 92.8725 34.8588 93.7851C36.8141 94.9465 37.1214 97.4478 36.4042 99.4407C35.6512 101.533 33.5962 103.182 31.3589 103.341C28.8246 103.521 26.5942 101.578 26.3918 99.0529C26.3441 98.4567 25.5509 98.4712 25.4775 99.0498Z" fill="#F48C7F"/>
<path d="M179.681 127.318L175.964 138.47L187.292 134.014L179.681 127.318Z" fill="#F79C8D"/>
<path d="M191.359 94.1316C190.604 94.1628 188.535 94.8529 185.509 100.553C181.644 107.832 175.996 129.821 175.996 129.821L192.855 136.079L195.021 131.489L198.588 96.1553C198.588 96.1552 191.569 94.1228 191.359 94.1316Z" fill="#2A0843"/>
<path d="M213.644 90.962C208.824 90.9684 196.895 92.3703 191.358 94.1333C191.358 94.1333 187.291 128.975 195.02 155.45C196.75 161.376 193.589 180.017 193.589 180.017L243.545 179.36C243.545 179.36 237.627 134.295 239.856 127.016C242.086 119.737 242.139 94.3676 242.139 94.3676C242.139 94.3676 241.797 94.3146 230.915 92.4398C225.84 91.5654 218.792 90.9553 213.644 90.962Z" fill="#592280"/>
<path d="M219.466 244.685C219.466 244.685 218.361 257.398 216.329 260.919C214.297 264.439 216.436 270.425 216.543 271.246C216.649 272.067 220.82 273.241 227.451 272.537C234.082 271.833 233.975 270.307 233.44 267.842C232.906 265.378 229.376 262.21 229.162 259.862C228.948 257.515 231.194 249.066 231.194 249.066L219.466 244.685Z" fill="#F7A491"/>
<path d="M199.226 169.524C199.226 169.524 164.741 167.615 157.041 172.264C149.34 176.912 158.433 186.457 158.433 186.457C158.433 186.457 186.507 198.623 233.508 201.326C244.638 201.966 245.597 172.402 243.516 169.955C241.434 167.509 199.226 169.524 199.226 169.524Z" fill="#327F6B"/>
<path d="M228.279 273.524C235.106 272.799 234.262 269.455 233.712 266.918C233.367 265.329 231.408 263.455 230.24 261.683C229.63 262.168 228.637 263.024 225.672 263.896C222.593 264.803 218.372 263.009 215.683 261.885C214.724 265.441 214.68 269.976 214.77 270.664C214.88 271.51 221.451 274.249 228.279 273.524Z" fill="#355389"/>
<path d="M224.51 194.113C223.132 204.504 216.311 256.232 216.311 256.232L232.139 258.188C232.139 258.188 251.603 190.67 250.605 180.343C249.607 170.016 242.321 169.147 242.321 169.147C242.321 169.147 228.156 166.606 224.51 194.113Z" fill="#3C8F7C"/>
<path d="M209.347 47.0053C209.347 47.0053 214.606 41.4602 218.835 48.2057C218.835 48.2057 222.094 46.3765 224.38 49.635C224.38 49.635 230.268 47.8629 231.697 56.6664C231.697 56.6664 234.726 56.0947 235.126 59.6962C235.526 63.2978 233.697 65.6988 233.697 65.6988C233.697 65.6988 235.399 66.975 234.626 70.2864C233.969 73.1019 231.64 73.5306 231.64 73.5306C231.64 73.5306 231.011 78.2755 228.953 79.7046C226.895 81.1338 224.094 80.4479 224.094 80.4479C224.094 80.4479 223.351 83.0203 220.95 82.7916C218.55 82.563 215.577 80.2763 212.891 81.3053C210.204 82.3343 203.23 81.248 203.23 81.248C203.23 81.248 195.399 77.761 197.743 69.7576C197.743 69.7576 193.627 66.0418 197.228 61.5829C197.228 61.5829 194.599 54.6086 199.8 50.4925C205.002 46.3767 209.347 47.0053 209.347 47.0053Z" fill="#07345A"/>
<path d="M210.235 84.6523L209.283 91.7153C209.283 91.7153 207.15 101.891 209.894 103.853C212.637 105.815 221.561 91.4251 221.561 91.4251L220.618 73.5278L210.235 84.6523Z" fill="#F7A491"/>
<path d="M220.923 79.328C218.657 85.4324 213.259 89.185 209.428 90.6405L210.235 84.6523L220.618 73.5278L220.923 79.328Z" fill="#F47458"/>
<path d="M214.279 54.7248C208.711 52.8082 202.777 56.5069 201.927 62.2466C201.558 64.7414 201.223 67.8785 201.161 71.3085C201.011 79.5581 205.281 87.5868 209.027 87.5868C212.773 87.5868 223.125 82.2464 223.5 70.5349C223.731 63.3043 220.121 56.7361 214.279 54.7248Z" fill="#F7A491"/>
<path d="M223.434 74.7561C224.922 74.7561 226.129 73.2808 226.129 71.461C226.129 69.6411 224.922 68.1658 223.434 68.1658C221.946 68.1658 220.74 69.6411 220.74 71.461C220.74 73.2808 221.946 74.7561 223.434 74.7561Z" fill="#F7A491"/>
<path d="M198.051 50.62C194.182 53.6854 192.826 58.3429 195.022 61.0232C197.219 63.7032 202.136 63.3909 206.005 60.3257C209.874 57.2603 211.23 52.6026 209.034 49.9225C206.837 47.2425 201.92 47.5548 198.051 50.62Z" fill="#07345A"/>
<path d="M242.684 98.2404C238.013 96.494 235.728 138.44 235.098 155.705C226.827 156.498 212.41 155.711 208.82 155.442C207.132 155.315 203.239 153.894 201.56 153.675C199.839 153.451 198.279 153.334 197.433 153.481C197.123 153.534 188.501 157.048 187.764 157.819C186.849 158.775 184.376 161.185 184.794 162.228C185.211 163.271 189.549 159.323 189.549 159.323L191.67 158.138C189.03 160.708 183.996 164.092 184.721 165.325C185.428 166.527 189.969 163.092 193.206 160.751C190.43 163.25 186.981 167.722 187.776 168.42C188.49 169.046 192.413 163.869 196.606 162.378C198.159 161.825 199.708 163.355 200.93 163.54C201.828 163.676 203.215 163.965 204.096 163.716L208.636 162.433C210.182 162.572 210.221 163.484 211.783 163.815C213.596 164.2 216.57 164.605 218.879 165.167C232.173 168.404 236.607 169.908 240.678 169.905C253.007 169.898 253.722 102.368 242.684 98.2404Z" fill="#F7A491"/>
<path d="M251.548 137.62C252.423 119.935 252.295 98.1381 242.348 94.4192C238.424 92.9519 231.505 101.775 232.749 137.979C238.059 138.416 245.855 138.768 251.548 137.62Z" fill="#592280"/>
<path d="M195.9 130.021H196.914L212.156 167.354L211.106 167.194L195.9 130.021Z" fill="#F79C8D"/>
<path d="M173.182 255.559C173.182 255.559 174.563 259.973 172.09 262.891C169.617 265.81 159.341 268.673 157.992 270.254C156.643 271.835 156.745 273.181 156.745 273.181L185.587 272.39L185.272 263.709L183.944 257.47L173.182 255.559Z" fill="#F7A491"/>
<path d="M170.295 264.347C170.295 264.347 177.706 267.335 181.286 265.565C184.865 263.796 184.757 263.306 185.793 263.966C186.829 264.626 187.2 272.764 187.2 272.764L154.768 273.714C152.511 273.662 151.37 272.006 153.204 270.587C154.461 269.615 155.914 268.964 156.74 268.492C159.277 267.042 170.295 264.347 170.295 264.347Z" fill="#355389"/>
<path d="M174.275 177.671C172.046 172.995 166.976 166.908 158.055 170.574C149.547 174.071 147.264 182.665 149.948 191.466C152.632 200.266 170.304 252 170.92 259.114L185.03 259.207C185.03 259.207 182.466 218.243 181.837 208.341C181.231 198.814 178.133 185.763 174.275 177.671Z" fill="#3C8F7C"/>
<path d="M151.368 130.021H198.534C199.782 130.021 200.906 130.776 201.379 131.93L215.902 167.354H241.905C242.632 167.354 243.222 167.943 243.222 168.669C243.222 169.396 242.632 169.985 241.905 169.985H167.899C165.864 169.985 164.019 168.791 163.186 166.934L148.562 134.357C147.649 132.322 149.137 130.021 151.368 130.021Z" fill="#F49000"/>
<path d="M176.763 150.649C177.081 152.24 178.469 153.304 179.863 153.025C181.256 152.747 182.127 151.231 181.809 149.64C181.49 148.049 180.102 146.985 178.709 147.263C177.316 147.542 176.444 149.058 176.763 150.649Z" fill="white"/>
<path d="M346.483 109.218L348.562 105.842L346.893 105.165C346.527 105.016 346.351 104.6 346.499 104.235C346.648 103.87 347.064 103.694 347.429 103.842L349.354 104.623L351.213 101.59L349.43 100.867C349.064 100.719 348.888 100.303 349.036 99.9374C349.185 99.5722 349.601 99.3961 349.966 99.5443L352.005 100.371L354.163 96.8986C354.347 96.6036 354.716 96.4834 355.037 96.6139L355.349 96.7402C355.757 96.9059 355.919 97.3987 355.689 97.7745L353.682 101.051L356.638 102.25L358.796 98.7776C358.98 98.4826 359.349 98.3623 359.67 98.4929L360.01 98.6306C360.419 98.7963 360.581 99.2891 360.351 99.6651L358.343 102.942L360.013 103.619C360.378 103.767 360.554 104.183 360.406 104.548C360.258 104.914 359.842 105.089 359.476 104.941L357.551 104.161L355.721 107.205L357.504 107.928C357.87 108.076 358.045 108.492 357.897 108.857C357.749 109.223 357.333 109.399 356.968 109.251L354.929 108.424L352.724 112.005C352.542 112.302 352.171 112.423 351.848 112.292L351.484 112.144C351.075 111.979 350.913 111.485 351.145 111.109L353.224 107.732L350.268 106.533L348.063 110.114C347.88 110.411 347.51 110.532 347.187 110.401L346.823 110.254C346.414 110.088 346.252 109.594 346.483 109.218ZM354.016 106.513L355.874 103.481L352.918 102.282L351.06 105.314L354.016 106.513Z" fill="#07345A"/>
<path d="M164.123 17.3709L166.249 12.5734L163.502 8.10276C163.189 7.59358 163.596 6.94664 164.19 7.00795L169.409 7.54693L172.812 3.55287C173.199 3.09798 173.94 3.28502 174.066 3.8694L175.166 8.99991L180.016 11.0022C180.568 11.2302 180.619 11.9928 180.102 12.2924L175.563 14.9243L175.158 20.1558C175.112 20.7517 174.402 21.0359 173.957 20.6367L170.052 17.1328L164.952 18.3639C164.371 18.5042 163.881 17.9172 164.123 17.3709Z" fill="#F48C7F"/>
<path d="M318.085 17.366L319.68 13.7674L317.619 10.4139C317.385 10.032 317.69 9.54668 318.136 9.5927L322.051 9.99705L324.603 7.00107C324.894 6.65975 325.449 6.80015 325.543 7.23835L326.369 11.0867L330.006 12.5885C330.42 12.7596 330.459 13.3315 330.071 13.5565L326.666 15.5305L326.362 19.4547C326.328 19.9016 325.796 20.1149 325.462 19.8155L322.533 17.1872L318.707 18.1106C318.271 18.216 317.904 17.7758 318.085 17.366Z" fill="#F7CC7F"/>
<path d="M302.262 120.181L302.009 117.201L299.411 115.719C299.115 115.55 299.141 115.115 299.455 114.983L302.211 113.821L302.817 110.892C302.886 110.558 303.308 110.448 303.531 110.706L305.487 112.969L308.46 112.641C308.799 112.603 309.034 112.971 308.857 113.262L307.31 115.822L308.541 118.549C308.682 118.859 308.405 119.196 308.073 119.118L305.16 118.437L302.948 120.451C302.696 120.68 302.29 120.521 302.262 120.181Z" fill="#F48C7F"/>
<path d="M63.8066 76.3566L64.9757 73.7177L63.4648 71.2586C63.2927 70.9784 63.5166 70.6226 63.8434 70.6564L66.7141 70.9528L68.586 68.7559C68.7992 68.5056 69.2067 68.6086 69.2756 68.93L69.8808 71.7522L72.5485 72.8535C72.8524 72.9789 72.8805 73.3984 72.5961 73.5633L70.0994 75.011L69.8763 77.8887C69.8509 78.2165 69.4608 78.3729 69.216 78.1533L67.0678 76.2259L64.2622 76.9031C63.9427 76.98 63.6735 76.6573 63.8066 76.3566Z" fill="#F7CC7F"/>
<path d="M154.293 71.5814L155.462 68.9425L153.951 66.4833C153.779 66.2033 154.003 65.8473 154.33 65.8812L157.201 66.1777L159.072 63.9808C159.286 63.7305 159.693 63.8333 159.762 64.1549L160.367 66.977L163.035 68.0784C163.339 68.2038 163.367 68.6233 163.083 68.7882L160.586 70.2359L160.363 73.1136C160.337 73.4414 159.947 73.5977 159.703 73.3782L157.554 71.4508L154.749 72.128C154.429 72.2049 154.16 71.882 154.293 71.5814Z" fill="#50BFA5"/>
<path d="M109.241 28.8323L113.874 28.1603L115.779 35.4957L122.674 35.3484L124.997 40.605L127.657 39.4289L124.551 32.3986L118.016 32.5383L116.035 24.9072L109.063 25.9184L109.241 28.8323Z" fill="#50BFA5"/>
<path d="M99.3076 151.706L102.814 148.604L108.428 153.694L114.114 149.79L118.938 152.912L120.518 150.47L114.066 146.294L108.678 149.994L102.837 144.699L97.5615 149.367L99.3076 151.706Z" fill="#07345A"/>
<path d="M44.2441 155.544L47.1861 150.766L44.8235 149.807C44.3066 149.598 44.0573 149.009 44.2671 148.491C44.4768 147.974 45.0659 147.725 45.5829 147.935L48.3075 149.04L50.9376 144.748L48.4142 143.725C47.8973 143.515 47.648 142.926 47.8578 142.409C48.0674 141.892 48.6564 141.643 49.1735 141.852L52.059 143.023L55.1137 138.108C55.3732 137.691 55.8956 137.52 56.3513 137.705L56.7918 137.884C57.37 138.118 57.5995 138.816 57.2735 139.348L54.4325 143.985L58.6162 145.682L61.6709 140.768C61.9304 140.35 62.4528 140.18 62.9085 140.365L63.3894 140.56C63.9676 140.794 64.1969 141.492 63.8711 142.024L61.0301 146.661L63.3927 147.619C63.9096 147.829 64.1589 148.418 63.9491 148.935C63.7394 149.452 63.1503 149.701 62.6333 149.492L59.9087 148.387L57.3187 152.695L59.8421 153.718C60.3592 153.928 60.6083 154.517 60.3986 155.034C60.189 155.551 59.5998 155.8 59.0829 155.59L56.1973 154.42L53.0771 159.488C52.8185 159.908 52.2944 160.08 51.8373 159.895L51.3221 159.686C50.7431 159.451 50.5139 158.752 50.8415 158.22L53.7836 153.441L49.5998 151.744L46.4798 156.813C46.2212 157.233 45.6971 157.405 45.24 157.219L44.725 157.01C44.1456 156.775 43.9165 156.076 44.2441 155.544ZM54.9046 151.716L57.5349 147.424L53.3513 145.727L50.7211 150.019L54.9046 151.716Z" fill="#50BFA5"/>
<path d="M311.5 216.001C311.201 213.359 310.845 210.655 309.619 208.297C308.127 205.429 305.507 203.36 303.218 201.08C298.94 196.822 295.649 191.574 293.673 185.866C292.146 181.451 291.384 176.748 289.279 172.579C287.993 170.034 286.24 167.758 284.78 165.309C281.329 159.52 279.451 152.679 274.771 147.833C273.87 153.708 275.65 159.941 279.515 164.45C280.667 165.794 282.004 167.006 282.882 168.545C284.476 171.337 284.331 174.745 284.518 177.957C284.869 183.994 286.57 189.948 289.46 195.256C292.531 200.895 296.962 205.916 298.604 212.126C299.834 216.779 299.469 221.998 302.091 226.031C302.375 226.468 302.701 226.907 302.77 227.424C302.81 227.715 302.764 228.009 302.719 228.298C302.66 228.673 302.601 229.048 302.543 229.422C301.946 233.231 301.329 238.077 304.602 240.927C306.869 242.902 309.788 242.946 311.417 240.322C313.057 237.68 312.912 233.814 312.79 230.84C312.587 225.889 312.057 220.923 311.5 216.001Z" fill="#3C8F7C"/>
<path d="M317.394 212.938C316.121 208.53 314.145 204.331 313.155 199.85C312.194 195.504 312.187 191.01 312.184 186.559C312.18 181.681 312.177 176.803 312.173 171.925C312.171 168.888 312.168 165.835 311.666 162.84C310.586 156.396 307.237 150.438 306.67 143.928C306.425 141.113 306.71 138.268 306.4 135.46C306.223 133.855 305.812 132.218 305.069 130.794C304.271 129.264 302.064 129.331 301.34 130.899C299.714 134.424 298.682 138.233 299.339 142.01C299.734 144.275 300.715 146.388 301.447 148.567C304.709 158.271 302.977 169.012 305.501 178.935C306.263 181.93 307.415 184.867 307.549 187.955C307.87 195.346 302.35 202.097 302.857 209.477C303.272 215.528 307.622 220.536 309.447 226.318C310.47 229.555 310.688 233.011 311.783 236.224C312.634 238.72 314.613 241.752 317.686 240.994C320.603 240.275 319.722 237.893 319.592 235.618C319.15 227.923 319.565 220.456 317.394 212.938Z" fill="#327F6B"/>
<path d="M324.072 216.978C323.944 214.687 323.557 212.384 323.877 210.112C324.148 208.193 324.912 206.385 325.457 204.526C326.479 201.043 326.732 197.386 326.98 193.764C327.43 187.179 327.88 180.595 328.329 174.01C329.028 163.774 329.731 153.509 331.645 143.43C332.176 140.632 332.773 137.6 331.515 135.045C331.25 134.507 330.729 133.935 330.157 134.115C329.75 134.242 329.55 134.691 329.402 135.092C325.219 146.461 323.638 158.702 318.969 169.879C317.85 172.557 316.549 175.191 315.97 178.035C315.275 181.451 315.657 184.978 315.746 188.463C315.875 193.46 315.388 198.495 314.009 203.299C313.287 205.813 312.32 208.269 311.925 210.855C311.431 214.078 311.845 217.362 312.154 220.608C312.748 226.85 312.949 233.129 312.756 239.396C312.643 243.08 315.753 242.983 317.812 240.72C319.253 239.137 319.24 237.399 319.733 235.429C321.353 228.96 324.465 223.992 324.072 216.978Z" fill="#3C8F7C"/>
<path d="M304.643 226.968C301.894 222.55 296.415 220.037 294.658 215.137C294.211 213.89 294.036 212.548 293.489 211.341C292.276 208.661 289.517 207.146 286.805 205.913C286.428 205.742 286 206.015 285.994 206.43C285.985 207.089 286.298 207.717 286.844 208.085C288.933 209.492 290.521 211.642 291.228 214.065C292.066 216.937 291.702 220.086 292.744 222.89C293.618 225.245 295.418 227.169 296.263 229.534C297.036 231.696 296.955 234.058 297.318 236.326C297.681 238.593 298.689 240.999 300.77 241.958C308.303 245.429 306.42 229.823 304.643 226.968Z" fill="#327F6B"/>
<path d="M335.972 225.51C335.855 227.647 336.181 229.886 335.346 231.855C334.811 233.115 333.849 234.133 333.059 235.25C330.286 239.172 329.281 244.73 325.02 246.938C324.739 247.084 324.426 247.214 324.114 247.156C323.678 247.075 323.392 246.654 323.216 246.245C322.172 243.811 323.344 241.069 324.038 238.513C324.159 238.065 324.261 237.567 324.048 237.156C323.813 236.703 323.279 236.507 322.914 236.152C322.186 235.444 322.254 234.272 322.399 233.266C322.76 230.752 323.267 228.259 323.918 225.804C324.287 224.412 324.713 223.008 325.516 221.812C326.398 220.497 327.681 219.515 328.881 218.482C334.186 213.917 338.25 207.918 340.525 201.292C341.017 199.858 341.456 198.344 342.473 197.22C343.49 196.097 345.304 195.519 346.542 196.39C347.424 197.011 343.813 202.818 343.393 203.515C342.19 205.505 342.174 207.236 341.494 209.446C339.829 214.861 336.291 219.708 335.972 225.51Z" fill="#3C8F7C"/>
<path d="M331.774 227.98C332.562 225.943 333.356 223.878 333.616 221.708C333.905 219.296 333.522 216.829 333.934 214.434C334.464 211.356 336.258 208.648 337.147 205.654C337.788 203.492 337.946 201.22 338.331 198.998C339.433 192.643 342.421 186.433 341.563 180.04C341.377 178.649 340.749 177.029 339.369 176.792C338.12 176.577 336.983 177.719 336.658 178.947C336.333 180.175 336.575 181.47 336.664 182.736C336.913 186.27 335.905 189.879 333.863 192.769C331.9 195.547 329.052 197.638 327.286 200.545C325.12 204.11 324.825 208.462 323.72 212.487C321.522 220.491 316.008 227.473 315.003 235.713C314.603 238.992 315.373 242.977 318.398 244.287C327.149 248.076 329.791 233.108 331.774 227.98Z" fill="#327F6B"/>
<path d="M316.475 238.138H315.075H296.391C295.018 238.138 294.005 239.423 294.322 240.762L301.643 271.637C301.871 272.597 302.727 273.275 303.712 273.275H315.075H316.475H327.838C328.823 273.275 329.679 272.597 329.907 271.637L337.228 240.762C337.545 239.423 336.532 238.138 335.159 238.138H316.475Z" fill="#F49000"/>
<path d="M114.975 202.002H17.3506V207.045H114.975V202.002Z" fill="#184655"/>
<path d="M82.9421 231.254H19.1152V235.666H82.9421V231.254Z" fill="#184655"/>
<path d="M105.394 204.523H101.276V273.298H105.394V204.523Z" fill="#184655"/>
<path d="M47.156 204.523H43.0381V273.298H47.156V204.523Z" fill="#184655"/>
<path d="M71.9859 273.298L94.1692 205.115L90.533 203.932L67.9648 273.298H71.9859Z" fill="#184655"/>
<path d="M9.58482 273.298L28.5584 204.966L24.874 203.942L5.61621 273.298H9.58482Z" fill="#184655"/>
<path d="M205.634 78.43L212.885 78.3116C212.885 78.3116 212.763 81.0689 209.576 81.2131C205.689 81.3889 205.634 78.43 205.634 78.43Z" fill="white"/>
</g>
<defs>
<clipPath id="clip0_227_548">
<rect width="364" height="277" fill="white"/>
</clipPath>
</defs>
</svg>
