<svg width="25" height="24" viewBox="0 0 25 24" fill="none" xmlns="http://www.w3.org/2000/svg">
<path d="M21.6504 10C21.6504 17 12.6504 23 12.6504 23C12.6504 23 3.65039 17 3.65039 10C3.65039 7.61305 4.5986 5.32387 6.28643 3.63604C7.97426 1.94821 10.2634 1 12.6504 1C15.0373 1 17.3265 1.94821 19.0144 3.63604C20.7022 5.32387 21.6504 7.61305 21.6504 10Z" stroke="#5D178F" stroke-linecap="round" stroke-linejoin="round"/>
<path d="M12.6504 13C14.3072 13 15.6504 11.6569 15.6504 10C15.6504 8.34315 14.3072 7 12.6504 7C10.9935 7 9.65039 8.34315 9.65039 10C9.65039 11.6569 10.9935 13 12.6504 13Z" stroke="#5D178F" stroke-linecap="round" stroke-linejoin="round"/>
</svg>
