<svg width="655" height="656" viewBox="0 0 655 656" fill="none" xmlns="http://www.w3.org/2000/svg">
<circle opacity="0.1" cx="302" cy="306" r="302" fill="#50137C"/>
<circle opacity="0.1" cx="442" cy="328" r="328" fill="#F2A422"/>
<circle opacity="0.2" cx="242" cy="462" r="179" fill="#541481"/>
<g opacity="0.54">
<path d="M434.57 323.801C434.05 323.382 433.524 322.973 432.996 322.574L345.05 410.52C345.45 411.05 345.857 411.576 346.276 412.095L434.57 323.801Z" fill="#939393"/>
<path d="M413.083 312.51C412.356 312.295 411.622 312.096 410.887 311.907L334.382 388.411C334.571 389.147 334.77 389.88 334.987 390.61L413.083 312.51Z" fill="#939393"/>
<path d="M428.177 319.269C427.596 318.91 427.009 318.563 426.421 318.225L340.7 403.945C341.038 404.534 341.386 405.12 341.744 405.7L428.177 319.269Z" fill="#939393"/>
<path d="M421.045 315.476C420.395 315.183 419.745 314.9 419.088 314.63L337.105 396.613C337.375 397.27 337.657 397.921 337.951 398.57L421.045 315.476Z" fill="#939393"/>
<path d="M404.116 310.552C403.284 310.433 402.453 310.334 401.618 310.248L332.725 379.143C332.81 379.977 332.91 380.809 333.028 381.641L404.116 310.552Z" fill="#939393"/>
<path d="M439.586 328.308C439.352 328.074 439.114 327.847 438.877 327.617L350.092 416.402C350.323 416.638 350.55 416.877 350.783 417.111C351.018 417.345 351.255 417.572 351.493 417.803L440.278 329.018C440.049 328.782 439.821 328.543 439.586 328.308Z" fill="#939393"/>
<path d="M393.812 309.934C392.833 309.954 391.855 310 390.878 310.066L332.541 368.401C332.475 369.378 332.429 370.357 332.409 371.335L393.812 309.934Z" fill="#939393"/>
<path d="M333.927 358.893L381.368 311.452C380.103 311.734 378.844 312.059 377.597 312.422L334.897 355.12C334.534 356.369 334.211 357.628 333.927 358.893Z" fill="#939393"/>
<path d="M457.827 377.018C457.895 376.041 457.939 375.061 457.961 374.083L396.559 435.486C397.538 435.465 398.516 435.42 399.495 435.354L457.827 377.018Z" fill="#939393"/>
<path d="M457.646 366.276C457.561 365.443 457.461 364.609 457.343 363.778L386.253 434.866C387.084 434.985 387.918 435.084 388.751 435.17L457.646 366.276Z" fill="#939393"/>
<path d="M363.292 318.603C358.827 321.239 354.62 324.473 350.785 328.31C346.95 332.145 343.714 336.354 341.078 340.817L363.292 318.603Z" fill="#939393"/>
<path d="M455.473 390.298C455.836 389.05 456.159 387.792 456.443 386.526L409.001 433.968C410.267 433.685 411.525 433.361 412.773 432.998L455.473 390.298Z" fill="#939393"/>
<path d="M427.078 426.817C431.542 424.181 435.75 420.946 439.585 417.111C443.42 413.276 446.656 409.067 449.291 404.604L427.078 426.817Z" fill="#939393"/>
<path d="M449.67 341.475C449.332 340.886 448.984 340.299 448.625 339.719L362.195 426.15C362.774 426.51 363.361 426.858 363.95 427.195L449.67 341.475Z" fill="#939393"/>
<path d="M445.322 334.899C444.921 334.369 444.513 333.843 444.093 333.325L355.801 421.618C356.32 422.037 356.846 422.445 357.374 422.845L445.322 334.899Z" fill="#939393"/>
<path d="M455.988 357.007C455.799 356.271 455.601 355.538 455.383 354.81L377.286 432.908C378.015 433.125 378.749 433.324 379.483 433.513L455.988 357.007Z" fill="#939393"/>
<path d="M453.265 348.807C452.996 348.151 452.714 347.499 452.42 346.851L369.326 429.944C369.974 430.238 370.625 430.519 371.282 430.788L453.265 348.807Z" fill="#939393"/>
</g>
</svg>
