<svg width="354" height="269" viewBox="0 0 354 269" fill="none" xmlns="http://www.w3.org/2000/svg">
<path d="M49.6855 97.9708C53.5054 98.2166 58.1235 99.2631 59.8655 103.126C64.4332 115.41 63.7966 128.713 64.5878 141.58C64.797 146.46 66.2319 151.159 67.6654 155.795C68.33 157.712 69.0086 159.798 70.6387 161.126C72.4297 162.58 74.7594 163.008 76.9561 163.472C86.2889 165.192 95.8245 164.976 105.269 164.82C110.95 164.757 116.511 163.443 122.088 162.524C124.452 164.658 125.6 167.791 125.081 170.959L124.823 171.352C124.501 171.682 123.865 172.342 123.543 172.666C122.647 172.63 121.766 172.63 120.877 172.56C119.358 172.23 117.847 171.872 116.344 171.5C110.587 168.747 104.178 167.777 97.8603 167.461C92.0179 167.096 86.065 166.808 80.3282 168.22C77.2563 168.902 73.7093 169.827 70.8479 167.988C67.3639 165.797 66.0493 161.597 64.7893 157.903C60.5154 145.042 61.4872 131.284 59.557 118.03C58.0738 110.557 53.3935 104.418 49.6855 97.9708Z" fill="#582866"/>
<path d="M126.845 120.53C138.473 120.403 150.1 120.516 161.735 120.495C179.442 120.537 197.142 120.452 214.849 120.537C221.978 120.558 229.107 120.473 236.236 120.487C237.054 120.487 237.873 120.48 238.691 120.48C239.027 120.48 239.685 120.466 240.013 120.466C241.909 120.459 243.813 120.473 245.715 120.473C247.338 120.466 248.961 120.48 250.592 120.495C255.825 120.502 261.065 120.495 266.298 120.48C272.944 120.636 279.583 120.397 286.229 120.473C286.229 122.729 286.222 124.989 286.208 127.245C281.507 127.252 276.806 127.252 272.104 127.231C271.734 127.238 270.985 127.245 270.607 127.245C270.124 127.245 269.165 127.245 268.683 127.245C266.039 127.224 263.401 127.238 260.764 127.238C259.616 127.224 258.47 127.209 257.329 127.189C255.65 127.146 253.971 127.139 252.292 127.153L251.194 127.16C250.403 127.174 249.62 127.196 248.843 127.216C247.619 127.245 246.395 127.265 245.17 127.265C243.589 127.251 242.002 127.209 240.428 127.202C240.092 127.202 239.42 127.209 239.084 127.209C238.63 127.216 237.72 127.238 237.265 127.245C230.367 127.245 223.469 127.231 216.57 127.238C205.174 127.245 193.784 127.245 182.388 127.238C176.414 127.224 170.446 127.279 164.472 127.216C163.275 127.196 162.079 127.168 160.883 127.146C158.336 127.118 155.789 127.202 153.242 127.224C144.519 127.111 135.752 127.546 127.056 127.012C126.705 124.87 126.831 122.686 126.845 120.53Z" fill="#582866"/>
<path d="M237.145 186.825C244.462 187.372 251.787 188.034 259.133 187.858C260.043 192.1 261.065 196.314 262.002 200.557C254.16 200.823 246.309 200.359 238.579 199.04C238.088 194.965 237.732 190.878 237.145 186.825Z" fill="#582866"/>
<path d="M262.471 187.822C265.584 187.717 268.69 187.52 271.789 187.268C272.712 191.258 273.706 195.233 274.686 199.215C271.566 199.706 268.431 200.086 265.297 200.401C264.408 196.194 263.38 192.022 262.471 187.822Z" fill="#582866"/>
<path d="M238.823 201.266C246.617 202.797 254.571 203 262.483 202.79C263.917 209.209 265.366 215.622 266.821 222.035C260.314 221.943 253.801 222.138 247.295 221.963C243.769 222.055 240.886 219.154 240.313 215.783C239.803 210.944 239.348 206.104 238.823 201.266Z" fill="#582866"/>
<path d="M265.794 202.592C268.942 202.326 272.076 201.912 275.196 201.399C275.504 203.091 275.49 204.827 275.364 206.54C274.811 210.466 274.951 214.505 273.832 218.339C272.74 219.617 271.447 220.699 270.138 221.747C268.655 215.369 267.228 208.976 265.794 202.592Z" fill="#582866"/>
<path d="M298.598 214.322C305.545 214.624 312.499 214.61 319.446 214.329C319.195 216.218 319.033 218.129 318.817 220.031C312.275 220.06 305.734 219.982 299.2 220.06C299.087 218.136 298.843 216.225 298.598 214.322Z" fill="#582866"/>
<path d="M299.885 226.227C305.999 226.227 312.114 226.249 318.229 226.213C318.208 228.734 317.291 231.881 314.423 232.379C310.785 232.955 306.979 233.032 303.363 232.288C300.703 231.614 299.913 228.635 299.885 226.227Z" fill="#582866"/>
<path d="M314.269 174.288C313.955 173.079 315.494 172.44 316.277 173.291C315.955 173.55 315.312 174.077 314.989 174.336L314.269 174.288Z" fill="#501D60"/>
<path d="M275.14 187.084C275.657 187.021 276.7 186.881 277.224 186.818C277.134 187.914 277.057 189.016 276.98 190.125C276.847 190.913 276.706 191.699 276.559 192.486C276.05 190.695 275.581 188.889 275.14 187.084Z" fill="#501D60"/>
<path d="M299.466 221.332C305.853 221.353 312.248 221.443 318.642 221.303C318.53 222.089 318.446 222.884 318.39 223.678C317.67 223.066 316.956 222.456 316.249 221.844C315.795 222.357 315.339 222.87 314.892 223.39C314.444 222.835 313.997 222.28 313.556 221.732C313.003 222.287 312.45 222.849 311.905 223.411C311.64 222.983 311.094 222.126 310.82 221.698C310.219 222.259 309.624 222.822 309.036 223.391C308.778 222.955 308.261 222.098 308.002 221.662C307.406 222.238 306.819 222.815 306.238 223.398C305.979 222.962 305.462 222.098 305.203 221.662C304.608 222.232 304.014 222.808 303.419 223.384C303.188 222.99 302.72 222.211 302.481 221.818C301.586 222.464 300.641 223.644 299.613 222.457C299.578 222.174 299.501 221.612 299.466 221.332Z" fill="#501D60"/>
<path d="M181.604 15.4721C183.429 13.2456 186.585 13.365 189.195 13.2674C199.004 13.2878 208.819 13.3018 218.62 13.7513C226.889 14.2289 235.32 15.0366 243.058 18.2323C252.09 21.9407 259.247 29.9335 262.031 39.3176C254.153 43.0119 246.66 47.6264 240.057 53.3287C237.363 52.5632 234.558 52.9776 232.585 55.0572C233.508 56.0749 234.438 57.0933 235.313 58.1616L234.536 59.074C233.676 58.3295 232.823 57.5786 231.955 56.8405C232.403 58.0907 232.879 59.3268 233.368 60.5636C230.094 65.6479 227.961 71.5407 228.289 77.6659C227.023 78.2277 225.764 78.7959 224.497 79.3374C222.126 79.9555 219.733 80.4682 217.334 80.9458C216.228 82.3856 215.172 83.8676 214.234 85.4345C213.01 84.577 211.807 83.7061 210.617 82.8078C210.17 85.6656 209.491 88.4827 208.714 91.2704C209.365 90.7794 210.659 89.7891 211.31 89.2975C208.917 91.7199 207.189 94.6697 205.125 97.3527C200.71 103.203 196.408 109.124 191.98 114.954C191.315 115.684 190.644 116.436 189.832 117.005C186.684 117.399 183.501 117.033 180.345 117.089L181.024 116.69C181.331 116.506 181.941 116.134 182.248 115.952C183.445 115.839 185.222 116.731 185.753 115.164C184.424 112.559 182.241 110.389 179.617 109.124C179.463 103.12 179.442 96.8337 182.283 91.3624C184.767 86.3335 188.811 82.1265 193.729 79.4575C197.521 78.088 201.55 77.4629 205.579 77.7094C192.532 62.5653 185.76 43.1102 181.492 23.8371C181.009 21.1267 179.806 17.9528 181.604 15.4721Z" fill="#1EB6A9"/>
<path d="M307.203 76.2752C312.674 77.996 316.508 82.9054 318.313 88.1948C322.65 100.437 322.077 113.781 319.985 126.41C319.615 128.151 319.573 130.237 318.138 131.502C316.445 132.772 314.326 131.712 312.59 131.108C304.929 127.898 297.122 124.948 289.846 120.91C286.348 119.005 283.157 116.568 280.457 113.632C290.454 110.935 298.948 103.336 303.005 93.8059C305.37 88.2503 306.518 82.2515 307.203 76.2752Z" fill="#1EB6A9"/>
<path d="M215.423 119.758C221.81 110.83 228.044 101.805 234.396 92.8577C235.893 95.1326 237.348 97.5705 237.593 100.351C238.138 105.718 236.229 111.014 233.353 115.466C229.071 113.99 225.217 116.815 222.04 119.329C220.18 120.98 217.557 120.509 215.423 119.758Z" fill="#1EB6A9"/>
<path d="M269.383 113.851C269.949 113.935 270.523 114.019 271.104 114.09C271.461 116.134 271.831 118.177 272.216 120.221C271.531 120.165 270.845 120.116 270.166 120.066C270.369 117.952 269.984 115.866 269.383 113.851Z" fill="#1EB6A9"/>
<path d="M182.388 127.238C193.784 127.245 205.173 127.245 216.57 127.238C216.066 129.225 215.548 131.22 215.241 133.257C209.148 137.512 202.648 141.172 195.918 144.326C193.805 145.231 191.706 146.552 189.335 146.503C187.075 146.328 186.054 143.912 185.557 142.001C184.403 137.105 183.52 132.141 182.388 127.238Z" fill="#1EB6A9"/>
<path d="M270.607 127.245C270.985 127.245 271.734 127.238 272.104 127.231C270.32 136.965 269.929 146.904 267.977 156.602C267.285 154.6 267.166 152.479 267.551 150.401C268.704 142.703 269.236 134.914 270.607 127.245Z" fill="#1EB6A9"/>
<path d="M246.016 130.243C246.68 132.35 247.17 134.506 247.541 136.684C247.303 149.396 249.157 162.053 251.123 174.583C251.592 177.483 251.998 180.392 252.452 183.285C252.991 179.43 253.431 175.538 253.326 171.633C253.27 168.318 253.2 165.009 253.054 161.702C253.214 161.806 253.536 162.017 253.697 162.13C253.921 164.483 254.341 166.814 254.796 169.139C254.915 174.392 254.55 179.639 253.872 184.85C253.033 184.823 252.193 184.794 251.368 184.766C250.864 182.034 250.332 179.309 249.849 176.577C247.597 162.762 246.148 148.812 245.764 134.822C245.785 133.291 245.932 131.767 246.016 130.243Z" fill="#1EB6A9"/>
<path d="M102.772 141.109C109.908 141.481 116.981 142.619 124.11 143.138C132.491 143.784 140.816 145.091 149.218 145.589C146.659 156.427 144.21 167.299 141.607 178.129C140.648 179.507 139.621 180.835 138.676 182.217C132.995 190.343 127.93 198.87 123.201 207.58C121.97 210.016 119.78 212.411 116.765 211.674C113.882 209.982 111.406 207.48 110.153 204.334C109.986 203.843 109.636 202.859 109.461 202.368C112.42 198.337 115.506 194.305 117.205 189.542C119.375 183.333 121.145 176.892 124.825 171.351L125.083 170.958C127.399 167.496 129.946 164.181 132.778 161.125C134.199 160.472 135.626 159.811 137.032 159.124C126.895 156.841 116.855 160.991 106.704 160.724C97.7492 160.999 88.5704 159.544 80.5676 155.372C79.3433 154.494 77.2585 153.631 77.4894 151.84C82.7924 148.293 89.4946 148.229 95.5042 146.698C98.5747 145.891 100.785 143.441 102.772 141.109Z" fill="#1EB6A9"/>
<path d="M152.284 146.924C155.187 149.087 155.768 152.767 156.125 156.139L156.118 156.385C153.011 160.649 150.416 165.27 147.127 169.406C148.709 161.885 150.548 154.418 152.284 146.924Z" fill="#1EB6A9"/>
<path d="M265.604 162.299C266.563 165.03 267.262 167.855 267.48 170.748C266.878 175.488 265.954 180.195 264.402 184.718C264.067 184.738 263.38 184.788 263.038 184.81L263.15 184.304C264.598 178.846 266.123 173.312 265.941 167.616C264.563 173.073 263.548 178.622 261.771 183.966C261.575 183.074 261.407 182.176 261.268 181.283C262.639 174.941 264.255 168.648 265.604 162.299Z" fill="#1EB6A9"/>
<path d="M299.872 184.275C300.488 182.147 300.662 179.928 301.068 177.764C303.258 181.831 303.244 186.565 303.979 191.018C304.021 191.72 304.475 192.289 304.853 192.851C308.001 195.428 309.771 199.516 309.89 203.554C310.303 205.05 310.75 206.525 311.198 208.007C308.904 208.084 306.602 208.028 304.321 207.846C303.698 207.15 303.089 206.47 302.446 205.815C303.467 203.084 304.321 200.182 303.698 197.247L303.607 196.678C303.18 194.775 303.026 191.657 300.459 191.664C298.514 191.263 297.5 193.292 296.485 194.564C297.241 192.556 296.457 190.603 295.345 188.924C296.983 187.541 298.983 186.319 299.872 184.275ZM299.913 186.109C299.521 187.253 299.899 187.653 301.04 187.302C301.425 186.15 301.054 185.757 299.913 186.109ZM297.15 189.781C297.542 190.118 297.542 190.118 297.15 189.781V189.781ZM304.782 204.539C304.377 205.676 304.747 206.07 305.902 205.732C306.294 204.587 305.916 204.188 304.782 204.539Z" fill="#1EB6A9"/>
<path d="M317.215 188.174C320.853 185.848 320.755 181.164 323.063 177.884C324.708 181.13 325.198 184.964 324.343 188.511C323.302 191.321 321.447 193.716 319.951 196.279C319.048 196.483 318.565 197.046 318.495 197.964C317.956 199.278 317.271 200.522 316.641 201.793C314.794 197.059 311.59 193.055 307.421 190.175C306.791 190.182 305.532 190.182 304.901 190.182C304.957 189.29 305.041 188.406 305.168 187.528C306.952 188.771 308.833 189.944 310.995 190.387C309.988 192.143 313.339 192.192 312.346 190.414C313.92 190.106 315.298 189.27 316.655 188.455C315.585 190.006 318.202 189.459 317.215 188.174ZM321.56 181.965C321.93 182.303 321.93 182.303 321.56 181.965V181.965ZM316.026 193.259C314.892 195.316 318.355 193.441 316.026 193.259V193.259Z" fill="#1EB6A9"/>
<path d="M262.03 39.3176C274.685 33.4874 288.181 29.6111 301.871 27.1943C304.964 26.4498 308.036 28.8027 308.392 31.9141C309.007 37.1255 308.434 42.4072 308.581 47.6538C308.455 57.2057 308.266 66.7724 307.202 76.2745C306.517 82.2515 305.369 88.2503 303.005 93.8059C298.947 103.335 290.455 110.935 280.457 113.632C277.393 114.321 274.217 114.406 271.103 114.089C270.523 114.019 269.949 113.934 269.382 113.85C265.528 113.197 260.763 112.074 259.147 108.013C257.908 103.764 260.574 99.7604 262.547 96.2072C262.736 95.8834 263.114 95.2239 263.31 94.8931C264.792 92.2593 266.534 89.5208 266.549 86.3884C266.577 84.2813 264.876 82.8555 263.561 81.4649C267.556 77.8969 273.265 75.9297 278.526 77.4966C284.739 79.3929 289.377 84.3874 293.028 89.5489C294.609 91.656 295.456 94.4654 297.891 95.7998C296.96 91.7255 294.148 88.4884 291.671 85.2646C287.431 80.1367 281.527 75.4949 274.594 75.4738C269.284 75.4387 264.659 78.4658 260.728 81.7388C259.279 82.6167 257.852 83.5509 256.649 84.7519C256.46 84.9204 256.271 85.089 256.096 85.2646C251.927 89.3663 247.554 94.9149 241.006 94.1767C240.089 92.0556 238.984 90.0328 237.76 88.0873C240.306 84.3572 242.944 80.6846 245.56 76.9972C244.371 75.8103 242.965 74.7357 241.258 75.6557C235.661 76.8294 230.092 78.135 224.495 79.3361C225.762 78.7945 227.021 78.2263 228.287 77.6645C227.958 71.5393 230.092 65.6473 233.366 60.5622C233.744 60.0558 234.129 59.5572 234.534 59.0726L235.311 58.1602C236.836 56.4949 238.424 54.8873 240.054 53.3273C246.659 47.6271 254.151 43.0119 262.03 39.3176Z" fill="#1D7287"/>
<path d="M250.494 113.738C256.503 112.733 262.877 115.403 266.298 120.48C261.065 120.495 255.825 120.502 250.591 120.495C249.843 118.297 249.829 115.958 250.494 113.738Z" fill="#1D7287"/>
<path d="M222.041 119.329C225.217 116.815 229.072 113.99 233.353 115.466C234.696 116.898 235.522 118.683 236.236 120.487C229.107 120.473 221.978 120.558 214.849 120.536C214.996 120.346 215.282 119.953 215.422 119.757C217.556 120.509 220.18 120.98 222.041 119.329Z" fill="#1D7287"/>
<path d="M216.569 127.238C223.467 127.231 230.365 127.245 237.263 127.245C237.97 128.656 238.795 129.998 239.803 131.22C239.58 129.879 239.334 128.543 239.082 127.209C239.418 127.209 240.09 127.202 240.426 127.202C240.748 128.838 241.105 130.475 241.461 132.111C243.644 131.684 244.875 129.921 245.309 127.821C245.547 128.628 245.777 129.435 246.015 130.243C245.931 131.767 245.784 133.291 245.764 134.822C246.149 148.813 247.597 162.763 249.85 176.578C248.465 178.066 247.31 180.097 245.225 180.659C242.742 180.806 241.084 178.594 239.566 176.957C233.15 169.309 226.42 161.864 220.963 153.478C217.087 147.55 214.219 140.47 215.24 133.258C215.548 131.22 216.065 129.225 216.569 127.238Z" fill="#1D7287"/>
<path d="M252.291 127.153C253.969 127.139 255.649 127.146 257.327 127.189C259.259 135.954 261.672 144.599 263.617 153.365C262.407 155.915 261.14 158.443 259.79 160.929C258.468 152.46 256.824 144.039 254.781 135.723C254.096 132.828 253.473 129.899 252.291 127.153Z" fill="#1D7287"/>
<path d="M260.763 127.238C263.401 127.238 266.038 127.224 268.682 127.245C269.459 134.113 267.913 140.941 265.905 147.458C263.695 140.856 262.547 133.959 260.763 127.238Z" fill="#1D7287"/>
<path d="M247.541 136.684C249.416 145.013 251.564 153.294 253.054 161.702C253.201 165.009 253.271 168.318 253.327 171.633C252.585 172.61 251.858 173.6 251.124 174.583C249.157 162.053 247.303 149.396 247.541 136.684Z" fill="#1D7287"/>
<path d="M70.687 140.013C74.4236 141.551 78.3554 142.584 82.3634 143.082C88.5689 143.96 95.2642 144.115 100.945 141.06C101.4 141.074 102.317 141.096 102.772 141.109C100.784 143.441 98.574 145.891 95.502 146.699C89.4924 148.23 82.7902 148.294 77.4872 151.84C77.2563 153.632 79.3411 154.495 80.5655 155.372C88.5682 159.545 97.7478 161 106.702 160.725C116.853 160.991 126.893 156.842 137.03 159.124C135.624 159.812 134.197 160.473 132.776 161.126C129.251 161.842 125.641 161.948 122.087 162.524C116.51 163.443 110.949 164.757 105.269 164.82C95.8238 164.976 86.2882 165.192 76.9555 163.472C74.9686 161.119 72.8208 158.815 71.6035 155.942C69.2605 150.969 69.4914 145.254 70.687 140.013Z" fill="#1D7287"/>
<path d="M304.901 190.182C305.531 190.182 306.79 190.182 307.42 190.175C311.59 193.054 314.794 197.058 316.641 201.792C315.662 203.717 314.941 205.759 314.235 207.804C313.221 207.875 312.206 207.959 311.198 208.008C310.751 206.527 310.303 205.05 309.891 203.555C309.771 199.517 308.002 195.429 304.854 192.851C304.853 191.96 304.873 191.067 304.901 190.182ZM311.659 197.536C310.66 199.663 313.996 197.55 311.659 197.536V197.536Z" fill="#1D7287"/>
<path d="M103.037 30.6849C106.256 28.3187 110.432 28.0799 114.23 28.8385C112.369 29.3793 110.439 29.6384 108.543 30.0388C106.312 30.4609 104.737 32.2723 103.387 33.9649C98.8391 39.9426 95.3621 46.7905 93.5571 54.109C92.7532 57.1649 92.2845 60.4372 90.4508 63.0991C88.1219 66.5476 84.5679 69.0901 82.8538 72.9812C80.6011 77.9959 79.8805 83.6709 80.3562 89.1282C81.2664 94.957 85.5053 100.351 91.1728 102.163C91.4457 102.023 91.9837 101.735 92.2565 101.595L92.5301 101.44C94.0482 101.748 95.5733 102.05 97.0915 102.374C94.3078 102.725 91.4744 102.887 88.6892 102.45C87.1711 102.099 85.6739 101.636 84.2467 101.025C83.3722 100.604 82.518 100.14 81.6582 99.6908C79.3992 102.795 77.2647 106.307 73.6897 108.035C71.479 108.189 69.3025 107.684 67.3506 106.645C69.4074 106.118 71.947 105.999 73.221 104.025C74.3466 102.431 73.8576 100.423 73.4938 98.6668C72.6753 95.0841 71.9344 91.3624 72.6543 87.7031C73.0321 85.0841 74.4173 82.7867 75.3338 80.3495C75.9144 78.2066 75.9571 75.9739 76.2363 73.7818C76.4112 67.4684 80.5668 62.3054 84.9254 58.1623C87.2138 56.0896 89.6687 53.793 90.2004 50.5832C91.2834 42.4563 96.5024 35.3633 103.037 30.6849Z" fill="#1E1E1E"/>
<path d="M87.9395 89.6128C89.1155 85.9816 92.6905 83.8746 96.1255 82.7719C95.5232 83.383 94.9285 83.994 94.3338 84.605C94.1869 84.7729 93.8791 85.0967 93.7252 85.2589L93.4943 85.5111C91.6684 86.9158 89.7661 88.2151 87.9395 89.6128Z" fill="#1E1E1E"/>
<path d="M114.231 28.8392C117.694 29.288 120.193 31.992 123.459 32.9613C126.118 33.8041 128.937 35.2018 130.133 37.8918C131.372 40.5614 130.364 43.4761 130.371 46.2645C130.861 47.5083 131.784 48.505 132.569 49.5725C130.708 49.1371 128.833 48.7438 126.951 48.3926C125.062 47.0223 124.565 44.6343 123.67 42.6186C122.431 43.7915 121.13 45.0768 119.297 45.0698C116.653 45.0417 115.246 47.5982 114.617 49.831C114.232 51.1943 113.918 52.5772 113.588 53.9545C112.463 53.1328 111.329 52.3251 110.174 51.5525C109.859 53.7993 109.307 56.0257 109.265 58.3013C109.433 59.8613 111.105 60.2047 112.252 60.7736C109.88 64.3907 107.124 67.7409 104.802 71.3868C102.087 75.3052 99.2534 79.1759 96.1275 82.7712C92.6925 83.8739 89.1168 85.981 87.9415 89.6121C87.011 91.965 86.8998 94.6479 87.5777 97.0858C88.2283 99.3326 90.4747 100.393 92.2573 101.595C91.9845 101.735 91.4465 102.023 91.1736 102.163C85.5061 100.351 81.2672 94.957 80.3571 89.1282C79.8813 83.6702 80.6026 77.9952 82.8546 72.9812C84.5687 69.0901 88.1227 66.5476 90.4517 63.0991C92.2853 60.4372 92.7541 57.1649 93.5579 54.109C95.3629 46.7905 98.8399 39.9426 103.387 33.9649C104.738 32.2723 106.312 30.4609 108.544 30.0388C110.439 29.6384 112.37 29.3793 114.231 28.8392Z" fill="#534F4E"/>
<path d="M119.297 45.0698C121.13 45.0768 122.431 43.7915 123.669 42.6186C124.565 44.6343 125.061 47.0223 126.95 48.3926L126.306 48.2873C124.047 48.0204 121.829 47.3735 119.548 47.3461C117.729 47.7675 116.211 48.9264 114.616 49.8317C115.245 47.5982 116.652 45.0417 119.297 45.0698Z" fill="#F8AB81"/>
<path d="M110.152 204.335C111.405 207.481 113.881 209.982 116.764 211.675C116.54 211.983 116.085 212.601 115.854 212.911C112.28 212.321 108.627 210.951 104.99 211.786C102.925 212.229 101.162 214.077 101.184 216.261C101.576 223.214 104.892 229.654 105.06 236.643C105.249 238.419 105.136 240.864 107.047 241.755C110.209 243.049 113.693 242.837 117.036 242.964C117.211 243.168 117.561 243.576 117.736 243.779C116.043 247.185 111.797 246.16 108.746 245.978C106.683 246.025 105.535 244.094 104.597 242.564C104.276 241.665 103.996 240.759 103.751 239.853C103.568 239.088 103.422 238.316 103.297 237.55C103.241 237.03 103.129 235.99 103.073 235.471C102.849 231.713 102.275 227.906 100.589 224.508C99.3161 221.964 97.9721 219.45 96.9717 216.789C97.0346 215.188 96.9017 213.495 97.5174 211.992C99.1622 209.673 102.247 209.498 104.703 208.585C107.033 207.966 108.614 206.056 110.152 204.335Z" fill="#F8AB81"/>
<path d="M154.48 225.146C154.62 225.005 154.894 224.739 155.026 224.604C155.089 226.101 154.921 227.667 155.418 229.114C157.6 235.084 162.729 240.049 168.99 241.426C172.306 242.009 175.685 241.181 179.029 241.665C179.162 242.543 179.303 243.428 179.456 244.313C178.008 246.069 176.084 247.46 173.726 247.481C169.942 246.301 165.94 246.035 162.169 244.784C158.874 243.773 155.656 242.164 152.129 242.283C150.129 242.073 147.26 242.859 146.168 240.598C144.874 237.445 146.308 233.877 148.253 231.32C150.003 228.874 153.871 228.439 154.48 225.146Z" fill="#F8AB81"/>
<path d="M119.548 47.3454C121.829 47.3728 124.047 48.0197 126.306 48.2865C125.684 49.9933 124.914 51.6656 124.55 53.4551C124.34 55.4786 125.873 57.4101 125.229 59.4399C124.487 61.6874 122.844 63.4636 121.43 65.3052C120.023 67.0323 118.814 68.9497 117.1 70.3972C115.316 70.242 113.658 69.5193 111.993 68.9363C111.278 70.4956 110.594 72.0681 109.858 73.614C109.719 73.8731 109.445 74.3999 109.313 74.6598C107.669 73.7748 106.15 72.6799 104.801 71.3875C107.123 67.7416 109.88 64.3914 112.251 60.7743C111.104 60.2054 109.432 59.862 109.264 58.3021C109.306 56.0264 109.858 53.8 110.173 51.5532C111.327 52.3258 112.461 53.1335 113.587 53.9552C113.917 52.5779 114.231 51.195 114.616 49.8317C116.211 48.9257 117.729 47.7668 119.548 47.3454Z" fill="#FFC699"/>
<path d="M130.805 100.029C131.875 102.858 133.477 105.718 136.094 107.36C144.664 108.457 153.297 109.208 161.937 109.636C165.833 110.036 169.262 107.509 173.124 107.578C175.377 107.585 177.531 108.344 179.615 109.123C182.239 110.388 184.422 112.558 185.752 115.163C185.22 116.729 183.443 115.838 182.247 115.95C181.939 116.133 181.329 116.504 181.022 116.688C170.465 114.04 159.817 117.2 149.316 118.451C143.111 119.385 136.807 120.178 130.526 119.673C126.663 119.201 125.068 115.003 121.927 113.218C123.837 108.169 127.433 104.13 130.805 100.029Z" fill="#FFC699"/>
<path d="M104.989 211.786C108.627 210.951 112.279 212.321 115.854 212.911C115.245 213.746 114.629 214.582 114.049 215.446C112.425 218.241 112.782 221.619 112.195 224.703C111.391 229.092 111.762 233.567 112.307 237.971C112.342 238.273 112.405 238.876 112.439 239.186C112.481 239.698 112.566 240.723 112.607 241.237C113.573 241.244 114.538 241.257 115.51 241.271L116.126 241.924C116.357 242.185 116.811 242.705 117.035 242.964C113.692 242.837 110.207 243.049 107.045 241.755C105.136 240.863 105.248 238.419 105.059 236.643C104.891 229.655 101.575 223.214 101.183 216.261C101.163 214.077 102.925 212.229 104.989 211.786Z" fill="#FFC699"/>
<path d="M96.1257 82.7719C99.2522 79.1766 102.086 75.306 104.8 71.3875C106.15 72.6799 107.669 73.7748 109.313 74.6598C112.481 76.0722 112.446 80.0545 114.643 82.3709C116.127 84.0565 117.652 85.7 119.148 87.3793C122.877 91.7409 127.558 95.2597 130.804 100.029C127.432 104.13 123.836 108.169 121.926 113.218C121.128 112.811 120.324 112.425 119.54 112.003C117.82 110.985 116.091 109.974 114.42 108.878C114.867 106.976 115.309 105.072 115.756 103.169C114.678 104.349 113.601 105.528 112.517 106.708C111.103 104.995 109.816 103.182 108.41 101.461C106.185 98.7434 102.771 97.2755 100.756 94.3467C98.5316 91.165 96.5098 87.8288 94.334 84.6051C94.9286 83.994 95.5233 83.383 96.1257 82.7719Z" fill="#FDB218"/>
<path d="M93.4956 85.5111L93.7265 85.2589C95.2166 90.3433 97.4973 95.1754 100.667 99.4253C104.116 104.144 105.004 110.024 106.466 115.537C104.585 119.575 103.766 124.048 103.744 128.494C103.787 131.522 104.381 134.507 104.521 137.534C103.345 138.727 102.199 139.95 100.946 141.06C95.2656 144.115 88.5704 143.96 82.3642 143.082C80.4123 141.278 77.5999 139.817 77.2221 136.902C75.6333 130.025 78.8242 123.396 81.3987 117.207C83.6235 112.193 85.6453 107.045 88.6886 102.451C91.473 102.887 94.3064 102.726 97.0909 102.375C95.5727 102.051 94.0476 101.749 92.5294 101.44C93.7607 100.724 94.992 99.9928 96.2303 99.2771C94.4393 98.0768 91.4933 97.2754 91.5003 94.6557C91.6276 91.5162 92.7743 88.5389 93.4956 85.5111Z" fill="#FDB218"/>
<path d="M241.259 75.6571C242.966 74.737 244.372 75.8116 245.561 76.9986C242.945 80.6859 240.307 84.3585 237.761 88.0887C237.068 89.0994 236.382 90.1115 235.669 91.1018C235.243 91.6848 234.815 92.2677 234.396 92.8577C228.044 101.805 221.81 110.83 215.423 119.758C215.283 119.954 214.996 120.348 214.849 120.537C197.142 120.453 179.442 120.537 161.735 120.495C161.735 119.377 161.735 118.254 161.742 117.144C167.941 117.124 174.14 117.222 180.345 117.088C183.501 117.032 186.684 117.398 189.832 117.004C190.644 116.435 191.315 115.683 191.98 114.954C191.559 115.501 190.713 116.59 190.294 117.131C197.934 117.18 205.58 117.111 213.22 117.167C222.371 104.215 231.459 91.2149 240.609 78.2565C241.036 77.505 241.834 76.7816 241.498 75.8334L241.259 75.6571Z" fill="#231917"/>
<path d="M260.729 81.7395C264.661 78.4665 269.285 75.4394 274.595 75.4745C281.528 75.4956 287.433 80.1381 291.672 85.2653C294.149 88.4891 296.961 91.7262 297.892 95.8005C295.457 94.4661 294.611 91.6567 293.03 89.5496C289.378 84.3873 284.739 79.3936 278.527 77.4973C273.266 75.931 267.557 77.8976 263.562 81.4656C262.66 84.1626 261.393 86.7121 259.952 89.1556C261.114 91.0386 262.303 92.9139 263.311 94.8938C263.115 95.2246 262.737 95.8841 262.548 96.2079C261.394 94.4028 260.289 92.5627 259.176 90.7289C255.413 98.027 252.446 105.753 250.494 113.738C249.83 115.957 249.844 118.296 250.592 120.495C248.962 120.48 247.34 120.466 245.716 120.473C245.954 119.546 246.199 118.62 246.451 117.7C245.023 116.583 243.477 115.613 241.799 114.925C241.155 116.759 240.61 118.621 240.014 120.467C239.685 120.467 239.028 120.481 238.692 120.481C239.336 118.184 239.287 115.018 241.7 113.774C243.624 113.704 245.205 115.024 246.863 115.818C246.878 112.032 245.129 108.619 243.939 105.121C242.582 101.603 241.26 98.0621 239.615 94.6704C238.845 92.9778 237.09 92.1483 235.669 91.1025C236.383 90.1122 237.068 89.1001 237.761 88.0894C238.985 90.0349 240.09 92.0577 241.007 94.1788C243.358 99.3474 245.275 104.694 247.276 110.002C248.752 103.21 250.326 96.2648 254.027 90.2948C254.929 88.7215 256.371 87.2319 256.097 85.266C256.272 85.0904 256.462 84.9218 256.65 84.7533C258.651 85.0609 259.539 82.9201 260.729 81.7395ZM261.184 83.6077C260.379 84.7526 257.832 85.9817 258.811 87.5416C260.148 86.7402 260.456 84.9141 261.184 83.6077ZM254.097 93.1667C250.864 99.4949 249.478 106.525 248.241 113.463C248.444 113.535 248.85 113.668 249.052 113.738C250.766 105.942 253.683 98.4547 257.224 91.3188C257.734 90.2449 258.258 89.072 257.881 87.8499C256.069 89.1626 255.125 91.2493 254.097 93.1667Z" fill="#1DB4A8"/>
<path d="M93.7256 85.259C93.8795 85.0974 94.1873 84.7736 94.3342 84.6051C96.5093 87.8289 98.5319 91.165 100.757 94.3467C102.772 97.2755 106.186 98.7434 108.41 101.461C109.816 103.182 111.104 104.994 112.517 106.708C113.601 105.528 114.679 104.349 115.756 103.169C115.308 105.072 114.867 106.976 114.42 108.878C114.055 108.626 113.329 108.127 112.965 107.874C110.187 109.833 107.9 112.439 106.465 115.537C105.003 110.023 104.115 104.144 100.666 99.4254C97.4958 95.1754 95.2157 90.3433 93.7256 85.259Z" fill="#F98023"/>
<path d="M87.9398 89.6128C89.7658 88.2152 91.6687 86.9158 93.4947 85.5111C92.7741 88.5389 91.6267 91.5162 91.5001 94.6557C91.4931 97.2755 94.4391 98.0769 96.2301 99.2772C94.9911 99.9936 93.7605 100.725 92.5292 101.44L92.2557 101.596C90.4724 100.394 88.226 99.3334 87.576 97.0865C86.8981 94.6487 87.0093 91.965 87.9398 89.6128Z" fill="#F98023"/>
<path d="M84.2463 101.026C85.6735 101.636 87.1707 102.1 88.6888 102.451C85.6456 107.045 83.6237 112.193 81.399 117.207C78.8244 123.396 75.6342 130.025 77.2223 136.902C77.6001 139.817 80.4125 141.278 82.3644 143.082C78.3564 142.584 74.4239 141.551 70.688 140.013C70.0241 139.739 69.3665 139.466 68.7158 139.185C70.6397 135.617 72.6196 132.076 74.3197 128.389C78.5865 119.652 81.5739 110.36 84.2463 101.026Z" fill="#F98023"/>
<path d="M45.5232 99.9795C45.9842 98.1042 48.111 97.9848 49.6851 97.9715C53.3937 104.419 58.0734 110.558 59.5565 118.03C61.4875 131.284 60.515 145.043 64.7889 157.903C66.0489 161.597 67.3634 165.797 70.8475 167.988C73.7088 169.828 77.2558 168.902 80.3278 168.22C86.0639 166.808 92.0175 167.096 97.8599 167.461C104.177 167.777 110.586 168.747 116.343 171.5C100.05 171.831 83.7412 171.648 67.4481 171.599C61.6833 152.635 55.8759 133.692 50.1532 114.723C49.6984 114.799 49.2437 114.891 48.7896 114.989C47.4401 110.086 44.138 105.247 45.5232 99.9795Z" fill="#BC3778"/>
<path d="M205.235 101.911C205.578 102.761 205.697 103.639 205.599 104.559C204.753 105.121 203.878 105.641 203.004 106.154C203.339 104.545 204.165 103.133 205.235 101.911Z" fill="#FAFAF3"/>
<path d="M48.7907 114.988C49.2448 114.89 49.6995 114.798 50.1543 114.722C55.877 133.692 61.6837 152.635 67.4492 171.598C83.7423 171.647 100.051 171.83 116.345 171.499C117.848 171.871 119.36 172.229 120.877 172.56C120.948 173.003 121.088 173.888 121.157 174.33C115.945 174.273 110.719 174.527 105.515 174.183C98.0842 173.62 90.5991 173.789 83.1616 174.134C82.3641 174.07 81.5672 174.021 80.769 173.972C80.6297 175.286 80.4821 176.606 80.3359 177.934C80.252 176.725 80.175 175.525 80.098 174.323C75.2148 174.352 70.3239 174.345 65.4406 174.316C64.7067 171.732 63.9442 169.154 63.1326 166.59C57.9625 149.586 52.8205 132.576 47.6084 115.593C47.9022 115.438 48.4969 115.136 48.7907 114.988Z" fill="#4A6F6A"/>
<path d="M310.009 177.188C310.107 176.198 310.666 175.686 311.681 175.637C311.534 176.612 310.974 177.132 310.009 177.188Z" fill="#4A6F6A"/>
<path d="M153.241 127.224C155.788 127.203 158.335 127.119 160.881 127.146L160.783 127.639C159.488 127.576 158.194 127.511 156.9 127.455C155.668 131.803 154.731 136.234 153.814 140.66C153.269 142.739 152.738 144.825 152.283 146.925C150.548 154.419 148.708 161.885 147.127 169.407C144.678 179.683 142.09 189.936 140.047 200.303C138.669 204.967 137.703 209.743 136.612 214.484C135.583 218.69 134.576 222.912 133.659 227.147C133.373 228.369 133.079 229.585 132.8 230.814C131.834 234.943 130.89 239.074 129.868 243.189C129.721 243.779 129.428 244.952 129.28 245.542C128.315 245.282 127.356 245.015 126.405 244.734C126.44 244.362 126.504 243.617 126.531 243.239C128.714 233.714 130.981 224.212 133.157 214.688C135.116 205.979 137.326 197.325 139.131 188.575C140.062 185.119 140.838 181.621 141.608 178.13C144.211 167.3 146.66 156.427 149.219 145.59C149.661 143.624 150.102 141.657 150.556 139.698C149.899 139.557 149.248 139.423 148.597 139.298C149.122 139.284 150.179 139.249 150.71 139.235C151.618 135.245 152.703 131.29 153.241 127.224Z" fill="#B7B6C5"/>
<path d="M257.328 127.189C258.469 127.209 259.617 127.224 260.763 127.238C262.547 133.959 263.695 140.856 265.906 147.458C266.06 148.603 266.207 149.74 266.367 150.893C266.662 150.773 267.256 150.528 267.549 150.402C267.165 152.48 267.284 154.601 267.976 156.602C269.864 165.762 272.272 174.8 274.377 183.903C274.622 184.964 274.874 186.024 275.139 187.084C275.581 188.889 276.05 190.695 276.56 192.486C276.706 191.699 276.846 190.913 276.98 190.125C276.896 192.676 277 195.253 277.637 197.739C279.407 204.904 281.17 212.06 282.835 219.246C284.592 226.325 286.229 233.425 287.95 240.512C288.069 241.025 288.293 242.051 288.404 242.57C287.319 242.851 286.229 243.105 285.144 243.364C284.949 242.41 284.752 241.46 284.556 240.512C282.835 233.278 281.079 226.051 279.365 218.809C278.295 214.406 277.252 209.996 276.21 205.593C276 205.824 275.581 206.302 275.363 206.541C275.489 204.828 275.503 203.092 275.195 201.4C275.035 200.668 274.86 199.939 274.685 199.216C273.706 195.234 272.712 191.258 271.788 187.269C271.565 186.286 271.334 185.309 271.11 184.339C269.906 179.802 269.186 175.132 267.479 170.748C267.262 167.855 266.562 165.03 265.604 162.3C265.122 159.279 264.394 156.316 263.617 153.365C261.673 144.599 259.26 135.954 257.328 127.189Z" fill="#B7B6C5"/>
<path d="M160.881 127.146C162.077 127.167 163.273 127.195 164.47 127.216C161.321 139.346 158.761 151.631 155.641 163.767C155.906 161.316 156.011 158.85 156.117 156.385L156.124 156.139C156.732 152.718 156.851 149.227 156.459 145.78C158.145 139.795 159.467 133.712 160.783 127.638L160.881 127.146Z" fill="#8B9999"/>
<path d="M245.169 127.265C246.393 127.265 247.618 127.245 248.842 127.216C251.773 139.768 254.334 152.403 257.461 164.904C258 168.494 258.937 172.005 259.679 175.559C259.987 176.725 260.476 177.834 260.918 178.966C261.029 179.732 261.141 180.504 261.268 181.284C261.407 182.176 261.575 183.075 261.771 183.966C261.813 184.227 261.904 184.739 261.946 185C262.114 185.941 262.281 186.882 262.471 187.823C263.38 192.023 264.409 196.195 265.297 200.402C265.416 200.949 265.667 202.046 265.794 202.593C267.228 208.977 268.655 215.369 270.139 221.747C270.397 222.842 270.684 223.944 270.922 225.061C272.048 227.098 269.929 227.653 268.536 228.383C268.166 227.302 267.809 226.213 267.501 225.123C267.242 224.092 267.04 223.066 266.822 222.035C265.367 215.621 263.919 209.208 262.485 202.79C262.325 202.045 262.163 201.293 262.003 200.557C261.065 196.314 260.044 192.1 259.134 187.858C258.911 186.868 258.686 185.884 258.462 184.901C257.231 179.647 256.146 174.365 254.797 169.141C254.342 166.815 253.922 164.483 253.699 162.131C253.538 162.019 253.216 161.807 253.055 161.703C251.565 153.296 249.417 145.014 247.542 136.685C247.171 134.508 246.681 132.351 246.016 130.244C245.778 129.437 245.547 128.63 245.31 127.822C245.275 127.679 245.204 127.406 245.169 127.265Z" fill="#8B9999"/>
<path d="M112.44 239.186C113.475 239.852 114.539 240.492 115.512 241.271C114.539 241.257 113.574 241.244 112.609 241.237C112.566 240.723 112.482 239.697 112.44 239.186Z" fill="#8B9999"/>
<path d="M248.842 127.216C249.618 127.196 250.402 127.174 251.192 127.16C251.78 130.68 252.802 134.1 253.662 137.555C255.634 146.067 257.314 154.65 258.496 163.303C258.237 163.704 257.72 164.504 257.461 164.904C254.334 152.403 251.774 139.768 248.842 127.216Z" fill="#1C7187"/>
<path d="M251.193 127.16L252.292 127.153C253.473 129.899 254.097 132.828 254.782 135.722C256.825 144.038 258.47 152.459 259.792 160.929C260.267 166.935 261.282 172.925 260.918 178.966C260.476 177.835 259.987 176.725 259.679 175.559C259.315 171.472 259.161 167.362 258.497 163.303C257.315 154.65 255.635 146.067 253.663 137.555C252.802 134.1 251.781 130.68 251.193 127.16Z" fill="#1EAFA5"/>
<path d="M75.7883 240.211C85.072 239.249 94.4397 239.376 103.751 239.852C103.997 240.758 104.276 241.665 104.598 242.563C102.717 243.09 100.582 243.251 99.0291 244.55C97.9168 246.011 100.086 246.721 101.113 247.143C106.564 248.771 112.363 248.217 117.967 247.956C110.489 250.295 102.575 250.513 94.8098 250.885C85.3861 251.006 75.8855 250.598 66.6367 248.645C64.0692 248.161 61.6276 247.051 59.8086 245.126C61.7955 243.005 64.5729 242.114 67.3433 241.558C67.6442 242.304 67.9443 243.076 68.2808 243.814C68.8545 244.564 69.4561 245.309 70.0998 246.011C71.492 246.292 73.1997 246.77 74.3744 245.66C75.2908 244.536 75.4727 243.019 75.8086 241.657C75.8023 241.293 75.7883 240.569 75.7883 240.211Z" fill="#876C37"/>
<path d="M122.382 244.116C123.774 243.855 125.145 243.526 126.531 243.238C126.503 243.616 126.44 244.362 126.405 244.733C127.356 245.014 128.315 245.282 129.279 245.541C129.427 244.951 129.721 243.778 129.868 243.188C132.526 243.258 135.185 243.722 137.584 244.915C138.529 244.676 139.473 244.424 140.425 244.192C141.621 245.266 142.643 246.959 144.455 246.882C147.806 247.143 150.982 245.801 154.27 245.457C156.068 245.45 157.725 246.286 159.418 246.806C164.002 248.435 168.99 248.147 173.725 247.479C176.083 247.459 178.007 246.068 179.455 244.312C180.518 245.119 183.058 245.478 182.617 247.191C180.749 248.814 178.189 249.138 175.86 249.643C166.303 251.216 156.53 251.223 146.91 250.254C142.929 249.755 138.732 249.277 135.367 246.875C130.756 247.76 126.02 247.661 121.465 246.504C121.787 245.71 122.095 244.909 122.382 244.116Z" fill="#876C37"/>
<path d="M100.945 141.06C102.198 139.95 103.346 138.728 104.521 137.534C109.571 137.989 114.637 138.229 119.695 138.552C129.321 139.036 138.983 138.503 148.596 139.297C149.247 139.423 149.897 139.556 150.554 139.697C150.1 141.656 149.659 143.624 149.218 145.589C140.816 145.091 132.491 143.784 124.11 143.138C116.981 142.62 109.907 141.481 102.772 141.109C102.317 141.096 101.4 141.073 100.945 141.06Z" fill="#157069"/>
<path d="M152.283 146.924C152.738 144.824 153.27 142.739 153.815 140.659C155.305 141.993 156.263 143.77 156.459 145.78C156.851 149.227 156.732 152.718 156.124 156.139C155.767 152.768 155.187 149.088 152.283 146.924Z" fill="#157069"/>
<path d="M147.127 169.406C150.415 165.27 153.01 160.648 156.117 156.385C156.012 158.85 155.907 161.316 155.641 163.767C154.081 173.922 153.85 184.219 153.367 194.467C153.199 200.998 152.682 207.558 153.255 214.084C153.528 217.645 154.801 221.044 155.025 224.604C154.893 224.739 154.619 225.005 154.479 225.146C151.108 226.529 147.399 226.846 143.831 226.128C142.992 225.011 142.229 223.825 141.838 222.469C142.425 216.141 142.355 209.637 140.892 203.429C140.641 202.376 140.326 201.336 140.046 200.303C142.089 189.936 144.678 179.682 147.127 169.406Z" fill="#157069"/>
<path d="M138.676 182.217C139.621 180.834 140.648 179.507 141.607 178.129C140.837 181.621 140.06 185.118 139.13 188.574C138.991 186.454 138.809 184.338 138.676 182.217Z" fill="#157069"/>
<path d="M112.307 237.97C113.888 238.524 115.812 238.946 116.49 240.716C116.399 241.018 116.217 241.622 116.126 241.924L115.51 241.271C114.538 240.492 113.474 239.852 112.439 239.185C112.405 238.875 112.342 238.272 112.307 237.97Z" fill="#157069"/>
<path d="M316.277 173.291C319.341 173.185 321.713 175.299 323.062 177.883C320.753 181.163 320.852 185.848 317.214 188.173L316.654 188.454C315.297 189.269 313.919 190.104 312.345 190.413C312.009 190.406 311.33 190.392 310.994 190.385C308.832 189.942 306.951 188.769 305.167 187.527C305.474 186.102 305.852 184.703 306.23 183.306C306.37 182.912 306.65 182.133 306.79 181.746C307.839 180.208 308.917 178.69 310.009 177.187C310.974 177.131 311.534 176.611 311.681 175.636C312.535 175.179 313.395 174.722 314.27 174.287L314.989 174.335C315.311 174.077 315.955 173.551 316.277 173.291ZM316.724 175.777C315.619 177.856 319.054 175.917 316.724 175.777V175.777ZM315.136 179.219C314.766 180.342 315.15 180.743 316.305 180.412C316.675 179.282 316.284 178.881 315.136 179.219ZM310.406 179.984C310.064 181.137 310.455 181.515 311.589 181.137C311.918 179.97 311.526 179.59 310.406 179.984ZM318.089 183.39C317.711 184.521 318.096 184.914 319.242 184.57C319.614 183.433 319.229 183.039 318.089 183.39ZM311.855 184.108C310.897 184.754 311.785 186.733 312.87 185.884C313.82 185.224 312.94 183.243 311.855 184.108ZM307.524 184.929C307.223 185.918 307.56 186.278 308.531 185.997C308.826 185.006 308.49 184.648 307.524 184.929Z" fill="#2FDCC8"/>
<path d="M294.093 177.526C295.149 176.367 296.261 174.633 298.094 175.104C299.34 175.644 300.207 176.754 301.068 177.765C300.662 179.928 300.487 182.147 299.871 184.276C298.982 186.319 296.982 187.541 295.345 188.926C295.246 188.75 295.05 188.399 294.959 188.223C294.743 187.85 294.309 187.1 294.1 186.727C293.882 185.779 293.673 184.838 293.491 183.897L293.841 183.841L293.785 183.49L293.435 183.546C293.275 182.049 293.316 180.547 293.386 179.051C293.568 178.671 293.918 177.906 294.093 177.526ZM295.786 178.313C295.89 180.659 297.864 177.231 295.786 178.313V178.313ZM298.444 182.794C298.101 183.764 298.43 184.115 299.431 183.861C299.766 182.892 299.438 182.534 298.444 182.794Z" fill="#2FDCC8"/>
<path d="M296.485 194.565C297.499 193.293 298.513 191.265 300.459 191.665C303.026 191.658 303.18 194.776 303.607 196.679C301.977 196.076 302.565 198.66 303.698 197.249C304.321 200.184 303.467 203.086 302.446 205.817C301.214 204.693 299.857 203.724 298.669 202.565C296.561 200.557 295.786 197.36 296.485 194.565ZM297.289 198.202C296.96 199.172 297.297 199.537 298.282 199.305C298.598 198.33 298.269 197.964 297.289 198.202ZM300.612 201.645C300.255 202.79 300.647 203.176 301.788 202.811C302.138 201.658 301.746 201.272 300.612 201.645Z" fill="#2FDCC8"/>
<path d="M80.769 173.971C81.5672 174.021 82.3641 174.07 83.1616 174.133C89.8296 176.001 97.6085 173.55 103.549 177.863C101.135 177.898 98.7146 177.968 96.3079 177.73C94.1244 177.463 91.9207 177.393 89.7316 177.519C91.8794 180.047 94.0342 182.575 96.2659 185.026C96.2589 187.955 96.3429 190.884 96.231 193.806C95.8182 193.835 94.992 193.891 94.5799 193.918C93.3416 193.947 92.104 193.94 90.865 193.884C90.5299 193.819 89.8576 193.686 89.5217 193.623C89.4658 188.398 89.4868 183.18 89.5497 177.961C86.4778 177.869 83.4072 177.876 80.3359 177.933C80.4822 176.605 80.6298 175.285 80.769 173.971Z" fill="#2A6C60"/>
<path d="M90.7317 213.627C92.1169 213.494 93.4951 213.359 94.8804 213.219C94.3557 216.471 94.0415 219.962 91.509 222.357C92.3275 222.483 93.146 222.616 93.9646 222.751C94.0136 227.007 94.0835 231.27 93.7827 235.526C92.8102 235.596 91.8441 235.659 90.8863 235.778C90.5155 235.834 89.7809 235.954 89.4102 236.017C89.4248 235.069 89.4381 234.128 89.4584 233.187C89.5221 229.824 89.5354 226.459 89.4514 223.102C89.718 222.821 90.2427 222.266 90.5078 221.985C90.4596 220.356 90.4099 218.726 90.4379 217.096C90.4875 215.93 90.5995 214.779 90.7317 213.627Z" fill="#2A6C60"/>
<path d="M83.1611 174.134C90.5986 173.789 98.0837 173.621 105.514 174.183C105.486 175.405 105.465 176.634 105.451 177.87C104.975 177.87 104.023 177.863 103.548 177.863C97.6087 173.551 89.8291 176.002 83.1611 174.134Z" fill="#2E4844"/>
<path d="M316.725 175.777C319.055 175.917 315.62 177.856 316.725 175.777V175.777Z" fill="#32848D"/>
<path d="M89.7314 177.519C91.9212 177.393 94.1243 177.463 96.3077 177.73C96.2721 180.16 96.2651 182.598 96.2651 185.027C94.034 182.575 91.8792 180.047 89.7314 177.519Z" fill="#2D4744"/>
<path d="M293.54 177.758L294.093 177.526C293.918 177.906 293.568 178.671 293.386 179.05C293.428 178.728 293.505 178.081 293.54 177.758Z" fill="#6B808B"/>
<path d="M295.786 178.313C297.864 177.231 295.89 180.659 295.786 178.313V178.313Z" fill="#32858D"/>
<path d="M315.137 179.219C316.285 178.882 316.676 179.282 316.306 180.412C315.151 180.743 314.766 180.342 315.137 179.219Z" fill="#318F92"/>
<path d="M310.407 179.984C311.527 179.59 311.918 179.97 311.589 181.137C310.456 181.515 310.065 181.136 310.407 179.984Z" fill="#32878D"/>
<path d="M306.23 182.001L306.79 181.747C306.65 182.134 306.37 182.913 306.23 183.307C306.23 182.976 306.23 182.323 306.23 182.001Z" fill="#93A1A3"/>
<path d="M321.56 181.965C321.929 182.301 321.929 182.301 321.56 181.965V181.965Z" fill="#2A5D6E"/>
<path d="M298.445 182.794C299.438 182.534 299.767 182.893 299.431 183.861C298.43 184.115 298.102 183.764 298.445 182.794Z" fill="#329799"/>
<path d="M274.377 183.903C275.937 184.086 278.61 182.814 279.176 184.943C279.589 186.158 278.029 186.509 277.224 186.818C276.7 186.881 275.657 187.021 275.14 187.084C274.874 186.024 274.623 184.964 274.377 183.903Z" fill="#FEB218"/>
<path d="M293.436 183.545L293.785 183.489L293.841 183.84L293.492 183.896L293.436 183.545Z" fill="#2E5D71"/>
<path d="M318.09 183.39C319.23 183.039 319.615 183.433 319.243 184.57C318.097 184.914 317.712 184.522 318.09 183.39Z" fill="#309394"/>
<path d="M237.145 186.825C235.794 186.291 234.948 184.36 236.767 183.748C241.636 183.938 246.484 184.655 251.367 184.767C252.193 184.795 253.033 184.823 253.872 184.851C255.397 184.873 256.929 184.887 258.461 184.9C258.685 185.883 258.91 186.867 259.133 187.858C251.787 188.034 244.462 187.372 237.145 186.825Z" fill="#FEB217"/>
<path d="M261.945 184.999C262.246 184.823 262.848 184.472 263.149 184.304L263.037 184.81C263.38 184.788 264.066 184.738 264.401 184.718C266.633 184.57 268.871 184.459 271.11 184.338C271.334 185.308 271.565 186.284 271.789 187.268C268.689 187.52 265.584 187.717 262.471 187.822C262.28 186.881 262.113 185.94 261.945 184.999Z" fill="#FEB217"/>
<path d="M299.612 222.455C300.641 223.642 301.585 222.462 302.481 221.816C302.719 222.21 303.188 222.989 303.419 223.382C304.014 222.806 304.607 222.23 305.203 221.661C305.462 222.097 305.979 222.96 306.238 223.396C306.818 222.813 307.406 222.238 308.001 221.661C308.26 222.097 308.777 222.953 309.036 223.389C309.624 222.82 310.218 222.258 310.82 221.697C311.094 222.124 311.639 222.982 311.905 223.41C312.45 222.847 313.003 222.286 313.555 221.73C313.996 222.279 314.445 222.833 314.892 223.389C315.339 222.869 315.794 222.356 316.249 221.843C316.956 222.455 317.668 223.065 318.39 223.677C318.369 223.992 318.327 224.618 318.306 224.933L318.229 226.211C312.115 226.247 306 226.225 299.885 226.225C299.871 225.831 299.843 225.053 299.822 224.667L300.116 224.463L300.06 224.175L299.794 224.307C299.738 223.684 299.682 223.066 299.612 222.455ZM301.955 223.439C301.808 223.629 301.501 224.007 301.347 224.196C301.983 226.339 304.37 223.165 301.955 223.439ZM304.775 223.418C304.621 223.607 304.307 223.973 304.153 224.156C304.719 226.332 307.189 223.221 304.775 223.418ZM307.567 223.424C307.413 223.606 307.105 223.979 306.951 224.162C307.546 226.325 309.98 223.179 307.567 223.424ZM310.372 223.424C310.218 223.614 309.917 223.986 309.764 224.169C310.379 226.332 312.786 223.186 310.372 223.424ZM313.149 223.439C312.995 223.622 312.695 223.986 312.54 224.169C313.157 226.332 315.584 223.221 313.149 223.439ZM315.947 223.431C315.8 223.615 315.507 223.986 315.367 224.176C316.031 226.339 318.355 223.199 315.947 223.431Z" fill="#FEB217"/>
<path d="M311.856 184.108C312.94 183.244 313.822 185.224 312.87 185.884C311.786 186.733 310.897 184.754 311.856 184.108Z" fill="#319E9D"/>
<path d="M307.524 184.929C308.49 184.649 308.825 185.006 308.532 185.997C307.56 186.278 307.224 185.918 307.524 184.929Z" fill="#328D93"/>
<path d="M299.913 186.109C301.053 185.758 301.424 186.15 301.039 187.302C299.9 187.654 299.522 187.253 299.913 186.109Z" fill="#258186"/>
<path d="M294.1 186.726C294.309 187.099 294.743 187.85 294.959 188.223C294.743 187.85 294.309 187.1 294.1 186.726Z" fill="#97ADAB"/>
<path d="M316.655 188.455L317.215 188.174C318.201 189.459 315.584 190.006 316.655 188.455Z" fill="#2B6876"/>
<path d="M297.149 189.781C297.541 190.117 297.541 190.117 297.149 189.781V189.781Z" fill="#314B64"/>
<path d="M310.995 190.386C311.33 190.393 312.009 190.406 312.346 190.413C313.339 192.192 309.988 192.142 310.995 190.386Z" fill="#258A8D"/>
<path d="M316.026 193.259C318.356 193.441 314.893 195.316 316.026 193.259V193.259Z" fill="#2C596B"/>
<path d="M90.8644 193.884C92.1034 193.941 93.341 193.948 94.5793 193.919C94.7612 200.352 94.2295 206.813 94.8801 213.219C93.4956 213.359 92.1174 213.494 90.7314 213.627C91.3051 207.074 91.1372 200.451 90.8644 193.884ZM91.6829 194.045C91.6752 200.38 91.6339 206.723 91.7312 213.057H92.8023C92.9212 206.716 92.8575 200.366 92.8366 194.023L91.6829 194.045Z" fill="#859595"/>
<path d="M91.6835 194.045L92.8371 194.024C92.8581 200.366 92.9218 206.716 92.8028 213.058H91.7318C91.6338 206.723 91.6758 200.381 91.6835 194.045Z" fill="#BDBACB"/>
<path d="M303.699 197.248C302.565 198.66 301.978 196.075 303.608 196.678L303.699 197.248Z" fill="#328088"/>
<path d="M318.495 197.964C318.565 197.044 319.048 196.482 319.95 196.278C319.992 197.381 319.51 197.943 318.495 197.964Z" fill="#597C86"/>
<path d="M311.659 197.536C313.996 197.55 310.66 199.663 311.659 197.536V197.536Z" fill="#2A4161"/>
<path d="M297.29 198.202C298.269 197.964 298.598 198.33 298.283 199.305C297.298 199.538 296.962 199.172 297.29 198.202Z" fill="#31888E"/>
<path d="M238.579 199.04C246.31 200.359 254.16 200.823 262.002 200.557C262.162 201.293 262.324 202.045 262.484 202.79C254.571 203 246.617 202.797 238.824 201.266C238.76 200.711 238.635 199.594 238.579 199.04Z" fill="#FFB517"/>
<path d="M265.297 200.401C268.43 200.086 271.565 199.706 274.686 199.215C274.86 199.938 275.035 200.668 275.196 201.399C272.075 201.912 268.942 202.326 265.794 202.592C265.667 202.045 265.416 200.949 265.297 200.401Z" fill="#FFB417"/>
<path d="M300.613 201.645C301.746 201.273 302.138 201.659 301.789 202.811C300.648 203.175 300.257 202.789 300.613 201.645Z" fill="#31A3A0"/>
<path d="M140.893 203.429C142.355 209.638 142.425 216.142 141.838 222.469C141.572 224.014 141.166 225.525 140.789 227.049C140.578 227.836 140.368 228.629 140.159 229.423C139.173 229.212 138.186 229.002 137.206 228.805C137.283 228.341 137.424 227.422 137.5 226.958C138.354 222.758 139.424 218.606 140.403 214.435C141.565 210.874 141.684 207.081 140.893 203.429Z" fill="#8B999A"/>
<path d="M304.782 204.539C305.915 204.188 306.293 204.587 305.902 205.732C304.748 206.069 304.376 205.676 304.782 204.539Z" fill="#258388"/>
<path d="M298.598 214.322C295.926 213.437 296.423 209.469 297.626 207.565C299.857 207.404 302.089 207.699 304.32 207.846C306.602 208.028 308.903 208.084 311.197 208.007C312.205 207.958 313.22 207.874 314.234 207.803C316.459 207.62 318.69 207.53 320.923 207.564C320.65 209.776 322.196 213.317 319.446 214.328C312.499 214.611 305.545 214.624 298.598 214.322Z" fill="#FFB400"/>
<path d="M94.8798 213.219C95.0344 214.343 95.1596 215.473 95.2093 216.612C95.2296 218.318 95.2163 220.024 95.2856 221.738C97.2452 225.258 95.8592 229.513 96.328 233.356C97.6439 233.77 98.9515 234.191 100.26 234.612C99.274 235.99 97.7132 236.354 96.1111 236.172C95.9152 236.165 95.5227 236.152 95.3275 236.145C94.2711 237.408 92.6131 237.233 91.1439 237.394C91.0809 236.994 90.9487 236.186 90.8857 235.778C91.8435 235.659 92.8097 235.596 93.7821 235.526C94.0829 231.269 94.013 227.006 93.964 222.751C93.1455 222.617 92.3269 222.483 91.5084 222.357C94.041 219.962 94.3551 216.471 94.8798 213.219Z" fill="#294644"/>
<path d="M136.612 214.484C137.872 214.463 139.137 214.448 140.404 214.435C139.424 218.606 138.354 222.758 137.5 226.958C136.213 227.021 134.933 227.084 133.66 227.148C134.575 222.912 135.583 218.69 136.612 214.484Z" fill="#FFC559"/>
<path d="M153.256 214.084C182.282 213.606 211.337 214.035 240.314 215.784C240.887 219.154 243.77 222.056 247.296 221.964C253.802 222.139 260.315 221.943 266.822 222.035C267.039 223.067 267.241 224.093 267.5 225.124C265.723 225.617 263.974 226.206 262.274 226.916C263.226 227.695 264.149 228.665 265.437 228.847C269.124 229.586 272.993 229.593 276.679 228.827C277.952 228.672 278.806 227.646 279.715 226.86C276.981 225.498 273.937 225.111 270.922 225.061C270.684 223.944 270.397 222.842 270.139 221.747C271.447 220.7 272.741 219.618 273.832 218.339C275.672 218.5 277.519 218.663 279.366 218.809C281.08 226.051 282.836 233.279 284.557 240.512C282.458 240.892 280.324 241.39 278.75 242.929C283.004 245.282 288.111 245.176 292.77 244.368C294.162 244.221 295.205 243.265 296.17 242.346C293.638 240.997 290.776 240.617 287.95 240.512C286.229 233.425 284.592 226.325 282.835 219.246C288.229 219.941 293.631 220.621 299.025 221.346C299.067 221.022 299.15 220.376 299.199 220.06C305.734 219.982 312.274 220.06 318.816 220.031C318.767 220.348 318.683 220.987 318.641 221.303C312.246 221.443 305.853 221.353 299.465 221.332C299.5 221.612 299.577 222.174 299.612 222.456C299.682 223.066 299.738 223.685 299.794 224.309L299.822 224.669C299.843 225.055 299.871 225.834 299.885 226.228C299.913 228.637 300.704 231.615 303.363 232.29C306.98 233.033 310.785 232.956 314.424 232.38C317.292 231.882 318.208 228.736 318.229 226.214L318.306 224.936C323.819 225.807 329.212 227.324 334.495 229.123C338.069 230.442 341.764 231.847 344.674 234.404C346.003 235.458 346.402 237.158 346.878 238.702C343.848 244.399 337.076 246.063 331.472 248.057C324.259 250.256 316.878 251.787 309.47 253.135C292.133 256.1 274.636 257.996 257.104 259.308C223.11 261.901 188.991 262.547 154.906 262.07C123.403 261.487 91.8646 259.927 60.5782 256.022C46.7541 254.203 32.9012 252.11 19.5114 248.149C14.4183 246.52 9.15729 244.721 5.12757 241.054C4.12714 239.439 3.51778 237.22 4.90999 235.626C7.58948 232.31 11.7738 230.836 15.607 229.332C26.4361 225.532 37.7914 223.552 49.09 221.761C62.8086 219.668 76.6125 218.277 90.4367 217.097C90.4087 218.726 90.4577 220.357 90.5066 221.986C90.2415 222.266 89.7168 222.821 89.4502 223.103C89.5342 226.459 89.5209 229.824 89.4572 233.188C88.0797 233.609 86.7078 234.045 85.3442 234.487C80.6359 236.053 75.8996 237.535 71.0296 238.477C69.3016 238.724 68.4131 240.374 67.3427 241.561C64.5723 242.116 61.7949 243.008 59.808 245.129C61.6269 247.053 64.0686 248.163 66.6361 248.647C75.8849 250.601 85.3855 251.008 94.8092 250.887C102.575 250.516 110.487 250.297 117.966 247.958C119.17 247.58 120.331 247.06 121.464 246.506C126.019 247.663 130.756 247.762 135.366 246.877C138.731 249.279 142.929 249.757 146.909 250.256C156.529 251.225 166.303 251.218 175.859 249.645C178.189 249.14 180.749 248.816 182.617 247.193C183.058 245.48 180.518 245.122 179.454 244.314C179.3 243.429 179.161 242.544 179.028 241.666C175.684 241.182 172.305 242.01 168.988 241.427C162.727 240.05 157.599 235.084 155.417 229.114C154.919 227.668 155.087 226.102 155.024 224.605C154.802 221.044 153.528 217.645 153.256 214.084Z" fill="#FFC559"/>
<path d="M114.05 215.446C120.424 215.34 126.783 214.883 133.157 214.687C130.981 224.212 128.714 233.714 126.531 243.238C125.147 243.526 123.775 243.855 122.382 244.116C120.654 243.589 118.996 242.858 117.331 242.155C117.121 241.797 116.702 241.075 116.492 240.716C115.812 238.946 113.889 238.524 112.308 237.97C111.763 233.566 111.392 229.092 112.196 224.702C112.784 221.619 112.426 218.241 114.05 215.446Z" fill="#FFC559"/>
<path d="M95.209 216.612C95.6497 216.655 96.5312 216.744 96.972 216.787C97.9724 219.449 99.3164 221.963 100.589 224.506C102.275 227.906 102.849 231.712 103.073 235.469C102.136 235.181 101.198 234.9 100.26 234.612C98.9519 234.19 97.6443 233.769 96.3284 233.355C95.8596 229.512 97.2455 225.258 95.2859 221.737C95.216 220.025 95.2293 218.318 95.209 216.612Z" fill="#FFC559"/>
<path d="M129.868 243.189C130.89 239.074 131.834 234.943 132.8 230.814C136.402 231.395 140.061 231.382 143.671 230.869C143.559 235.526 141.426 239.72 140.424 244.193C139.473 244.425 138.529 244.677 137.584 244.916C135.184 243.722 132.527 243.259 129.868 243.189Z" fill="#FFC559"/>
<path d="M140.788 227.049C141.165 225.525 141.571 224.014 141.837 222.469C142.229 223.825 142.991 225.011 143.831 226.128C143.845 226.445 143.88 227.084 143.901 227.406C142.858 227.28 141.824 227.161 140.788 227.049Z" fill="#FEC85B"/>
<path d="M301.955 223.439C304.369 223.165 301.983 226.339 301.347 224.196C301.501 224.007 301.808 223.628 301.955 223.439Z" fill="#5D2C64"/>
<path d="M304.776 223.418C307.19 223.222 304.72 226.332 304.153 224.156C304.307 223.973 304.622 223.606 304.776 223.418Z" fill="#5D2D65"/>
<path d="M307.567 223.424C309.98 223.178 307.546 226.325 306.951 224.162C307.105 223.979 307.413 223.606 307.567 223.424Z" fill="#5F2D64"/>
<path d="M310.372 223.424C312.786 223.185 310.379 226.332 309.764 224.169C309.917 223.986 310.218 223.615 310.372 223.424Z" fill="#5F2E63"/>
<path d="M313.149 223.439C315.583 223.221 313.156 226.332 312.54 224.169C312.695 223.986 312.995 223.622 313.149 223.439Z" fill="#5F2E63"/>
<path d="M315.948 223.431C318.355 223.199 316.032 226.339 315.367 224.176C315.507 223.986 315.801 223.615 315.948 223.431Z" fill="#5E2D63"/>
<path d="M299.795 224.309L300.061 224.176L300.117 224.464L299.823 224.668L299.795 224.309Z" fill="#77455E"/>
<path d="M143.832 226.128C147.4 226.845 151.108 226.528 154.48 225.146C153.871 228.439 150.003 228.875 148.254 231.319C146.309 233.876 144.875 237.444 146.169 240.598C147.261 242.859 150.129 242.073 152.13 242.282C155.656 242.163 158.875 243.772 162.17 244.783C165.941 246.034 169.942 246.3 173.727 247.48C168.991 248.148 164.003 248.436 159.42 246.806C157.727 246.287 156.07 245.451 154.272 245.458C150.984 245.802 147.808 247.144 144.456 246.883C142.645 246.96 141.623 245.267 140.427 244.193C141.428 239.72 143.56 235.526 143.673 230.869C143.772 229.718 143.855 228.559 143.904 227.406C143.881 227.084 143.845 226.445 143.832 226.128Z" fill="#DC9778"/>
<path d="M262.274 226.915C263.974 226.206 265.723 225.616 267.5 225.124C267.808 226.213 268.165 227.302 268.536 228.383C269.928 227.653 272.048 227.098 270.922 225.061C273.937 225.11 276.98 225.497 279.715 226.86C278.805 227.646 277.952 228.672 276.679 228.827C272.992 229.593 269.123 229.586 265.437 228.847C264.149 228.664 263.226 227.694 262.274 226.915Z" fill="#886D37"/>
<path d="M133.659 227.147C134.932 227.084 136.212 227.021 137.499 226.957C137.423 227.421 137.283 228.34 137.206 228.804C138.185 229.001 139.172 229.211 140.159 229.423C140.369 228.628 140.578 227.835 140.788 227.048C141.823 227.16 142.858 227.28 143.901 227.406C143.852 228.559 143.769 229.718 143.67 230.869C140.06 231.381 136.401 231.395 132.799 230.814C133.079 229.585 133.373 228.369 133.659 227.147Z" fill="#876B36"/>
<path d="M278.75 242.929C280.324 241.391 282.458 240.893 284.557 240.513C284.753 241.461 284.949 242.41 285.145 243.365C286.229 243.106 287.32 242.852 288.405 242.571C288.293 242.052 288.069 241.026 287.951 240.513C290.777 240.618 293.638 240.998 296.171 242.346C295.205 243.266 294.163 244.222 292.771 244.369C288.111 245.176 283.004 245.282 278.75 242.929Z" fill="#876B36"/>
<path d="M85.3447 234.486C86.7083 234.044 88.0802 233.608 89.4577 233.186C89.4374 234.128 89.4234 235.069 89.4094 236.016C88.6951 236.136 87.9822 236.277 87.2756 236.432C86.625 235.778 85.9814 235.132 85.3447 234.486Z" fill="#2B4544"/>
<path d="M71.0297 238.475C75.8996 237.534 80.6353 236.053 85.3443 234.486C85.9809 235.132 86.6246 235.778 87.2752 236.432C83.0286 237.373 78.754 238.202 74.5144 239.17C74.8362 239.43 75.4652 239.95 75.7877 240.209C75.7877 240.567 75.8017 241.292 75.808 241.657C75.1371 241.123 74.4717 240.589 73.8008 240.077C72.7997 239.838 71.6873 239.338 70.7009 239.887C69.0988 240.525 68.8679 242.408 68.2802 243.813C67.9444 243.075 67.6436 242.303 67.3428 241.558C68.4132 240.372 69.3024 238.722 71.0297 238.475Z" fill="#276B60"/>
<path d="M100.26 234.612C101.198 234.9 102.136 235.182 103.073 235.47C103.129 235.99 103.241 237.03 103.297 237.549C100.911 237.05 98.532 236.453 96.1113 236.172C97.7134 236.355 99.2735 235.99 100.26 234.612Z" fill="#246B60"/>
<path d="M89.4099 236.017C89.7807 235.954 90.5153 235.834 90.8861 235.778C90.9491 236.186 91.0813 236.993 91.1443 237.394C92.6141 237.233 94.2722 237.408 95.3279 236.145C95.5231 236.152 95.9156 236.165 96.1114 236.172C98.5321 236.453 100.911 237.05 103.297 237.549C103.423 238.315 103.569 239.087 103.751 239.852C94.4394 239.375 85.0717 239.249 75.7879 240.211C75.4654 239.952 74.8365 239.432 74.5146 239.171C78.755 238.203 83.0288 237.374 87.2754 236.433C87.9827 236.278 88.6956 236.136 89.4099 236.017Z" fill="#FFC659"/>
<path d="M70.7019 239.888C71.6883 239.34 72.8007 239.839 73.8018 240.078C73.5912 241.264 73.5283 242.5 73.0735 243.639C72.192 244.551 71.1077 245.24 70.1002 246.012C69.4566 245.31 68.8556 244.565 68.2812 243.814C68.8682 242.41 69.0998 240.526 70.7019 239.888Z" fill="#829494"/>
<path d="M73.8012 240.077C74.4721 240.59 75.1375 241.124 75.8084 241.657C75.4733 243.019 75.2907 244.537 74.3742 245.66C73.1989 246.77 71.4918 246.292 70.0996 246.011C71.107 245.239 72.1914 244.55 73.0729 243.638C73.5284 242.5 73.5906 241.264 73.8012 240.077Z" fill="#626863"/>
<path d="M116.491 240.716C116.701 241.075 117.121 241.797 117.331 242.155C118.996 242.858 120.654 243.589 122.382 244.116C122.095 244.909 121.787 245.71 121.465 246.504C120.332 247.058 119.171 247.578 117.967 247.956C112.363 248.217 106.564 248.771 101.113 247.143C100.085 246.72 97.9166 246.011 99.029 244.55C100.582 243.251 102.717 243.09 104.598 242.563C105.535 244.094 106.683 246.025 108.747 245.977C111.797 246.16 116.043 247.184 117.736 243.778C117.562 243.575 117.212 243.168 117.037 242.963C116.814 242.704 116.359 242.184 116.128 241.924C116.218 241.622 116.4 241.018 116.491 240.716Z" fill="#4E4228"/>
<path d="M241.222 75.6354C242.206 75.844 241.342 77.4207 241.342 77.4207L213.218 117.166L189.528 117.206L217.332 80.9458" fill="#582866"/>
</svg>
