<svg width="17" height="17" viewBox="0 0 17 17" fill="none" xmlns="http://www.w3.org/2000/svg">
<g clip-path="url(#clip0_227_2412)">
<path d="M14.6436 7.10822C14.6436 11.7749 8.64355 15.7749 8.64355 15.7749C8.64355 15.7749 2.64355 11.7749 2.64355 7.10822C2.64355 5.51692 3.2757 3.99079 4.40091 2.86557C5.52613 1.74036 7.05226 1.10822 8.64355 1.10822C10.2349 1.10822 11.761 1.74036 12.8862 2.86557C14.0114 3.99079 14.6436 5.51692 14.6436 7.10822Z" stroke="#8721D1" stroke-linecap="round" stroke-linejoin="round"/>
<path d="M8.64355 9.10822C9.74812 9.10822 10.6436 8.21279 10.6436 7.10822C10.6436 6.00365 9.74812 5.10822 8.64355 5.10822C7.53899 5.10822 6.64355 6.00365 6.64355 7.10822C6.64355 8.21279 7.53899 9.10822 8.64355 9.10822Z" stroke="#8721D1" stroke-linecap="round" stroke-linejoin="round"/>
</g>
<defs>
<clipPath id="clip0_227_2412">
<rect width="16" height="16" fill="white" transform="translate(0.643555 0.441528)"/>
</clipPath>
</defs>
</svg>
