<svg width="24" height="28" viewBox="0 0 24 28" fill="none" xmlns="http://www.w3.org/2000/svg">
<g filter="url(#filter0_d_243_337)">
<path d="M17 7.04803C18.3807 7.04803 19.5 5.92875 19.5 4.54803C19.5 3.16732 18.3807 2.04803 17 2.04803C15.6193 2.04803 14.5 3.16732 14.5 4.54803C14.5 5.92875 15.6193 7.04803 17 7.04803Z" stroke="#8721D1" stroke-linecap="round" stroke-linejoin="round"/>
<path d="M7 12.8813C8.38071 12.8813 9.5 11.7621 9.5 10.3813C9.5 9.00064 8.38071 7.88135 7 7.88135C5.61929 7.88135 4.5 9.00064 4.5 10.3813C4.5 11.7621 5.61929 12.8813 7 12.8813Z" stroke="#8721D1" stroke-linecap="round" stroke-linejoin="round"/>
<path d="M17 18.7147C18.3807 18.7147 19.5 17.5954 19.5 16.2147C19.5 14.8339 18.3807 13.7147 17 13.7147C15.6193 13.7147 14.5 14.8339 14.5 16.2147C14.5 17.5954 15.6193 18.7147 17 18.7147Z" stroke="#8721D1" stroke-linecap="round" stroke-linejoin="round"/>
<path d="M9.1582 11.6397L14.8499 14.9564" stroke="#8721D1" stroke-linecap="round" stroke-linejoin="round"/>
<path d="M14.8415 5.80634L9.1582 9.123" stroke="#8721D1" stroke-linecap="round" stroke-linejoin="round"/>
</g>
<defs>
<filter id="filter0_d_243_337" x="-2" y="0.381348" width="28" height="28" filterUnits="userSpaceOnUse" color-interpolation-filters="sRGB">
<feFlood flood-opacity="0" result="BackgroundImageFix"/>
<feColorMatrix in="SourceAlpha" type="matrix" values="0 0 0 0 0 0 0 0 0 0 0 0 0 0 0 0 0 0 127 0" result="hardAlpha"/>
<feOffset dy="4"/>
<feGaussianBlur stdDeviation="2"/>
<feComposite in2="hardAlpha" operator="out"/>
<feColorMatrix type="matrix" values="0 0 0 0 0 0 0 0 0 0 0 0 0 0 0 0 0 0 0.25 0"/>
<feBlend mode="normal" in2="BackgroundImageFix" result="effect1_dropShadow_243_337"/>
<feBlend mode="normal" in="SourceGraphic" in2="effect1_dropShadow_243_337" result="shape"/>
</filter>
</defs>
</svg>
