<?xml version="1.0" encoding="utf-8"?>
<!-- Generator: Adobe Illustrator 16.0.0, SVG Export Plug-In . SVG Version: 6.00 Build 0)  -->
<!DOCTYPE svg PUBLIC "-//W3C//DTD SVG 1.1//EN" "http://www.w3.org/Graphics/SVG/1.1/DTD/svg11.dtd">
<svg version="1.1" id="Layer_1" xmlns="http://www.w3.org/2000/svg" xmlns:xlink="http://www.w3.org/1999/xlink" x="0px" y="0px"
	 width="208.5px" height="93.5px" viewBox="-31 -33.5 208.5 93.5" enable-background="new -31 -33.5 208.5 93.5"
	 xml:space="preserve">
<circle fill="#FFFFFF" cx="-9.476" cy="-11.602" r="19.524"/>
<circle fill="#FFFFFF" cx="46.306" cy="-11.602" r="19.524"/>
<circle fill="#FFFFFF" cx="102.089" cy="-11.602" r="19.524"/>
<circle fill="#FFFFFF" cx="156.477" cy="-11.602" r="19.524"/>
<path fill="none" stroke="#50137C" stroke-linecap="round" stroke-linejoin="round" d="M-5.99-18.575h-2.092
	c-0.925,0-1.812,0.398-2.465,1.106c-0.655,0.708-1.021,1.669-1.021,2.67v2.266h-2.092v3.021h2.092v6.044h2.789V-9.51h2.092
	l0.697-3.021h-2.789v-2.266c0-0.2,0.073-0.393,0.204-0.534c0.131-0.141,0.308-0.221,0.493-0.221h2.092V-18.575z"/>
<g>
	<defs>
		<rect id="SVGID_1_" x="36.544" y="-21.364" width="19.523" height="19.523"/>
	</defs>
	<clipPath id="SVGID_2_">
		<use xlink:href="#SVGID_1_"  overflow="visible"/>
	</clipPath>
	<g clip-path="url(#SVGID_2_)">
		<path fill="none" stroke="#50137C" stroke-linecap="round" stroke-linejoin="round" d="M50.374-19.737h-8.135
			c-2.246,0-4.068,1.822-4.068,4.068v8.134c0,2.247,1.822,4.069,4.068,4.069h8.135c2.247,0,4.068-1.822,4.068-4.069v-8.134
			C54.441-17.916,52.621-19.737,50.374-19.737z"/>
		<path fill="none" stroke="#50137C" stroke-linecap="round" stroke-linejoin="round" d="M49.561-12.114
			c0.1,0.677-0.016,1.368-0.331,1.975c-0.315,0.608-0.814,1.1-1.425,1.408c-0.611,0.308-1.304,0.416-1.98,0.307
			c-0.676-0.107-1.3-0.428-1.784-0.911c-0.484-0.485-0.803-1.108-0.912-1.784c-0.109-0.676-0.002-1.369,0.306-1.98
			s0.8-1.11,1.408-1.425c0.607-0.315,1.298-0.431,1.976-0.331c0.69,0.103,1.33,0.424,1.824,0.918S49.458-12.805,49.561-12.114z"/>
		<path fill="none" stroke="#50137C" stroke-width="2" stroke-linecap="round" stroke-linejoin="round" d="M50.781-16.077h0.009"/>
	</g>
</g>
<path fill="none" stroke="#50137C" stroke-linecap="round" stroke-linejoin="round" d="M110.456-17.172
	c-0.729,0.524-1.535,0.926-2.389,1.188c-0.458-0.539-1.068-0.92-1.743-1.093c-0.679-0.173-1.393-0.129-2.043,0.125
	c-0.652,0.255-1.212,0.708-1.604,1.297c-0.393,0.59-0.598,1.289-0.588,2.002v0.777c-1.338,0.035-2.661-0.268-3.855-0.882
	s-2.222-1.521-2.991-2.639c0,0-3.042,6.994,3.804,10.103c-1.566,1.087-3.434,1.631-5.325,1.554c6.847,3.887,15.214,0,15.214-8.937
	c-0.001-0.216-0.021-0.433-0.062-0.646C109.649-15.102,110.197-16.09,110.456-17.172z"/>
<path fill="none" stroke="#50137C" stroke-linecap="round" stroke-linejoin="round" d="M161.124-14.856
	c1.295,0,2.537,0.514,3.452,1.43c0.916,0.915,1.429,2.157,1.429,3.45v5.695h-3.253v-5.695c0-0.43-0.172-0.844-0.477-1.149
	c-0.306-0.305-0.72-0.477-1.151-0.477s-0.846,0.171-1.15,0.477c-0.304,0.305-0.476,0.719-0.476,1.149v5.695h-3.255v-5.695
	c0-1.293,0.515-2.535,1.429-3.45C158.59-14.342,159.829-14.856,161.124-14.856L161.124-14.856z"/>
<path fill="none" stroke="#50137C" stroke-linecap="round" stroke-linejoin="round" d="M152.99-14.042h-3.254v9.762h3.254V-14.042z"
	/>
<path fill="none" stroke="#50137C" stroke-linecap="round" stroke-linejoin="round" d="M151.362-16.483
	c0.9,0,1.628-0.729,1.628-1.627c0-0.899-0.728-1.626-1.628-1.626c-0.897,0-1.626,0.728-1.626,1.626
	C149.736-17.211,150.465-16.483,151.362-16.483z"/>
<circle fill="#540C88" cx="-9.476" cy="38.602" r="19.524"/>
<circle fill="#540C88" cx="46.306" cy="38.602" r="19.524"/>
<circle fill="#540C88" cx="102.089" cy="38.602" r="19.524"/>
<circle fill="#540C88" cx="156.477" cy="38.602" r="19.524"/>
<path fill="none" stroke="#FFFFFF" stroke-linecap="round" stroke-linejoin="round" d="M-5.99,31.629h-2.092
	c-0.925,0-1.812,0.398-2.465,1.106c-0.655,0.708-1.021,1.669-1.021,2.672v2.266h-2.092v3.021h2.092v6.044h2.789v-6.044h2.092
	l0.697-3.021h-2.789v-2.266c0-0.202,0.073-0.394,0.204-0.535c0.131-0.141,0.308-0.221,0.493-0.221h2.092V31.629z"/>
<g>
	<g>
		<path fill="none" stroke="#FFFFFF" stroke-linecap="round" stroke-linejoin="round" d="M50.374,30.466h-8.135
			c-2.246,0-4.068,1.822-4.068,4.069v8.134c0,2.247,1.822,4.069,4.068,4.069h8.135c2.247,0,4.068-1.822,4.068-4.069v-8.134
			C54.441,32.288,52.621,30.466,50.374,30.466z"/>
		<path fill="none" stroke="#FFFFFF" stroke-linecap="round" stroke-linejoin="round" d="M49.561,38.09
			c0.1,0.677-0.016,1.367-0.331,1.975c-0.315,0.609-0.814,1.101-1.425,1.408s-1.304,0.416-1.98,0.307
			c-0.676-0.107-1.3-0.428-1.784-0.911c-0.484-0.484-0.803-1.108-0.912-1.784c-0.109-0.676-0.002-1.368,0.306-1.98
			c0.308-0.611,0.8-1.109,1.408-1.424c0.607-0.316,1.298-0.432,1.976-0.332c0.69,0.103,1.33,0.425,1.824,0.917
			C49.136,36.76,49.458,37.398,49.561,38.09z"/>
		<path fill="none" stroke="#FFFFFF" stroke-width="2" stroke-linecap="round" stroke-linejoin="round" d="M50.781,34.127h0.009"/>
	</g>
</g>
<path fill="none" stroke="#FFFFFF" stroke-linecap="round" stroke-linejoin="round" d="M110.456,33.032
	c-0.729,0.524-1.535,0.926-2.389,1.188c-0.458-0.538-1.068-0.919-1.743-1.094c-0.679-0.171-1.393-0.128-2.043,0.126
	c-0.652,0.254-1.212,0.708-1.604,1.296c-0.393,0.592-0.598,1.29-0.588,2.004v0.777c-1.338,0.035-2.661-0.269-3.855-0.883
	s-2.222-1.52-2.991-2.639c0,0-3.042,6.994,3.804,10.104c-1.566,1.087-3.434,1.632-5.325,1.554c6.847,3.887,15.214,0,15.214-8.937
	c-0.001-0.217-0.021-0.433-0.062-0.646C109.649,35.102,110.197,34.113,110.456,33.032z"/>
<path fill="none" stroke="#FFFFFF" stroke-linecap="round" stroke-linejoin="round" d="M161.124,35.348
	c1.295,0,2.537,0.515,3.452,1.43c0.916,0.915,1.429,2.157,1.429,3.451v5.695h-3.253v-5.695c0-0.431-0.172-0.845-0.477-1.149
	c-0.306-0.306-0.72-0.478-1.151-0.478s-0.846,0.172-1.15,0.478c-0.304,0.305-0.476,0.719-0.476,1.149v5.695h-3.255v-5.695
	c0-1.294,0.515-2.536,1.429-3.451C158.59,35.862,159.829,35.348,161.124,35.348L161.124,35.348z"/>
<path fill="none" stroke="#FFFFFF" stroke-linecap="round" stroke-linejoin="round" d="M152.99,36.161h-3.254v9.763h3.254V36.161z"
	/>
<path fill="none" stroke="#FFFFFF" stroke-linecap="round" stroke-linejoin="round" d="M151.362,33.721
	c0.9,0,1.628-0.729,1.628-1.626c0-0.898-0.728-1.627-1.628-1.627c-0.897,0-1.626,0.729-1.626,1.627
	C149.736,32.992,150.465,33.721,151.362,33.721z"/>
</svg>
